<svg width="50" height="50" viewBox="0 0 50 50" fill="none" xmlns="http://www.w3.org/2000/svg">
<g clip-path="url(#clip0_59_7029)">
<path d="M25 50C38.8071 50 50 38.8071 50 25C50 11.1929 38.8071 0 25 0C11.1929 0 0 11.1929 0 25C0 38.8071 11.1929 50 25 50Z" fill="#FF6529"/>
<path d="M49.2298 31.1789L33.8055 15.7545C33.8055 15.7545 25.2708 11.042 19.776 16.116C13.551 21.8643 17.5649 35.6168 17.5649 35.6168L31.1783 49.2303C40.021 46.9824 46.9819 40.0216 49.2298 31.1789Z" fill="#E53B07"/>
<path d="M25.0004 38.3356C18.6351 38.3356 13.4751 33.1755 13.4751 26.8104V23.1886C13.4751 16.8234 18.6352 11.6633 25.0003 11.6633C31.3655 11.6633 36.5255 16.8234 36.5255 23.1886V26.8104C36.5256 33.1755 31.3655 38.3356 25.0004 38.3356ZM25.0003 17.3274C21.7633 17.3274 19.1392 19.9515 19.1392 23.1886V26.8104C19.1392 30.0474 21.7633 32.6715 25.0003 32.6715C28.2373 32.6715 30.8614 30.0474 30.8614 26.8104V23.1886C30.8615 19.9515 28.2373 17.3274 25.0003 17.3274Z" fill="#F8FFFB"/>
<path d="M33.1494 15.0396C31.0645 12.9536 28.1826 11.6636 25 11.6636V17.3276C28.2373 17.3276 30.8613 19.9517 30.8613 23.189V26.8101C30.8613 28.4292 30.2051 29.894 29.1445 30.9546C28.084 32.0151 26.6191 32.6714 25 32.6714V38.3354C31.3652 38.3354 36.5254 33.1753 36.5254 26.8101V23.189C36.5254 20.0063 35.2354 17.1245 33.1494 15.0396Z" fill="#D8D8D8"/>
</g>
<defs>
<clipPath id="clip0_59_7029">
<rect width="50" height="50" fill="white"/>
</clipPath>
</defs>
</svg>
