<svg width="50" height="50" viewBox="0 0 50 50" fill="none" xmlns="http://www.w3.org/2000/svg">
<g clip-path="url(#clip0_59_7104)">
<path d="M25 50C38.8071 50 50 38.8071 50 25C50 11.1929 38.8071 0 25 0C11.1929 0 0 11.1929 0 25C0 38.8071 11.1929 50 25 50Z" fill="#424242"/>
<path d="M27.6941 49.8552C38.4397 48.7035 47.1468 40.7442 49.4188 30.3746L33.2989 14.2547C33.2989 14.2547 20.1108 13.8903 15.3472 21.7252L22.367 28.7628L16.1159 38.3496L27.6941 49.8552Z" fill="#232323"/>
<path d="M35.398 38.3496H16.1158V31.8409L28.4994 22.4656C30.0697 21.2767 29.6913 19.619 29.538 19.1392C29.3902 18.6771 28.7613 17.1646 26.8714 17.1094C26.8293 17.1083 26.7552 17.1076 26.7255 17.1074H24.5358C21.3103 17.1074 21.0598 20.6418 21.0598 21.7251H15.3472C15.3472 15.6427 19.1257 11.3948 24.5358 11.3948L26.7578 11.3949C26.7578 11.3949 26.9445 11.3965 27.0375 11.3992C30.7314 11.5071 33.8485 13.8625 34.9794 17.3997C36.1247 20.9825 34.9347 24.7586 31.9476 27.0201L24.5285 32.637H35.3981V38.3496H35.398Z" fill="#F8FFFB"/>
<path d="M31.9475 27.0199L25.378 31.9939V24.8285L28.4992 22.4657C30.0692 21.2769 29.691 19.6192 29.5383 19.1396C29.3905 18.6767 28.7611 17.1648 26.8711 17.1097C26.8287 17.1087 26.7549 17.1077 26.7253 17.1077H25.3779V11.3951H26.7578C26.7578 11.3951 26.9439 11.3971 27.0375 11.399C30.731 11.5073 33.8482 13.8623 34.979 17.4002C36.1245 20.9823 34.9348 24.7586 31.9475 27.0199Z" fill="#D8D8D8"/>
<path d="M25.3789 32.637H35.3986V38.3496H25.3789V32.637Z" fill="#D8D8D8"/>
</g>
<defs>
<clipPath id="clip0_59_7104">
<rect width="50" height="50" fill="white"/>
</clipPath>
</defs>
</svg>
