<svg width="50" height="50" viewBox="0 0 50 50" fill="none" xmlns="http://www.w3.org/2000/svg">
<g clip-path="url(#clip0_59_7059)">
<path d="M25 50C38.8071 50 50 38.8071 50 25C50 11.1929 38.8071 0 25 0C11.1929 0 0 11.1929 0 25C0 38.8071 11.1929 50 25 50Z" fill="#07E5CA"/>
<path d="M30.962 49.283C41.2277 46.7709 49.005 37.9207 49.9102 27.1147L34.4461 11.6506L19.4928 13.249L15.4854 26.2522L21.6316 32.2357L17.8486 36.2102L30.962 49.283Z" fill="#00B59B"/>
<path d="M22.8604 17.3147L22.3262 20.4456L24.5811 20.3391C27.1494 20.217 29.6875 20.9856 31.5449 22.7639C35.127 26.1936 35.4316 31.8528 32.2383 35.6467C30.3809 37.8538 27.6592 39.0911 24.8359 39.0911C24.2148 39.0911 23.5889 39.0315 22.9658 38.9084L22.7676 38.8694C20.8887 38.4993 19.1875 37.5793 17.8486 36.2102C16.5391 34.8704 15.668 33.1946 15.3232 31.3557L21.0498 30.8938C21.4941 32.1174 22.5605 33.0559 23.8633 33.3127L24.0615 33.3518C25.4922 33.634 26.9648 33.1155 27.9043 31.9993C29.1797 30.4846 29.0586 28.2249 27.6279 26.8547C26.8857 26.1438 25.8721 25.7659 24.8467 25.8127L15.4854 26.2522L18.1299 11.6506H34.4461V17.3147H22.8604Z" fill="#F8FFFB"/>
<path d="M31.5449 22.7639C35.127 26.1936 35.4316 31.8528 32.2383 35.6468C30.417 37.8108 27.7646 39.0433 25 39.0891V33.4241C26.1104 33.3792 27.1699 32.8714 27.9043 31.9993C29.1797 30.4847 29.0586 28.2249 27.6279 26.8548C26.9229 26.179 25.9727 25.804 25 25.8089V20.3274C27.4238 20.304 29.7881 21.0823 31.5449 22.7639Z" fill="#D8D8D8"/>
<path d="M25 11.6506H34.4463V17.3147H25V11.6506Z" fill="#D8D8D8"/>
</g>
<defs>
<clipPath id="clip0_59_7059">
<rect width="50" height="50" fill="white"/>
</clipPath>
</defs>
</svg>
