<svg width="458" height="198" viewBox="0 0 458 198" fill="none" xmlns="http://www.w3.org/2000/svg">
<g clip-path="url(#clip0_59_6255)">
<path d="M373.98 197.208C373.98 197.208 418.963 205.466 433.281 174.222C451.859 133.687 413.692 102.953 384.42 108.679C320.635 121.157 335.995 -16.4971 233.63 11.5968C204.846 19.4958 127.075 -27.4311 105.386 47.8134C100.227 65.7059 81.9544 67.6761 55.4271 79.0301C3.51082 101.249 27.2483 197.583 64.345 197.961C101.442 198.339 373.98 197.208 373.98 197.208Z" fill="#EDDCFF"/>
<path d="M278.803 183.199C269.529 176.25 260.626 185.326 247.641 179.392C234.656 173.458 261.366 144.159 250.608 135.258C239.851 126.357 222.044 145.271 222.044 145.271C222.044 145.271 253.206 106.33 241.335 101.472C229.463 96.6147 154.381 84.1971 154.381 84.1971L140.815 162.43C138.041 158.841 132.162 154.214 127.07 160.053C120.297 167.819 143.006 184.548 139.42 187.933C135.835 191.319 127.269 176.98 120.022 182.588C112.775 188.196 122.07 197.817 122.07 197.817L142.408 198.099C142.408 198.099 142.41 197.847 142.417 197.389C159.308 197.389 285.86 197.389 285.86 197.389C285.86 197.389 288.078 190.148 278.803 183.199Z" fill="#A8D29F"/>
<path d="M181.793 79.9292L172.453 190.961C172.453 190.961 171.474 197.692 176.482 197.704C184.715 197.723 217.463 197.704 217.463 197.704C217.463 197.704 211.266 196.303 211.342 193.15C211.431 189.435 222.259 78.8787 222.259 78.8787L181.793 79.9292Z" fill="#E04E3B"/>
<path d="M220.12 195.689C218.5 195.694 187.221 195.792 179.204 195.689C175.71 195.645 175.096 192.583 175.067 190.6C175.053 189.65 175.173 188.947 175.173 188.947L175.417 186.061L176.035 178.707L176.582 172.209L177.285 163.858L177.877 156.81L184.514 77.9141L224.98 76.8649C224.98 76.8649 220.42 123.132 217.193 156.811C216.833 160.563 216.49 164.162 216.173 167.52C216.07 168.593 215.972 169.641 215.876 170.661C215.577 173.848 215.303 176.773 215.066 179.357C214.941 180.719 214.825 181.984 214.721 183.143C214.309 187.685 214.068 190.585 214.065 191.136C214.064 191.458 214.091 191.756 214.144 192.035C214.807 195.574 219.513 195.689 220.12 195.689Z" fill="#FF6652"/>
<path d="M277.797 19.5103H83.5182L106.27 110.876L109.386 123.388L119.983 165.944H316.855L277.797 19.5103Z" fill="#FF6652"/>
<path d="M83.5182 19.5103L80.3658 20.5607L115.79 169.123L119.983 165.944L83.5182 19.5103Z" fill="#FF6652"/>
<path d="M115.79 169.123H311.45L316.853 165.944H119.983L115.79 169.123Z" fill="#E04E3B"/>
<path d="M184.501 197.747H226.864V195.735H184.501V197.747Z" fill="#FF6652"/>
<path d="M216.095 169.122L215.876 170.66L176.036 178.707L176.583 172.209L176.843 169.122H216.095Z" fill="#E04E3B"/>
<path opacity="0.4" d="M220.12 195.689C218.5 195.694 187.221 195.792 179.204 195.689C175.71 195.646 175.096 192.583 175.067 190.6L214.719 183.142C214.307 187.684 214.066 190.584 214.064 191.135C214.063 191.457 214.09 191.755 214.142 192.034C214.807 195.574 219.513 195.689 220.12 195.689Z" fill="#E04E3B"/>
<path opacity="0.4" d="M203.907 137.176L119.983 165.944L112.816 137.159L203.907 137.176Z" fill="#E04E3B"/>
<path d="M277.797 19.5103H83.5182L112.799 137.159L309.319 137.197L277.797 19.5103Z" fill="#8434DC"/>
<path d="M223.637 152.074C223.076 149.189 220.281 146.848 217.394 146.848C214.508 146.848 212.622 149.187 213.183 152.074C213.745 154.96 216.54 157.301 219.426 157.301C222.313 157.299 224.199 154.96 223.637 152.074Z" fill="#E04E3B"/>
<path d="M300.156 132.097H118.253L97.6521 50.0547L96.0726 43.7635L94.7248 38.3972L91.5659 25.8135H270.847L274.317 38.3972L275.797 43.7635L277.531 50.0547L300.156 132.097Z" fill="#E9F3FE"/>
<path d="M270.847 25.8135H91.5659L94.7248 38.3972H274.317L270.847 25.8135Z" fill="#9C4DF4"/>
<path d="M155.683 58.3605H173.819L176.172 67.4487H158.036L155.683 58.3605Z" fill="#8434DC"/>
<path d="M121.984 67.4484H140.118L142.363 76.1218H124.276L121.984 67.4484Z" fill="#8434DC"/>
<path d="M210.272 58.3605H228.407L230.76 67.4487H212.624L210.272 58.3605Z" fill="#8434DC"/>
<path d="M214.871 76.7433H233.007L235.252 85.4167H217.164L214.871 76.7433Z" fill="#8434DC"/>
<path d="M201.365 94.7119H237.733L239.988 103.8H203.718L201.365 94.7119Z" fill="#8434DC"/>
<path d="M280.096 58.0959H99.4684V58.6245H280.096V58.0959Z" fill="#9C4DF4"/>
<path d="M282.551 67.1843H102.062V67.7129H282.551V67.1843Z" fill="#9C4DF4"/>
<path d="M285.005 76.2722H103.853V76.8007H285.005V76.2722Z" fill="#9C4DF4"/>
<path d="M287.459 85.3606H106.522V85.8891H287.459V85.3606Z" fill="#9C4DF4"/>
<path d="M289.913 94.4486H108.819V94.9771H289.913V94.4486Z" fill="#9C4DF4"/>
<path d="M292.367 103.537H110.982V104.065H292.367V103.537Z" fill="#9C4DF4"/>
<path d="M294.822 112.624H113.212V113.152H294.822V112.624Z" fill="#9C4DF4"/>
<path d="M297.277 121.712H115.656V122.24H297.277V121.712Z" fill="#9C4DF4"/>
<path d="M100.163 29.9276C99.2943 29.9276 98.7656 30.6314 98.9815 31.5001C99.1987 32.3687 100.078 33.0726 100.947 33.0726C101.816 33.0726 102.345 32.3687 102.129 31.5001C101.913 30.6314 101.033 29.9276 100.163 29.9276Z" fill="#E9F3FE"/>
<path d="M105.392 29.9276C104.523 29.9276 103.995 30.6314 104.211 31.5001C104.428 32.3687 105.307 33.0726 106.176 33.0726C107.045 33.0726 107.574 32.3687 107.358 31.5001C107.141 30.6314 106.261 29.9276 105.392 29.9276Z" fill="#E9F3FE"/>
<path d="M112.987 31.5001C112.77 30.6314 111.891 29.9276 111.022 29.9276C110.153 29.9276 109.624 30.6314 109.84 31.5001C110.057 32.3687 110.937 33.0726 111.805 33.0726C112.674 33.0726 113.203 32.3687 112.987 31.5001Z" fill="#E9F3FE"/>
<path d="M283.329 132.163L283.84 132.03L262.617 50.0545H277.531L275.797 43.7633H260.988L260.971 43.6979L260.716 43.7633H242.852L242.835 43.6979L242.58 43.7633H224.718L224.701 43.6979L224.445 43.7633H206.583L206.566 43.6979L206.311 43.7633H188.447L188.43 43.6979L188.175 43.7633H170.313L170.295 43.6979L170.04 43.7633H152.178L152.161 43.6979L151.904 43.7633H134.042L134.025 43.6979L133.77 43.7633H115.907L115.89 43.6979L115.634 43.7633H96.0726L97.6521 50.0545H116.99L138.248 132.163L138.758 132.03L117.536 50.0545H135.126L156.382 132.163L156.894 132.03L135.671 50.0545H153.261L174.518 132.163L175.029 132.03L153.807 50.0545H171.395L192.653 132.163L193.163 132.03L171.941 50.0545H189.531L210.789 132.163L211.299 132.03L190.076 50.0545H207.666L228.923 132.163L229.434 132.03L208.212 50.0545H225.802L247.058 132.163L247.57 132.03L226.346 50.0545H243.936L265.194 132.163L265.704 132.03L244.482 50.0545H262.071L283.329 132.163Z" fill="#9C4DF4"/>
<path d="M408.22 97.2035H370.264V135.151H408.22V97.2035Z" fill="#E04E3B"/>
<path d="M419.926 97.2035H381.968V135.151H419.926V97.2035Z" fill="#EE9849"/>
<path d="M401.349 122.508C399.818 122.515 398.581 123.76 398.588 125.291C398.595 126.822 399.84 128.057 401.371 128.051C402.902 128.045 404.138 126.799 404.132 125.269C404.127 123.738 402.88 122.502 401.349 122.508Z" fill="#EBF2F9"/>
<path d="M401.373 109.42C402.904 109.413 404.14 108.168 404.134 106.637C404.127 105.107 402.881 103.872 401.35 103.877C399.819 103.883 398.583 105.129 398.589 106.659C398.596 108.19 399.842 109.426 401.373 109.42Z" fill="#EBF2F9"/>
<path d="M413.194 113.357L389.437 113.455L389.46 118.998L413.217 118.9L413.194 113.357Z" fill="#EBF2F9"/>
<path d="M77.4098 123.495H44.9624V155.934H77.4098V123.495Z" fill="#4A75CB"/>
<path d="M87.4151 123.495H54.9678V155.934H87.4151V123.495Z" fill="#699DEE"/>
<path d="M81.6679 137.345H61.3589V142.084H81.6679V137.345Z" fill="#EBF2F9"/>
<path d="M351.555 197.985H414.407V135.15H351.555V197.985Z" fill="#E04E3B"/>
<path d="M395.028 135.15H332.176V197.984H395.028V135.15Z" fill="#FF6652"/>
<path d="M382.646 161.978H367.567V146.904H358.386V161.978H343.309V171.155H358.386V186.23H367.567V171.155H382.646V161.978Z" fill="#EBF2F9"/>
<path d="M395.028 135.15L414.408 144.584V135.15H395.028Z" fill="#C95C12"/>
<path d="M431.025 198.101H32.5847C32.3897 198.101 32.2288 197.942 32.2288 197.745C32.2288 197.551 32.3884 197.39 32.5847 197.39H431.025C431.22 197.39 431.381 197.549 431.381 197.745C431.38 197.942 431.22 198.101 431.025 198.101Z" fill="#283250"/>
<path d="M90.0441 155.933H48.5754V197.391H90.0441V155.933Z" fill="#E04E3B"/>
<path d="M102.83 155.933H61.3616V197.391H102.83V155.933Z" fill="#FF6652"/>
<path d="M93.9385 183.509L86.7897 176.593L93.7095 169.444L89.3559 165.233L82.4374 172.38L75.2887 165.464L71.0764 169.815L78.2251 176.732L71.3067 183.879L75.659 188.09L82.5775 180.944L89.7262 187.86L93.9385 183.509Z" fill="#EBF2F9"/>
<path d="M61.3615 155.933L48.5754 163.683V155.933H61.3615Z" fill="#C95C12"/>
<path d="M271.812 89.0604C271.812 89.0604 281.479 98.9021 281.943 102.667C282.408 106.432 277.341 112.322 277.341 112.322L271.812 89.0604Z" fill="#E58638"/>
<path d="M267.67 192.616C267.67 192.616 267.464 195.932 266.869 197.36H254.781C254.986 196.885 255.461 196.275 256.562 196.083C258.456 195.752 261.624 194.423 262.77 191.921C263.977 189.291 267.67 192.616 267.67 192.616Z" fill="#163560"/>
<path d="M282.093 192.616C282.093 192.616 281.887 195.932 281.293 197.36H269.206C269.409 196.885 269.884 196.275 270.987 196.083C272.879 195.752 276.048 194.423 277.195 191.921C278.401 189.291 282.093 192.616 282.093 192.616Z" fill="#163560"/>
<path d="M260.497 135.574C260.497 135.574 262.191 146.403 268.51 165.627C274.829 184.852 275.689 193.176 275.689 193.176L282.467 192.986C282.467 192.986 282.525 171.976 279.613 162.31C276.701 152.643 278.985 127.459 278.985 127.459L260.497 135.574Z" fill="#163560"/>
<path d="M257.198 128.052C257.198 128.052 256.959 144.37 259.783 164.408C262.607 184.446 261.65 192.951 261.65 192.951L268.414 193.176C268.414 193.176 272.456 173.131 271.298 163.102C270.139 153.074 276.833 128.689 276.833 128.689L257.198 128.052Z" fill="#1C468A"/>
<path d="M270.293 89.8621L266.689 92.2247L261.481 91.254C261.553 90.8341 261.897 89.0915 262.21 87.5138C262.229 87.4209 262.248 87.3281 262.265 87.2365C262.533 85.8943 262.765 84.7404 262.765 84.7404L267.63 82.5949L269.444 81.7943C269.439 81.8231 269.304 83.2844 269.284 83.4976C268.944 87.2875 270.293 89.8621 270.293 89.8621Z" fill="#FFB27D"/>
<path d="M279.432 130.066C278.387 134.837 260.977 135.403 256.489 131.072C255.979 130.579 255.954 128.282 256.146 125.185C256.523 119.136 257.732 110.036 257.779 105.387C257.803 103.142 258.11 100.845 258.523 98.7594C259.397 94.3154 260.73 90.8277 260.73 90.8277C260.73 90.8277 269.233 88.0791 270.824 88.5475C278.49 90.7976 280.479 125.295 279.432 130.066Z" fill="#EE9849"/>
<path d="M256.148 125.186C256.524 119.136 257.734 110.037 257.781 105.387C257.804 103.142 258.112 100.845 258.524 98.7597L263.639 97.8571C263.638 97.8571 268.639 118.278 256.148 125.186Z" fill="#E58638"/>
<path d="M258.916 116.753C258.916 116.753 259.264 117.586 258.533 118.145C257.801 118.704 257.326 119.61 257.494 120.273C257.661 120.935 259.268 122.016 259.825 121.842C260.381 121.668 261.514 120.795 261.392 120.446C261.271 120.096 262.155 117.379 260.797 116.334C259.44 115.289 258.916 116.753 258.916 116.753Z" fill="#FFB27D"/>
<path d="M264.636 89.6034C264.636 89.6034 259.648 90.5362 255.673 96.393C251.697 102.249 249.083 106.604 249.815 108.714C250.548 110.824 257.222 118.145 258.372 118.145C259.522 118.145 261.379 117.309 261.484 115.426C261.484 115.426 256.785 108.385 257.71 107.331C258.105 106.88 263.811 102.25 264.626 104.342C265.974 107.801 264.636 89.6034 264.636 89.6034Z" fill="#EE9849"/>
<path d="M268.919 83.5646C267.851 85.3738 263.871 86.9384 262.21 87.5127C262.228 87.4199 262.248 87.327 262.265 87.2354C262.533 85.8932 262.765 84.7393 262.765 84.7393L267.63 82.5939C268.706 82.5795 269.36 82.8202 268.919 83.5646Z" fill="#FCA56B"/>
<path d="M260.932 84.4451C260.932 84.4451 268.767 86.8889 270.215 81.987C271.662 77.0851 273.648 74.0985 268.706 72.3311C263.763 70.5637 262.235 72.1453 261.354 73.6641C260.474 75.183 258.931 83.6824 260.932 84.4451Z" fill="#FFB27D"/>
<path d="M261.662 73.1917C261.662 73.1917 262.162 78.8969 263.342 78.6483C264.522 78.3997 265.593 78.2166 265.42 79.9369C265.247 81.6559 263.61 83.6418 267.248 83.9466C270.885 84.2514 276.112 74.8741 275.114 73.0989C272.23 67.9759 257.495 66.9424 261.662 73.1917Z" fill="#163560"/>
<path d="M262.815 88.6703C262.915 88.6272 269.087 86.8074 269.758 87.0285C270.428 87.2496 270.826 88.546 270.826 88.546L260.731 90.8276C260.731 90.8276 261.526 89.2132 262.815 88.6703Z" fill="#E58638"/>
<path d="M67.7761 103.111C67.7761 103.111 64.5046 99.2952 67.5745 96.8724C67.5745 96.8724 69.8161 95.5158 71.6455 95.6257C71.6455 95.6257 69.0545 99.969 69.8933 100.401C70.7321 100.832 72.4307 95.3536 72.4307 95.3536C72.4307 95.3536 77.5328 94.8591 79.175 95.6479C79.175 95.6479 74.8136 99.2167 75.7322 99.4287C76.6508 99.6406 81.363 96.1385 81.363 96.1385C81.363 96.1385 86.1118 96.947 85.8592 99.8421C85.6067 102.738 83.9697 103.632 83.2499 103.556C82.5302 103.479 78.3232 101.874 78.2316 102.462C78.14 103.051 80.6721 104.977 82.4452 105.067C82.4452 105.067 79.0965 108.759 76.872 107.693C74.6474 106.628 74.4563 104.939 73.0692 104.306C71.6822 103.673 70.4979 103.674 71.0711 104.32C71.6442 104.966 74.154 105.594 74.947 106.997C75.74 108.399 76.4519 109.345 74.1501 109C71.8483 108.653 68.1058 106.969 67.9409 105.041C67.7761 103.113 67.7761 103.111 67.7761 103.111Z" fill="#82B378"/>
<path d="M83.5234 99.9204C83.5234 99.9204 70.6248 99.4232 67.776 103.111C67.776 103.111 67.1466 104.998 65.2073 106.715L64.905 107.538C64.905 107.538 67.1401 105.182 67.9396 105.039C67.9409 105.039 66.6899 100.471 83.5234 99.9204Z" fill="#82B378"/>
<path d="M65.2074 106.715C65.2074 106.715 62.4385 108.763 62.2461 112.419L62.7486 112.464C62.7486 112.464 63.6332 108.682 65.231 107.203C66.83 105.725 65.2074 106.715 65.2074 106.715Z" fill="#82B378"/>
<path d="M56.3378 98.3132C56.3378 98.3132 61.542 95.3998 59.1133 91.4464C59.1133 91.4464 57.17 89.0183 55.0894 88.3943C55.0894 88.3943 56.1991 94.2904 55.0894 94.4291C53.9797 94.5678 54.3265 87.7703 54.3265 87.7703C54.3265 87.7703 48.8449 85.1342 46.6936 85.3422C46.6936 85.3422 50.0933 91.0997 48.9836 90.961C47.874 90.8223 44.0568 84.9956 44.0568 84.9956C44.0568 84.9956 38.4365 83.9555 37.5349 87.2849C36.6333 90.6143 38.0898 92.2797 38.9233 92.4877C39.7556 92.6957 45.0985 92.6264 44.9598 93.3197C44.8211 94.0131 41.2133 95.1238 39.2007 94.4984C39.2007 94.4984 41.4214 99.9785 44.3356 99.7012C47.2498 99.4239 48.1514 97.6198 49.9559 97.4811C51.7604 97.3425 53.0781 97.8278 52.1765 98.3132C51.2749 98.7985 48.222 98.4728 46.7643 99.7103C45.3065 100.949 44.1275 101.712 46.8336 102.267C49.5398 102.821 54.3972 102.475 55.3681 100.393C56.3378 98.3132 56.3378 98.3132 56.3378 98.3132Z" fill="#A8D29F"/>
<path d="M40.1023 88.3252C40.1023 88.3252 54.6732 93.0426 56.339 98.3134C56.339 98.3134 56.2697 100.672 57.7261 103.378V104.418C57.7261 104.418 56.199 100.88 55.3668 100.395C55.3668 100.395 58.6277 95.816 40.1023 88.3252Z" fill="#82B378"/>
<path d="M57.7261 103.378C57.7261 103.378 59.9729 106.789 58.6919 110.942L58.1135 110.786C58.1135 110.786 58.6748 106.212 57.4984 103.911C56.3233 101.611 57.7261 103.378 57.7261 103.378Z" fill="#82B378"/>
<path d="M64.6172 94.2956C64.6172 94.2956 57.7576 90.4546 60.9584 85.2427C60.9584 85.2427 63.5193 82.0428 66.2633 81.22C66.2633 81.22 64.8004 88.9921 66.2633 89.1752C67.7263 89.3584 67.2696 80.3971 67.2696 80.3971C67.2696 80.3971 74.4956 76.9225 77.3299 77.1972C77.3299 77.1972 72.8481 84.7862 74.3111 84.603C75.774 84.4199 80.8055 76.7393 80.8055 76.7393C80.8055 76.7393 88.2133 75.3683 89.4028 79.7574C90.5923 84.1464 88.6713 86.3403 87.5734 86.615C86.4755 86.8898 79.4328 86.7982 79.616 87.7126C79.7992 88.6271 84.5545 90.0896 87.207 89.2668C87.207 89.2668 84.2797 96.4907 80.4391 96.1244C76.5971 95.7581 75.4089 93.3811 73.0313 93.198C70.6536 93.0148 68.9158 93.6558 70.104 94.2956C71.2935 94.9353 75.3173 94.5049 77.2383 96.1375C79.1593 97.7702 80.7139 98.7762 77.1467 99.5075C73.5796 100.239 67.178 99.7822 65.8969 97.0389C64.6172 94.2955 64.6172 94.2956 64.6172 94.2956Z" fill="#A8D29F"/>
<path d="M86.0189 81.1281C86.0189 81.1281 66.8117 87.346 64.6172 94.2952C64.6172 94.2952 64.7088 97.4035 62.7878 100.97V102.341C62.7878 102.341 64.8004 97.677 65.897 97.0372C65.8983 97.0386 61.5997 91.0024 86.0189 81.1281Z" fill="#82B378"/>
<path d="M62.7878 100.97C62.7878 100.97 59.8252 105.466 61.5145 110.941L62.2761 110.737C62.2761 110.737 61.5368 104.707 63.0861 101.675C64.6368 98.6426 62.7878 100.97 62.7878 100.97Z" fill="#82B378"/>
<path d="M64.3856 122.811C71.8065 122.811 77.822 116.797 77.822 109.378H50.9492C50.9492 116.797 56.9647 122.811 64.3856 122.811Z" fill="#FF6652"/>
<path d="M67.6923 122.709C67.1454 122.777 66.5892 122.812 66.0226 122.812C58.6017 122.812 52.5862 116.797 52.5862 109.378H55.9244C55.9257 116.232 61.0592 121.886 67.6923 122.709Z" fill="#FFB973"/>
<path d="M76.351 121.838H52.4211C51.5051 121.838 50.7632 122.579 50.7632 123.495H78.009C78.009 122.579 77.267 121.838 76.351 121.838Z" fill="#FF6652"/>
<path d="M78.1281 109.378H50.5068V109.79H78.1281V109.378Z" fill="#E04E3B"/>
</g>
<defs>
<clipPath id="clip0_59_6255">
<rect width="458" height="198" fill="white"/>
</clipPath>
</defs>
</svg>
