<svg width="296" height="185" viewBox="0 0 296 185" fill="none" xmlns="http://www.w3.org/2000/svg">
<path d="M272.987 179.955H17.947C13.2372 179.955 9.42261 176.159 9.42261 171.472V9.39546C9.42261 4.70897 13.2372 0.913208 17.947 0.913208H272.987C277.697 0.913208 281.512 4.70897 281.512 9.39546V171.472C281.512 176.153 277.697 179.955 272.987 179.955Z" fill="#455A64"/>
<path d="M284.888 184.053H10.9323C5.18113 184.053 0.518188 179.413 0.518188 173.69V168.387H295.302V173.69C295.302 179.419 290.639 184.053 284.888 184.053Z" fill="#455A64"/>
<path d="M118.648 166.71L122.305 172.503H173.778L177.172 166.71H118.648Z" fill="#263238"/>
<path d="M279.171 166.71C279.171 166.809 218.781 166.885 144.303 166.885C69.801 166.885 9.42261 166.809 9.42261 166.71C9.42261 166.611 69.801 166.535 144.303 166.535C218.781 166.535 279.171 166.611 279.171 166.71Z" fill="#263238"/>
<path d="M270.741 161.977H19.1347C18.0757 161.977 17.2215 161.121 17.2215 160.073V13.1156C17.2215 12.0619 18.0815 11.2119 19.1347 11.2119H270.747C271.805 11.2119 272.66 12.0677 272.66 13.1156V160.073C272.654 161.121 271.8 161.977 270.741 161.977Z" fill="#EBEBEB"/>
<path d="M272.385 162.198H16.9408L17.2158 22.4769H272.385V162.198Z" fill="white"/>
<path d="M38.1666 17.0337C38.1666 18.1573 37.2539 19.0655 36.1247 19.0655C34.9955 19.0655 34.0828 18.1573 34.0828 17.0337C34.0828 15.9101 34.9955 15.002 36.1247 15.002C37.2539 15.002 38.1666 15.9101 38.1666 17.0337Z" fill="#263238"/>
<path d="M25.8046 17.0337C25.8046 18.1573 24.8919 19.0655 23.7628 19.0655C22.6336 19.0655 21.7209 18.1573 21.7209 17.0337C21.7209 15.9101 22.6336 15.002 23.7628 15.002C24.8919 15.002 25.8046 15.9101 25.8046 17.0337Z" fill="#263238"/>
<path d="M31.7368 17.0337C31.7368 18.1573 30.8241 19.0655 29.695 19.0655C28.5658 19.0655 27.6531 18.1573 27.6531 17.0337C27.6531 15.9101 28.5658 15.002 29.695 15.002C30.8241 15.002 31.7368 15.9101 31.7368 17.0337Z" fill="#263238"/>
<path d="M272.654 148.704H16.9408V162.199H272.654V148.704Z" fill="#263238"/>
<path d="M26.6062 157.011V157.442H24.5702V157.098L25.6701 156.062C25.9392 155.806 25.986 155.649 25.986 155.492C25.986 155.241 25.8105 155.096 25.4712 155.096C25.202 155.096 24.9797 155.189 24.8217 155.381L24.4648 155.107C24.6755 154.822 25.0616 154.653 25.5121 154.653C26.1147 154.653 26.5009 154.956 26.5009 155.445C26.5009 155.713 26.4248 155.957 26.0445 156.313L25.3073 157.011H26.6062Z" fill="white"/>
<path d="M26.881 155.649C26.881 155.451 27.0273 155.323 27.2028 155.323C27.3783 155.323 27.5246 155.451 27.5246 155.649C27.5246 155.835 27.3783 155.975 27.2028 155.975C27.0273 155.975 26.881 155.841 26.881 155.649ZM26.881 157.145C26.881 156.947 27.0273 156.819 27.2028 156.819C27.3783 156.819 27.5246 156.947 27.5246 157.145C27.5246 157.331 27.3783 157.471 27.2028 157.471C27.0273 157.471 26.881 157.337 26.881 157.145Z" fill="white"/>
<path d="M28.8117 154.694V157.442H28.2969V155.119H27.7118V154.688H28.8117V154.694Z" fill="white"/>
<path d="M31.8247 156.819H31.3332V157.442H30.8359V156.819H29.3206V156.464L30.6838 154.694H31.2338L29.9525 156.388H30.8593V155.835H31.3391V156.388H31.8305V156.819H31.8247Z" fill="white"/>
<path d="M245.929 155.719H36.3361V156.668H245.929V155.719Z" fill="white"/>
<path d="M101.676 154.7H36.1779V157.238H101.676V154.7Z" fill="#FF6652"/>
<path d="M103.794 156.197C103.794 157.949 102.366 159.369 100.605 159.369C98.8441 159.369 97.4165 157.949 97.4165 156.197C97.4165 154.444 98.8441 153.024 100.605 153.024C102.366 153.024 103.794 154.444 103.794 156.197Z" fill="#FF6652"/>
<path d="M251.206 156.167C251.206 156.714 250.761 157.058 250.194 157.058C249.439 157.058 249 156.575 249 155.69C249 154.747 249.55 154.229 250.352 154.229C250.627 154.229 250.89 154.287 251.077 154.403L250.89 154.787C250.738 154.688 250.557 154.654 250.363 154.654C249.843 154.654 249.515 154.974 249.515 155.602V155.608C249.679 155.416 249.948 155.323 250.252 155.323C250.802 155.323 251.206 155.655 251.206 156.167ZM250.709 156.19C250.709 155.905 250.492 155.725 250.159 155.725C249.825 155.725 249.597 155.923 249.597 156.196C249.597 156.452 249.802 156.662 250.17 156.662C250.492 156.656 250.709 156.476 250.709 156.19Z" fill="white"/>
<path d="M251.458 155.224C251.458 155.026 251.604 154.898 251.779 154.898C251.955 154.898 252.101 155.026 252.101 155.224C252.101 155.41 251.955 155.55 251.779 155.55C251.604 155.55 251.458 155.41 251.458 155.224ZM251.458 156.72C251.458 156.522 251.604 156.394 251.779 156.394C251.955 156.394 252.101 156.522 252.101 156.72C252.101 156.906 251.955 157.046 251.779 157.046C251.604 157.046 251.458 156.906 251.458 156.72Z" fill="white"/>
<path d="M252.435 155.643C252.435 154.741 252.932 154.229 253.587 154.229C254.248 154.229 254.746 154.741 254.746 155.643C254.746 156.546 254.248 157.058 253.587 157.058C252.932 157.058 252.435 156.546 252.435 155.643ZM254.225 155.643C254.225 154.98 253.968 154.671 253.587 154.671C253.213 154.671 252.95 154.98 252.95 155.643C252.95 156.307 253.213 156.615 253.587 156.615C253.968 156.615 254.225 156.307 254.225 155.643Z" fill="white"/>
<path d="M255.085 155.643C255.085 154.741 255.582 154.229 256.237 154.229C256.898 154.229 257.396 154.741 257.396 155.643C257.396 156.546 256.898 157.058 256.237 157.058C255.582 157.058 255.085 156.546 255.085 155.643ZM256.881 155.643C256.881 154.98 256.623 154.671 256.243 154.671C255.869 154.671 255.605 154.98 255.605 155.643C255.605 156.307 255.869 156.615 256.243 156.615C256.618 156.615 256.881 156.307 256.881 155.643Z" fill="white"/>
<path d="M261.859 155.474H260.906V152.732H263.65V153.681H261.859V155.474Z" fill="white"/>
<path d="M263.656 159.049H260.9V156.318H261.854V158.1H263.656V159.049Z" fill="white"/>
<path d="M268.044 159.049H265.294V158.1H267.084V156.307H268.044V159.049Z" fill="white"/>
<path d="M268.044 155.469H267.09V153.681H265.288V152.732H268.044V155.469Z" fill="white"/>
<path d="M51.9745 30.7844H36.915L29.3911 43.7552L36.915 56.7319H51.9745L59.4984 43.7552L51.9745 30.7844Z" fill="#EBEBEB"/>
<path d="M38.1437 46.2996C37.4708 45.5602 36.7922 44.8092 36.3007 43.936C35.8093 43.0627 35.5167 42.0497 35.6805 41.06C35.7742 40.4837 36.0199 39.9365 36.0608 39.3543C36.1135 38.5509 35.7742 37.7126 36.0608 36.9616C36.5055 35.7856 38.0969 35.6051 39.0622 34.7959C39.8111 34.1613 40.1797 33.1367 41.0046 32.6069C41.7242 32.1412 42.6545 32.1528 43.5028 32.2751C44.3512 32.3973 45.2112 32.6069 46.0596 32.4963C46.668 32.4148 47.2355 32.1703 47.8323 32.0247C48.4291 31.8792 49.0902 31.8384 49.6167 32.147C50.1433 32.4555 50.4417 33.2007 50.0965 33.7014C51.0852 33.2473 52.3373 34.0158 52.6064 35.0579C52.8755 36.1058 52.3373 37.2352 51.5006 37.928C50.664 38.6208 49.5816 38.9409 48.5168 39.1389C45.4979 39.7036 42.2157 39.3834 39.6122 37.7591" fill="#263238"/>
<path d="M52.1035 49.5013C52.004 47.6442 51.4774 43.8368 50.9684 40.3961C50.4185 36.6935 47.1012 34.0388 43.3509 34.2892L42.9765 34.3124C38.9747 34.8131 37.1668 38.475 37.7811 42.4454L38.9571 56.7377H48.7277C48.7277 56.7377 48.4995 54.2286 48.4936 54.2053C48.4936 54.1995 52.3141 53.3437 52.1035 49.5013Z" fill="#FFBE9D"/>
<path d="M48.4937 54.1471C48.4937 54.1471 46.0657 54.5081 43.3627 53.0585C43.3627 53.0585 44.7376 55.7423 48.5697 55.1427L48.4937 54.1471Z" fill="#EB996E"/>
<path d="M50.267 42.3291C50.2026 42.4047 49.7638 42.1253 49.1729 42.1661C48.582 42.201 48.1666 42.5328 48.0964 42.463C48.0613 42.4339 48.1256 42.3 48.3012 42.1486C48.4767 41.9972 48.7868 41.8459 49.1554 41.8226C49.5239 41.7993 49.8457 41.9157 50.0329 42.0438C50.226 42.1661 50.2962 42.2941 50.267 42.3291Z" fill="#263238"/>
<path d="M44.4395 42.83C44.3751 42.9057 43.9363 42.6263 43.3454 42.667C42.7545 42.702 42.3391 43.0338 42.2689 42.9639C42.2338 42.9348 42.2982 42.8009 42.4795 42.6496C42.655 42.4982 42.9651 42.3468 43.3337 42.3235C43.7023 42.3003 44.0241 42.4167 44.2113 42.5448C44.3985 42.667 44.4687 42.7951 44.4395 42.83Z" fill="#263238"/>
<path d="M46.8849 47.0623C46.879 47.0274 47.2418 46.94 47.8385 46.8236C47.9906 46.8003 48.1311 46.7596 48.1486 46.6548C48.1779 46.5442 48.1018 46.387 48.0199 46.2123C47.8502 45.8572 47.6806 45.4846 47.4933 45.0946C46.762 43.4994 46.2179 42.1895 46.2823 42.1604C46.3466 42.1313 46.996 43.4004 47.7274 44.9956C47.9029 45.3915 48.0726 45.764 48.2364 46.125C48.3066 46.2938 48.4177 46.4801 48.3534 46.713C48.3183 46.8294 48.213 46.9168 48.1194 46.9517C48.0258 46.9866 47.938 46.9924 47.8619 47.0041C47.2652 47.0681 46.8907 47.0972 46.8849 47.0623Z" fill="#263238"/>
<path d="M44.4336 40.5007C44.3867 40.6637 43.79 40.6288 43.0996 40.7569C42.4034 40.8733 41.8593 41.112 41.7539 40.9781C41.7071 40.9141 41.7949 40.7569 42.0114 40.5822C42.2278 40.4134 42.573 40.2387 42.9884 40.1689C43.4038 40.0932 43.79 40.134 44.0533 40.2213C44.3165 40.3086 44.457 40.425 44.4336 40.5007Z" fill="#263238"/>
<path d="M49.9329 40.6349C49.8393 40.7746 49.4181 40.664 48.9266 40.6873C48.4352 40.699 48.0256 40.8387 47.9203 40.7048C47.8735 40.6407 47.932 40.501 48.1017 40.3613C48.2714 40.2216 48.5639 40.0993 48.9032 40.0877C49.2426 40.076 49.5409 40.1808 49.7223 40.3031C49.9037 40.4312 49.9739 40.5651 49.9329 40.6349Z" fill="#263238"/>
<path d="M38.29 45.2632C38.2198 45.2399 35.5811 44.6577 35.8444 47.2833C36.1077 49.9031 38.9628 49.0531 38.9569 48.9774C38.9569 48.8959 38.29 45.2632 38.29 45.2632Z" fill="#FFBE9D"/>
<path d="M37.7866 48.1156C37.7749 48.1098 37.7456 48.1505 37.6696 48.1971C37.5994 48.2378 37.4706 48.2728 37.3244 48.2378C37.0377 48.1621 36.7569 47.7488 36.6984 47.2772C36.6691 47.0386 36.6984 46.8057 36.7627 46.6136C36.8212 46.4156 36.9382 46.2701 37.0728 46.2293C37.2074 46.1828 37.3185 46.2584 37.3536 46.3283C37.3946 46.3982 37.3829 46.4506 37.4004 46.4564C37.4063 46.4622 37.4531 46.4098 37.418 46.2992C37.4004 46.2468 37.3653 46.1886 37.2951 46.1478C37.2249 46.1013 37.1313 46.0838 37.0318 46.1071C36.8329 46.142 36.6633 46.3458 36.5931 46.5612C36.5111 46.7766 36.4702 47.0386 36.5053 47.3064C36.5755 47.8303 36.8973 48.3019 37.2893 48.3717C37.4765 48.4008 37.6286 48.331 37.7047 48.2611C37.7924 48.1796 37.7983 48.1156 37.7866 48.1156Z" fill="#EB996E"/>
<path d="M50.7753 36.8043C50.594 37.8464 48.4702 38.8012 46.7033 38.7546C45.0768 38.708 44.2753 37.9046 43.0935 37.3341C42.3446 36.9731 42.3446 36.9731 41.3324 37.1362C40.5133 37.2701 40.0862 38.2306 39.624 38.9176C40.5016 40.8213 40.1447 43.0336 39.7762 45.0945C39.7352 45.3215 39.6825 45.566 39.507 45.7232C39.2086 45.9852 38.7289 45.828 38.4422 45.5602C37.9742 45.1352 37.7635 44.5065 37.6114 43.8952C37.2604 42.5038 37.1317 41.0484 37.3481 39.6337C37.5705 38.219 38.1555 36.8392 39.1326 35.7855C40.3495 34.464 42.1223 33.7013 43.9242 33.6082C45.7204 33.515 47.5282 34.0681 49.0318 35.052C49.7222 35.5119 50.3775 36.0708 50.7753 36.8043Z" fill="#263238"/>
<path d="M47.2768 48.3894C46.8263 48.1798 46.3816 47.976 45.9311 47.7665C45.8551 47.7315 45.7732 47.6966 45.6854 47.7024C45.5918 47.7141 45.5157 47.7839 45.4514 47.8596C45.1413 48.2322 45.0594 48.8027 45.3051 49.2277C45.545 49.6527 46.1125 49.8739 46.563 49.6876C47.0369 49.4897 47.2709 48.9424 47.306 48.4301L47.2768 48.3894Z" fill="#EB996E"/>
<path d="M46.6096 49.7868C46.633 49.8101 46.3288 50.0022 45.8198 49.8567C45.574 49.781 45.2932 49.5947 45.1235 49.2919C44.948 48.995 44.8837 48.5759 45.0358 48.1975C45.106 48.0112 45.223 47.8423 45.3634 47.7143C45.4336 47.6502 45.5038 47.592 45.5916 47.5454C45.6793 47.4814 45.8607 47.4756 45.9426 47.5221C46.2469 47.691 46.4575 47.8365 46.6622 47.9704C47.0542 48.2324 47.2883 48.407 47.2649 48.4478C47.2415 48.4827 46.9723 48.3721 46.5511 48.1567C46.3054 48.0286 46.0713 47.9064 45.8315 47.7841C45.7729 47.7666 45.7788 47.7666 45.7261 47.7958C45.6735 47.8307 45.6091 47.8773 45.5623 47.9297C45.457 48.0344 45.3693 48.1625 45.3166 48.3081C45.1996 48.5992 45.2405 48.9194 45.3692 49.1639C45.498 49.4084 45.6969 49.5714 45.8958 49.6587C46.2995 49.8275 46.5979 49.7344 46.6096 49.7868Z" fill="#263238"/>
<path d="M46.1825 43.7554C46.1533 43.7554 46.1591 43.5109 46.0362 43.1034C45.9192 42.7017 45.6384 42.1137 45.0299 41.6654C44.439 41.2171 43.4737 40.9668 42.5434 41.3161C41.619 41.6363 40.8233 42.6143 40.835 43.7554C40.8233 44.8965 41.619 45.8745 42.5434 46.1947C43.4737 46.544 44.439 46.2937 45.0299 45.8454C45.6384 45.3971 45.9251 44.8091 46.0362 44.4074C46.1591 43.9999 46.1533 43.7554 46.1825 43.7554C46.1942 43.7554 46.2001 43.8136 46.2059 43.9301C46.2118 44.0465 46.2001 44.2211 46.1533 44.4365C46.0655 44.8673 45.8022 45.5077 45.1586 46.0142C44.5385 46.5207 43.4795 46.8234 42.444 46.4567C41.4142 46.119 40.5133 45.0304 40.525 43.7554C40.5133 42.4804 41.4142 41.3918 42.444 41.0541C43.4854 40.6815 44.5385 40.9843 45.1586 41.4966C45.8022 42.0031 46.0655 42.6493 46.1533 43.0743C46.2001 43.2897 46.2118 43.4643 46.2059 43.5807C46.2001 43.6972 46.1942 43.7554 46.1825 43.7554Z" fill="#263238"/>
<path d="M52.7528 43.4993C52.7235 43.4993 52.7235 43.2606 52.6124 42.8647C52.5012 42.4747 52.2262 41.9041 51.6295 41.4675C51.0561 41.0309 50.1142 40.7922 49.2073 41.1298C48.3063 41.4384 47.534 42.3932 47.5457 43.5051C47.534 44.6171 48.3122 45.566 49.2073 45.8804C50.1142 46.218 51.0561 45.9793 51.6295 45.5427C52.2262 45.1061 52.5012 44.5356 52.6124 44.1455C52.7294 43.738 52.7235 43.4993 52.7528 43.4993C52.7645 43.4993 52.7703 43.5575 52.7762 43.6739C52.782 43.7846 52.7703 43.9534 52.7294 44.1688C52.6475 44.588 52.3901 45.2109 51.764 45.7115C51.1614 46.2064 50.1317 46.5033 49.1137 46.1424C48.1074 45.8105 47.2298 44.751 47.2415 43.5051C47.2298 42.2593 48.1074 41.1997 49.1137 40.8679C50.1259 40.5069 51.1556 40.8038 51.764 41.2987C52.3901 41.7935 52.6475 42.4223 52.7294 42.8414C52.7762 43.051 52.782 43.2198 52.7762 43.3363C52.7703 43.4411 52.7645 43.4993 52.7528 43.4993Z" fill="#263238"/>
<path d="M47.3936 42.8998C47.3351 42.958 47.0718 42.7892 46.7208 42.8008C46.3698 42.8008 46.1182 42.9813 46.0538 42.9231C45.9719 42.8823 46.2177 42.5039 46.715 42.4923C47.2123 42.4864 47.4697 42.8532 47.3936 42.8998Z" fill="#263238"/>
<path d="M40.8467 43.3716C40.8993 43.4414 40.3845 43.9013 39.7058 44.4078C39.0272 44.9143 38.4304 45.2694 38.3836 45.1996C38.3309 45.1297 38.8458 44.6698 39.5245 44.1633C40.2031 43.6568 40.794 43.3017 40.8467 43.3716Z" fill="#263238"/>
<path d="M95.1518 43.6268C95.1518 43.7083 88.3826 43.7782 80.0338 43.7782C71.6849 43.7782 64.9158 43.7083 64.9158 43.6268C64.9158 43.5453 71.6849 43.4755 80.0338 43.4755C88.3826 43.4755 95.1518 43.5395 95.1518 43.6268Z" fill="#263238"/>
<path d="M81.1689 46.7767C81.1689 46.8582 77.5766 46.9281 73.1418 46.9281C68.707 46.9281 65.1147 46.8582 65.1147 46.7767C65.1147 46.6952 68.707 46.6253 73.1418 46.6253C77.5766 46.6195 81.1689 46.6894 81.1689 46.7767Z" fill="#263238"/>
</svg>
