<svg width="51" height="49" viewBox="0 0 51 49" fill="none" xmlns="http://www.w3.org/2000/svg">
<path d="M0.840576 46.1582L5.97742 37.1462C3.70153 33.4726 2.39099 29.1529 2.39099 24.5246C2.39099 11.2104 13.238 0.41687 26.6184 0.41687C39.9988 0.41687 50.8458 11.2104 50.8458 24.5246C50.8458 37.8389 39.9988 48.6324 26.6184 48.6324C21.0311 48.6324 15.8884 46.7462 11.7929 43.585L11.7988 43.5966L0.840576 46.1582Z" fill="#FAFAFA"/>
<path d="M0.840576 46.1582C1.36128 46.0417 4.83071 45.25 11.8164 43.6606L11.9275 43.6374L11.8573 43.5442L11.8515 43.5326L11.7461 43.6374C13.1269 44.7027 14.7826 45.7507 16.7309 46.6297C18.6791 47.4913 20.9141 48.19 23.3772 48.516C24.6058 48.6732 25.8929 48.7721 27.2152 48.7081C27.8763 48.6732 28.5491 48.6557 29.2278 48.5975C29.9006 48.4985 30.5851 48.3937 31.2755 48.2889C34.0195 47.7475 36.8219 46.7112 39.443 45.0986C42.0582 43.486 44.4804 41.3029 46.4228 38.619C48.3593 35.9352 49.8279 32.7566 50.5182 29.3043C51.1969 25.852 51.1442 22.1552 50.2316 18.5748C49.313 15.0061 47.5988 11.5247 45.0362 8.66043L44.0474 7.57759C43.7198 7.21082 43.3337 6.91391 42.9826 6.57625C42.614 6.26188 42.2805 5.90093 41.8827 5.62149L40.7184 4.75405C40.344 4.45132 39.9286 4.20681 39.5132 3.9623C39.1037 3.71196 38.6941 3.46745 38.2846 3.21712C37.8516 3.00753 37.4245 2.80377 36.9974 2.59419C36.5645 2.39625 36.1491 2.16338 35.6986 2.01784C32.1765 0.626448 28.4263 0.0966673 24.834 0.358645C21.2417 0.614801 17.8074 1.63943 14.8645 3.2928C11.91 4.9287 9.41759 7.11767 7.49273 9.55698C5.56203 12.0021 4.20468 14.6917 3.36219 17.3756C2.52555 20.071 2.29739 22.7432 2.30909 25.2174C2.3793 27.6975 2.83564 29.9854 3.49676 31.9881C4.15788 33.9966 5.02962 35.7256 5.92477 37.1752V37.1054C2.67767 42.8922 1.09215 45.7157 0.840576 46.1582C1.098 45.7157 2.71862 42.9155 6.04177 37.1811L6.06518 37.1461L6.04177 37.1112C5.15833 35.6616 4.30414 33.9384 3.65472 31.9415C3.01116 29.9447 2.56651 27.68 2.50801 25.2174C2.50801 22.7607 2.74202 20.1176 3.57866 17.4512C4.42115 14.7965 5.77264 12.136 7.6858 9.71998C9.5931 7.30979 12.0621 5.14993 14.9874 3.53731C17.901 1.90723 21.3002 0.900066 24.8457 0.649731C28.3912 0.399397 32.1005 0.923354 35.5757 2.29728C36.0204 2.437 36.4299 2.66987 36.857 2.86781C37.2783 3.07157 37.7054 3.27533 38.1266 3.48491C38.5303 3.72943 38.934 3.97394 39.3435 4.21845C39.7531 4.46297 40.1626 4.70165 40.5312 5.00438L41.6779 5.86018C42.0699 6.1338 42.3976 6.48892 42.7603 6.8033C43.1055 7.13513 43.4916 7.43205 43.8134 7.79299L44.7905 8.86419C47.3238 11.6935 49.0146 15.1342 49.9215 18.6563C50.8224 22.1901 50.881 25.8462 50.214 29.2577C49.5353 32.6692 48.0902 35.8188 46.1771 38.4677C44.2639 41.1282 41.871 43.2939 39.285 44.889C36.699 46.4958 33.9259 47.5263 31.2112 48.0677C30.5266 48.1725 29.848 48.2773 29.1868 48.3763C28.514 48.4345 27.847 48.4519 27.1976 48.4927C25.8871 48.5625 24.6117 48.4636 23.3947 48.3122C20.9492 47.9978 18.7318 47.3109 16.7952 46.4667C14.8587 45.6051 13.2088 44.5747 11.828 43.5268L11.3776 43.1833L11.7227 43.6315L11.7286 43.6432L11.7695 43.5268C4.819 45.1976 1.36128 46.0359 0.840576 46.1582Z" fill="#263238"/>
</svg>
