<svg width="202" height="41" viewBox="0 0 202 41" fill="none" xmlns="http://www.w3.org/2000/svg">
<path d="M7.62089 0.168945H45.6886C48.9229 0.168945 51.685 2.50079 52.2277 5.68944L55.5162 25.0166C56.2054 29.0621 53.0851 32.7605 48.9772 32.7605H48.7818L52.5913 38.3027L42.9428 32.7605H10.9094C7.67515 32.7605 4.90757 30.4286 4.37033 27.24L1.0818 7.91283C0.39262 3.86193 3.51294 0.168945 7.62089 0.168945Z" fill="#8434DC"/>
<path d="M46.6651 6.92568C39.7462 7.28359 32.811 7.41917 25.8812 7.60354C22.4624 7.69573 19.0437 7.78792 15.6249 7.88011C12.1464 7.9723 8.57026 8.30852 5.09723 8.08076C4.74992 8.05906 4.76078 7.58728 5.09723 7.54932C8.46716 7.1426 11.9619 7.27817 15.3536 7.18598C18.8646 7.08837 22.3702 6.99076 25.8812 6.89315C32.8056 6.70335 39.7353 6.45931 46.6651 6.43762C46.9799 6.43762 46.9745 6.90941 46.6651 6.92568Z" fill="white"/>
<path d="M48.4181 11.8605C41.7542 12.1805 35.0903 12.3865 28.421 12.4679C25.1759 12.5058 21.9308 12.5167 18.6857 12.5004C15.2777 12.4787 11.8101 12.5818 8.41308 12.2835C8.02779 12.251 8.01693 11.687 8.41308 11.6707C11.7342 11.5351 15.0878 11.7358 18.4143 11.7575C21.7463 11.7792 25.0836 11.7683 28.4156 11.7249C35.0849 11.6436 41.7488 11.4375 48.4127 11.1122C48.9011 11.0905 48.9011 11.8388 48.4181 11.8605Z" fill="white"/>
<path d="M49.4767 16.3182C36.5396 17.3214 23.4995 17.4244 10.5353 16.9689C10.0631 16.9526 10.0577 16.2151 10.5353 16.2314C23.532 16.7086 36.4908 16.4646 49.4767 15.8464C49.7806 15.8355 49.7752 16.2965 49.4767 16.3182Z" fill="white"/>
<path d="M50.5127 21.1281C41.6185 21.909 32.5615 22.4079 23.6347 22.0879C23.2331 22.0717 23.2331 21.4697 23.6347 21.4643C32.6049 21.3179 41.5479 21.2637 50.5127 20.781C50.7352 20.7702 50.7298 21.1064 50.5127 21.1281Z" fill="white"/>
<path d="M176.704 20.7601C170.528 21.0259 164.347 21.1343 158.166 21.2807C155.122 21.3512 152.078 21.4217 149.033 21.4922C145.913 21.5627 142.744 21.8067 139.629 21.6495C139.374 21.6386 139.379 21.2807 139.629 21.2536C142.646 20.9608 145.734 21.0475 148.762 20.977C151.898 20.9011 155.03 20.8252 158.166 20.7547C164.342 20.6083 170.523 20.4239 176.704 20.4022C176.931 20.4022 176.931 20.7493 176.704 20.7601Z" fill="white"/>
<path d="M178.347 27.4621C172.411 27.7929 166.463 27.9664 160.515 27.9664C154.611 27.9664 148.539 28.0857 142.662 27.4295C142.38 27.397 142.363 26.9794 142.662 26.9794C148.609 26.9632 154.562 27.4241 160.515 27.4187C166.463 27.4133 172.411 27.2397 178.347 26.9089C178.7 26.8873 178.7 27.4404 178.347 27.4621Z" fill="white"/>
<path d="M200.374 32.9883C182.656 34.2735 164.819 34.4579 147.074 33.818C146.64 33.8017 146.64 33.1293 147.074 33.1456C164.857 33.7855 182.607 33.4981 200.374 32.5599C200.656 32.5436 200.651 32.9666 200.374 32.9883Z" fill="white"/>
<path d="M201.796 39.599C189.607 40.6022 177.235 41.2475 165.003 40.8517C164.64 40.8408 164.634 40.2877 165.003 40.2823C177.289 40.125 189.526 40.0165 201.796 39.2845C201.996 39.2736 201.996 39.5827 201.796 39.599Z" fill="white"/>
<path d="M198.534 18.059C198.903 20.6077 199.446 23.2378 199.62 25.8083C199.723 27.3484 198.99 28.0913 197.492 28.3408C194.909 28.78 192.223 28.8668 189.613 29.1C188.05 29.241 185.201 29.8809 183.91 28.5902C183.28 27.9612 183.437 27.0013 183.481 26.1987C183.541 25.0545 183.671 23.9157 183.671 22.7715C183.671 21.3344 183.253 20.1576 182.933 18.7911C182.786 18.1674 182.754 17.5438 183.177 17.0069C184.197 15.7163 186.753 16.1881 188.159 16.1935C191.018 16.2044 193.878 16.2803 196.733 16.3345C197.623 16.3508 197.585 17.7933 196.733 17.6902C193.026 17.2564 189.211 16.9853 185.478 17.1642C184.658 17.2022 183.817 17.1534 183.834 18.5416C183.839 18.8616 184.078 19.252 184.165 19.5557C184.382 20.2878 184.485 21.0416 184.517 21.8062C184.555 22.6196 184.496 23.4331 184.425 24.2411C184.355 25.0816 184.078 26.1011 184.192 26.9363C184.393 28.4221 185.586 28.5848 186.851 28.5469C187.773 28.5197 188.69 28.4059 189.613 28.3299C191.491 28.1727 193.368 28.0317 195.246 27.8798C196.011 27.8202 197.471 27.9829 198.149 27.5924C198.648 27.305 199.066 26.3506 199.099 25.8083C199.131 25.2769 198.914 24.4743 198.838 23.9266C198.578 22.0177 198.252 20.1197 197.975 18.2163C197.921 17.8475 198.48 17.6902 198.534 18.059Z" fill="white"/>
<path d="M193.119 24.1055C192.885 22.8582 192.777 21.5893 192.63 20.3312C192.695 20.445 192.761 20.5589 192.826 20.6782C192.598 20.5264 190.389 23.1836 190.14 23.4656C190.074 23.2161 190.009 22.9667 189.944 22.7172C190.905 23.1077 191.871 23.4819 192.826 23.8831C193.357 24.1055 193.135 24.9894 192.581 24.7671C191.616 24.3821 190.666 23.9753 189.705 23.5795C189.391 23.4493 189.266 23.1023 189.51 22.8311C190.123 22.1424 190.742 21.47 191.398 20.8246C191.767 20.4613 192.326 19.7075 192.945 19.8377C193.547 19.9678 193.461 20.624 193.509 21.1012C193.607 22.0719 193.721 23.048 193.754 24.0241C193.754 24.3712 193.184 24.4634 193.119 24.1055Z" fill="white"/>
</svg>
