<svg width="18" height="18" viewBox="0 0 18 18" fill="none" xmlns="http://www.w3.org/2000/svg">
<circle cx="9" cy="9" r="9" fill="white"/>
<path d="M9.00008 9.41659C8.87323 9.4151 8.74896 9.45252 8.64402 9.52379C8.53907 9.59507 8.45848 9.69679 8.41309 9.81525C8.3677 9.93372 8.35969 10.0632 8.39014 10.1864C8.4206 10.3096 8.48805 10.4204 8.58341 10.5041V11.0833C8.58341 11.1938 8.62731 11.2997 8.70545 11.3779C8.78359 11.456 8.88957 11.4999 9.00008 11.4999C9.11059 11.4999 9.21657 11.456 9.29471 11.3779C9.37285 11.2997 9.41675 11.1938 9.41675 11.0833V10.5041C9.51212 10.4204 9.57957 10.3096 9.61002 10.1864C9.64047 10.0632 9.63246 9.93372 9.58708 9.81525C9.54169 9.69679 9.46109 9.59507 9.35615 9.52379C9.2512 9.45252 9.12694 9.4151 9.00008 9.41659ZM11.0834 7.74992V6.91659C11.0834 6.36405 10.8639 5.83415 10.4732 5.44345C10.0825 5.05275 9.55262 4.83325 9.00008 4.83325C8.44755 4.83325 7.91764 5.05275 7.52694 5.44345C7.13624 5.83415 6.91675 6.36405 6.91675 6.91659V7.74992C6.58523 7.74992 6.26729 7.88161 6.03286 8.11604C5.79844 8.35046 5.66675 8.6684 5.66675 8.99992V11.9166C5.66675 12.2481 5.79844 12.566 6.03286 12.8005C6.26729 13.0349 6.58523 13.1666 6.91675 13.1666H11.0834C11.4149 13.1666 11.7329 13.0349 11.9673 12.8005C12.2017 12.566 12.3334 12.2481 12.3334 11.9166V8.99992C12.3334 8.6684 12.2017 8.35046 11.9673 8.11604C11.7329 7.88161 11.4149 7.74992 11.0834 7.74992ZM7.75008 6.91659C7.75008 6.58506 7.88178 6.26712 8.1162 6.0327C8.35062 5.79828 8.66856 5.66659 9.00008 5.66659C9.3316 5.66659 9.64954 5.79828 9.88397 6.0327C10.1184 6.26712 10.2501 6.58506 10.2501 6.91659V7.74992H7.75008V6.91659ZM11.5001 11.9166C11.5001 12.0271 11.4562 12.1331 11.378 12.2112C11.2999 12.2894 11.1939 12.3333 11.0834 12.3333H6.91675C6.80624 12.3333 6.70026 12.2894 6.62212 12.2112C6.54398 12.1331 6.50008 12.0271 6.50008 11.9166V8.99992C6.50008 8.88941 6.54398 8.78343 6.62212 8.70529C6.70026 8.62715 6.80624 8.58325 6.91675 8.58325H11.0834C11.1939 8.58325 11.2999 8.62715 11.378 8.70529C11.4562 8.78343 11.5001 8.88941 11.5001 8.99992V11.9166Z" fill="#954AE9"/>
</svg>
