<svg width="33" height="48" viewBox="0 0 33 48" fill="none" xmlns="http://www.w3.org/2000/svg">
<path d="M23.7956 4.07039C19.2263 1.15953 12.8901 1.10131 8.44359 4.19847C4.21944 7.13844 2.07811 12.4828 2.26533 17.6059C2.45255 22.729 4.94492 28.9874 9.61371 31.6828L23.3042 31.6304C27.6746 28.4285 30.635 23.2763 30.8398 17.8795C31.0387 12.477 28.365 6.98125 23.7956 4.07039Z" fill="#455A64"/>
<path d="M17.0499 32.1719C17.0207 32.1719 16.9914 31.7528 16.9622 31.0018C16.9388 30.1634 16.9095 29.0922 16.8686 27.8056C16.7984 25.1102 16.6931 21.3843 16.5117 17.2683C16.3303 13.1524 16.108 9.43228 15.9383 6.74264C15.8623 5.46186 15.7979 4.39065 15.7452 3.55233C15.7043 2.7955 15.6984 2.38216 15.7277 2.37634C15.7569 2.37634 15.8213 2.78968 15.9149 3.53486C16.0085 4.28586 16.1197 5.37453 16.2426 6.71935C16.4883 9.40898 16.7633 13.1349 16.9446 17.2508C17.126 21.3668 17.1845 25.0985 17.1728 27.7998C17.167 29.1505 17.1494 30.2449 17.126 30.9959C17.1084 31.7528 17.0792 32.1719 17.0499 32.1719Z" fill="#263238"/>
<path d="M3.6406 16.4415C3.6289 16.5638 2.88587 16.5987 1.97903 16.523C1.07218 16.4473 0.340854 16.2901 0.352555 16.1737C0.364257 16.0514 1.10728 16.0165 2.01413 16.0922C2.92098 16.1621 3.6523 16.3192 3.6406 16.4415Z" fill="#263238"/>
<path d="M3.8975 11.8422C3.8507 11.9529 3.20713 11.7724 2.4641 11.4464C1.72107 11.1204 1.15941 10.7652 1.20622 10.6546C1.25302 10.544 1.89659 10.7187 2.63962 11.0505C3.38265 11.3765 3.94431 11.7316 3.8975 11.8422Z" fill="#263238"/>
<path d="M6.27316 8.43089C6.2088 8.52986 5.48917 8.1922 4.74029 7.57509C3.99141 6.95799 3.51751 6.31759 3.60527 6.23608C3.69303 6.15458 4.2898 6.64361 5.01527 7.23742C5.74075 7.83706 6.33752 8.3261 6.27316 8.43089Z" fill="#263238"/>
<path d="M8.66583 5.2114C8.55467 5.25797 8.20949 4.72238 7.89355 4.01213C7.57762 3.30188 7.40795 2.68477 7.51911 2.6382C7.63027 2.59162 7.97546 3.12722 8.29139 3.83747C8.60733 4.54771 8.77114 5.16482 8.66583 5.2114Z" fill="#263238"/>
<path d="M12.4164 2.92933C12.311 2.98172 11.9366 2.40537 11.6909 1.61362C11.4393 0.821866 11.4217 0.14074 11.5388 0.117454C11.6616 0.0941669 11.8664 0.717087 12.1063 1.47973C12.3403 2.24819 12.5275 2.87693 12.4164 2.92933Z" fill="#263238"/>
<path d="M18.6706 0.350359C18.7818 0.391111 18.7174 0.880134 18.5127 1.43902C18.3137 2.00373 18.0563 2.4229 17.9451 2.38797C17.834 2.34721 17.8983 1.85819 18.1031 1.2993C18.302 0.734596 18.5595 0.309606 18.6706 0.350359Z" fill="#263238"/>
<path d="M23.3161 2.33526C23.398 2.42259 23.0996 2.83011 22.6491 3.24345C22.1986 3.6568 21.7715 3.91878 21.6896 3.83145C21.6077 3.74413 21.9061 3.33659 22.3566 2.92325C22.8012 2.5099 23.2342 2.24794 23.3161 2.33526Z" fill="#263238"/>
<path d="M27.3999 4.96125C27.4701 5.06022 27.1074 5.42117 26.5867 5.77047C26.0718 6.11976 25.5979 6.31769 25.5277 6.21873C25.4575 6.11976 25.8203 5.75883 26.341 5.40953C26.8617 5.06023 27.3356 4.86228 27.3999 4.96125Z" fill="#263238"/>
<path d="M30.3013 8.87328C30.3481 8.98389 29.7747 9.33321 29.0258 9.6534C28.2711 9.97359 27.6217 10.1424 27.5749 10.0318C27.5281 9.92119 28.1014 9.57189 28.8562 9.2517C29.605 8.93733 30.2545 8.76267 30.3013 8.87328Z" fill="#263238"/>
<path d="M31.4481 13.1463C31.4656 13.2628 30.8806 13.4374 30.1492 13.5248C29.4179 13.6179 28.8094 13.5888 28.7977 13.4724C28.7802 13.3559 29.3653 13.1812 30.0966 13.0939C30.8279 13.0008 31.4305 13.0241 31.4481 13.1463Z" fill="#263238"/>
<path d="M32.039 18.4035C31.9922 18.5141 31.372 18.3511 30.6524 18.0426C29.9328 17.734 29.3945 17.3905 29.4413 17.2799C29.4881 17.1693 30.1083 17.3323 30.8279 17.6409C31.5475 17.9494 32.0916 18.2929 32.039 18.4035Z" fill="#263238"/>
<path d="M31.5185 22.9153C31.4776 23.0259 30.6936 22.8396 29.8745 22.304C29.0496 21.7743 28.564 21.1339 28.6517 21.0524C28.7395 20.965 29.3362 21.4366 30.1144 21.9373C30.8867 22.4438 31.5595 22.7989 31.5185 22.9153Z" fill="#263238"/>
<path d="M29.1547 27.0194C29.0845 27.1126 28.4585 26.7458 27.8617 26.1054C27.2591 25.4651 26.9432 24.8188 27.0368 24.7548C27.1363 24.6849 27.6043 25.1973 28.1777 25.8144C28.7569 26.4256 29.2366 26.9263 29.1547 27.0194Z" fill="#263238"/>
<path d="M6.74714 27.5032C6.80565 27.608 6.14453 28.0562 5.28449 28.5045C4.4186 28.9528 3.67557 29.2264 3.61707 29.1216C3.55856 29.0168 4.21968 28.5685 5.07972 28.1203C5.94561 27.672 6.68864 27.3984 6.74714 27.5032Z" fill="#263238"/>
<path d="M4.69912 23.7884C4.75177 23.899 4.22522 24.2424 3.52314 24.5568C2.82692 24.8712 2.21845 25.04 2.1658 24.9294C2.11314 24.8188 2.6397 24.4753 3.34177 24.1609C4.04385 23.8466 4.64646 23.6777 4.69912 23.7884Z" fill="#263238"/>
<path d="M3.19563 20.4995C3.21319 20.616 2.56377 20.8081 1.75053 20.9245C0.937293 21.041 0.258622 21.0351 0.24107 20.9187C0.223518 20.8023 0.872938 20.6102 1.68617 20.4937C2.49941 20.3773 3.17808 20.3773 3.19563 20.4995Z" fill="#263238"/>
<path d="M8.12788 18.6833C8.16298 18.7939 7.53112 19.0908 6.68863 19.1839C5.84614 19.2829 5.16747 19.1315 5.17332 19.0151C5.17917 18.8929 5.84029 18.8405 6.63597 18.7473C7.43751 18.6658 8.09277 18.5668 8.12788 18.6833Z" fill="#263238"/>
<path d="M12.229 14.6252C12.2641 14.7358 11.7609 14.992 11.0822 15.056C10.4036 15.1259 9.86532 14.9745 9.87702 14.8581C9.88872 14.7358 10.4094 14.6892 11.0413 14.6252C11.6732 14.5612 12.1939 14.5088 12.229 14.6252Z" fill="#263238"/>
<path d="M13.0132 11.3708C12.9722 11.4873 12.4281 11.4 11.7962 11.1845C11.1644 10.9691 10.6846 10.7013 10.7256 10.5849C10.7665 10.4743 11.3106 10.5558 11.9425 10.7712C12.5744 10.9924 13.0541 11.2602 13.0132 11.3708Z" fill="#263238"/>
<path d="M14.5165 8.08171C14.4346 8.16321 14.0602 7.9187 13.791 7.45878C13.5219 6.99887 13.4985 6.55642 13.6097 6.52149C13.7267 6.48656 13.9315 6.83003 14.1655 7.23755C14.4054 7.65672 14.6043 8.0002 14.5165 8.08171Z" fill="#263238"/>
<path d="M12.7032 21.5475C12.7325 21.6639 12.2586 21.8793 11.6501 22.0248C11.2991 22.1122 10.9773 22.1529 10.7667 22.1529L10.6789 21.8968C10.8369 21.8676 10.9363 21.8735 10.9597 21.92C10.9773 21.9666 10.9188 22.0481 10.7901 22.1413L10.7023 21.8851C10.8895 21.7861 11.1937 21.6813 11.5448 21.594C12.1591 21.4601 12.674 21.431 12.7032 21.5475Z" fill="#263238"/>
<path d="M13.551 27.3165C13.5978 27.4271 12.9952 27.7706 12.2112 28.0733C11.4273 28.3819 10.7544 28.5391 10.7076 28.4284C10.6608 28.3178 11.2634 27.9802 12.0474 27.6716C12.8314 27.3631 13.5042 27.2059 13.551 27.3165Z" fill="#263238"/>
<path d="M8.9177 24.7553C8.95866 24.8717 8.55496 25.1104 8.02255 25.2851C7.49015 25.4655 7.02795 25.5179 6.98699 25.4073C6.94604 25.2909 7.34973 25.058 7.88214 24.8775C8.41455 24.6971 8.87675 24.6388 8.9177 24.7553Z" fill="#263238"/>
<path d="M9.26852 13.0186C9.23927 13.135 8.54305 13.0651 7.73566 12.7799C6.92828 12.4946 6.34321 12.1162 6.39587 12.0056C6.44852 11.895 7.09794 12.0929 7.88193 12.3665C8.66591 12.646 9.29778 12.8963 9.26852 13.0186Z" fill="#263238"/>
<path d="M20.4787 11.7433C20.543 11.8423 20.151 12.2207 19.6011 12.5817C19.0511 12.9426 18.548 13.1522 18.4836 13.0532C18.4192 12.9543 18.8112 12.5758 19.3612 12.2149C19.9111 11.854 20.4143 11.6385 20.4787 11.7433Z" fill="#263238"/>
<path d="M21.0929 17.5306C21.1163 17.647 20.7068 17.8333 20.1685 17.9439C19.6361 18.0545 19.1856 18.0487 19.1564 17.9322C19.1329 17.8158 19.5425 17.6295 20.0808 17.5189C20.6132 17.4083 21.0637 17.4141 21.0929 17.5306Z" fill="#263238"/>
<path d="M21.8003 24.0449C21.7476 24.1555 21.1567 23.9867 20.4722 23.6723C19.7877 23.3579 19.2787 23.0144 19.3313 22.9038C19.384 22.7932 19.9749 22.9621 20.6594 23.2764C21.3381 23.5908 21.8471 23.9343 21.8003 24.0449Z" fill="#263238"/>
<path d="M20.2971 30.3787C20.2034 30.4544 19.8173 30.14 19.437 29.6801C19.0567 29.2144 18.8227 28.7777 18.9105 28.702C19.0041 28.6264 19.3902 28.9407 19.7705 29.4007C20.1566 29.8664 20.3907 30.303 20.2971 30.3787Z" fill="#263238"/>
<path d="M19.9931 7.47612C20.0692 7.56927 19.8118 7.88947 19.373 8.10487C18.9342 8.32609 18.5246 8.33773 18.4954 8.22129C18.4603 8.10486 18.782 7.91275 19.174 7.71481C19.5719 7.5227 19.9171 7.38297 19.9931 7.47612Z" fill="#263238"/>
<path d="M25.4864 13.3155C25.5273 13.4261 25.0183 13.7056 24.3221 13.7987C23.6259 13.8977 23.0642 13.7638 23.0701 13.6473C23.0759 13.5251 23.6142 13.4552 24.2636 13.3679C24.9072 13.2864 25.4454 13.2049 25.4864 13.3155Z" fill="#263238"/>
<path d="M24.3927 8.07587C24.4453 8.18066 23.9422 8.5416 23.2226 8.76864C22.5029 8.99568 21.8828 8.99568 21.8652 8.87925C21.8477 8.757 22.4035 8.57071 23.088 8.35531C23.7725 8.13409 24.34 7.96526 24.3927 8.07587Z" fill="#263238"/>
<path d="M26.6857 21.4366C26.6857 21.5531 25.8198 21.6287 24.7784 21.4424C23.737 21.2561 22.953 20.8835 22.994 20.7729C23.0349 20.6565 23.8482 20.837 24.8545 21.0116C25.8608 21.1979 26.6857 21.3144 26.6857 21.4366Z" fill="#263238"/>
<path d="M24.6441 29.0513C24.5739 29.1445 23.9362 28.7719 23.3043 28.1373C22.6666 27.5028 22.298 26.8682 22.3916 26.7983C22.4911 26.7226 23.0001 27.2175 23.6144 27.8288C24.2229 28.4459 24.7202 28.9582 24.6441 29.0513Z" fill="#263238"/>
<path d="M15.6692 1.87566C15.7335 1.96881 13.9257 2.69652 11.837 4.89131C9.74832 7.03371 7.5953 10.8178 7.06289 15.3879C6.81131 17.6584 7.02779 19.859 7.34957 21.8209C7.68891 23.7828 8.14526 25.5294 8.56065 26.9848C8.9819 28.4402 9.36804 29.6046 9.62546 30.408C9.88289 31.2172 10.0233 31.6655 9.99405 31.6771C9.9648 31.6888 9.77758 31.258 9.4675 30.4662C9.15741 29.6744 8.73032 28.5217 8.26812 27.0721C7.81177 25.6225 7.32617 23.876 6.95758 21.8908C6.60654 19.9114 6.37252 17.6758 6.62994 15.3413C7.17405 10.6665 9.42654 6.81249 11.6147 4.68174C12.7029 3.5989 13.7268 2.877 14.4756 2.45783C14.8384 2.23079 15.1485 2.10853 15.3532 2.00374C15.5521 1.91059 15.6633 1.86402 15.6692 1.87566Z" fill="#263238"/>
<path d="M21.631 31.9565C21.5374 31.9099 22.6139 30.2565 23.5968 27.2874C24.609 24.3475 25.4456 19.9986 24.7728 15.2772C24.4569 12.9194 23.7723 10.7363 22.9123 8.8733C22.0172 7.03364 20.8646 5.52581 19.7413 4.47208C18.577 3.44745 17.4303 2.85947 16.6287 2.51599C15.8214 2.17833 15.3358 2.10263 15.3416 2.0677C15.3416 2.05606 15.4645 2.06189 15.6985 2.09682C15.9267 2.13757 16.266 2.21325 16.6872 2.36462C17.5239 2.66735 18.7057 3.22042 19.9402 4.24504C21.1396 5.31042 22.3272 6.81242 23.275 8.70448C24.176 10.6024 24.884 12.8204 25.2058 15.219C25.8903 20.0336 24.9893 24.4464 23.8894 27.3922C23.6436 28.1432 23.3219 28.7894 23.0878 29.3658C22.807 29.9247 22.573 30.4137 22.3623 30.7979C21.9119 31.5547 21.6544 31.9681 21.631 31.9565Z" fill="#263238"/>
<path d="M4.69922 30.9259H28.7921L28.9384 35.723H4.69922V30.9259Z" fill="#FF6652"/>
<path d="M6.7467 33.3246L8.12745 47.972H25.7437L27.1595 33.4876L6.7467 33.3246Z" fill="#FF6652"/>
<path d="M28.9383 35.7816C28.9383 35.9038 23.5148 35.997 16.8217 35.997C10.1285 35.997 4.70502 35.898 4.70502 35.7816C4.70502 35.6651 10.1285 35.5662 16.8217 35.5662C23.5148 35.5662 28.9383 35.6593 28.9383 35.7816Z" fill="#263238"/>
<path d="M26.4929 40.2407C26.5163 40.2524 26.3525 40.59 25.9781 41.1547C25.5978 41.7136 25.001 42.5054 24.1117 43.3495L24.0006 43.4543L23.8894 43.3379C22.731 42.127 21.1338 40.6424 19.1679 39.2278L19.4371 39.2161C18.7642 39.8041 18.0622 40.4154 17.3425 41.0441C16.4884 41.7835 15.6576 42.5054 14.8677 43.1865L14.7332 43.303L14.5986 43.1865C13.1008 41.929 11.7318 40.788 10.5734 39.8216L10.8074 39.7983C9.97662 40.8055 9.28039 41.6554 8.72458 42.3249C8.22143 42.9187 7.93475 43.2331 7.90549 43.2156C7.88209 43.1982 8.12197 42.8372 8.57832 42.2143C9.09902 41.5215 9.76014 40.6424 10.5441 39.6003L10.6436 39.4665L10.7781 39.5771C11.9541 40.526 13.3407 41.6438 14.8619 42.8722L14.5869 42.878C15.3767 42.191 16.2017 41.4691 17.05 40.7239C17.7696 40.0952 18.4776 39.4897 19.1504 38.9018L19.2791 38.7911L19.4137 38.8901C21.397 40.3397 22.9825 41.8766 24.1117 43.1341L23.8894 43.1283C25.6855 41.5157 26.4227 40.1942 26.4929 40.2407Z" fill="#263238"/>
</svg>
