<svg width="20" height="20" viewBox="0 0 20 20" fill="none" xmlns="http://www.w3.org/2000/svg">
<g clip-path="url(#clip0_59_11562)">
<path d="M6.46338 9.3847L18.771 0.154016C19.0017 -0.0213665 19.3156 -0.0490586 19.5756 0.0817094C19.8371 0.212477 20.0017 0.478629 20.0017 0.769395V19.2308C20.0017 19.5215 19.8371 19.7877 19.5771 19.9184C19.4679 19.9723 19.3494 20 19.2325 20C19.0694 20 18.9063 19.9477 18.771 19.8461L6.46338 10.6155C6.26953 10.4708 6.15569 10.2416 6.15569 10.0001C6.15569 9.75854 6.26953 9.52931 6.46338 9.3847Z" fill="white"/>
<path d="M0.771125 0.000244141H2.30957C2.73418 0.000244141 3.0788 0.344856 3.0788 0.769467V19.2308C3.0788 19.6554 2.73418 20.0001 2.30957 20.0001H0.771125C0.346514 20.0001 0.00190163 19.6554 0.00190163 19.2308V0.769467C0.00190163 0.344856 0.346514 0.000244141 0.771125 0.000244141Z" fill="white"/>
</g>
<defs>
<clipPath id="clip0_59_11562">
<rect width="20" height="20" fill="white" transform="matrix(-1 0 0 1 20 0)"/>
</clipPath>
</defs>
</svg>
