<svg width="50" height="50" viewBox="0 0 50 50" fill="none" xmlns="http://www.w3.org/2000/svg">
<g clip-path="url(#clip0_59_6185)">
<path d="M34.5229 11.5796L20.7717 31.5058L18.823 47.4468L39.1864 49.9992L42.5781 21.8306L34.5229 11.5796Z" fill="#9C4DF4"/>
<path d="M48.7147 1.25149C47.9435 0.480301 46.8819 0.0528595 45.7953 0.00520329C44.6126 -0.0466522 43.4004 0.35159 42.5005 1.25149L32.3357 11.4499L33.3431 12.4574L34.4071 13.5213L37.4256 10.4682C40.2897 12.3617 44.1594 12.021 46.6433 9.53714L48.7147 7.46575C50.4285 5.75188 50.4285 2.96526 48.7147 1.25149ZM46.6433 5.39427L44.5719 7.46565C43.2201 8.81751 41.2031 9.10354 39.5694 8.32395L44.5719 3.32288C45.1441 2.75071 46.0711 2.75071 46.6433 3.32288C47.2141 3.89368 47.2141 4.82346 46.6433 5.39427Z" fill="#516373"/>
<path d="M37.4255 10.468C40.2896 12.3616 44.1593 12.0208 46.6432 9.53696L48.7146 7.46558C50.4284 5.75181 50.4284 2.96519 48.7146 1.25142C47.9434 0.480225 46.8818 0.0527832 45.7952 0.00512695L33.343 12.4573L34.407 13.5212L37.4255 10.468ZM44.5719 3.3228C45.1441 2.75063 46.0711 2.75063 46.6433 3.3228C47.2141 3.8936 47.2141 4.82339 46.6433 5.39419L44.5719 7.46558C43.2201 8.81743 41.2031 9.10347 39.5694 8.32388L44.5719 3.3228Z" fill="#3E4D59"/>
<path d="M34.7642 11.0344H20.3351L0 31.2989L7.25059 38.5495L14.5011 45.8L34.7656 25.5213V11.0344H34.7642Z" fill="#FF6652"/>
<path d="M34.7658 25.5213V11.0344L7.25073 38.5495L14.5012 45.8L34.7658 25.5213Z" fill="#E64A36"/>
<path d="M27.1557 20.7713L26.0925 19.7082L25.0843 18.7L22.8034 20.9809C21.1739 20.2134 19.182 20.4618 17.8345 21.807C16.1301 23.5114 16.1215 26.2773 17.8072 27.9934C18.4486 28.6465 18.3709 29.5575 17.8345 30.0939C17.268 30.6604 16.322 30.6823 15.7365 30.0641C15.1938 29.4912 15.2018 28.5838 15.7631 28.0225L13.6889 25.9511C12.346 27.2974 12.0975 29.2888 12.8651 30.9191L10.5833 33.2009L11.5915 34.2091L12.6546 35.2723L14.9354 32.9916C16.8355 33.8892 18.7143 33.3569 19.9059 32.1653C21.4825 30.5887 21.7639 27.9149 19.8793 25.9213C19.3367 25.3471 19.3447 24.4412 19.9059 23.8798C20.466 23.3169 21.3768 23.3104 21.9484 23.8523C22.5533 24.4259 22.5527 25.3744 21.9773 25.9512L24.0487 28.0226C25.3952 26.6761 25.6444 24.6834 24.8751 23.0519L27.1557 20.7713Z" fill="white"/>
<path d="M21.9774 25.9511L24.0488 28.0225C25.3953 26.676 25.6445 24.6833 24.8753 23.0518L27.1558 20.7712L26.0926 19.708L21.9485 23.8521C22.5533 24.4258 22.5528 25.3742 21.9774 25.9511Z" fill="white"/>
<path d="M14.9355 32.9914C16.8356 33.889 18.7144 33.3567 19.906 32.1651C21.4826 30.5885 21.764 27.9147 19.8794 25.9211L17.8073 27.9933C18.4487 28.6465 18.371 29.5574 17.8346 30.0938C17.2681 30.6603 16.3221 30.6822 15.7366 30.064L11.5916 34.209L12.6547 35.2722L14.9355 32.9914Z" fill="white"/>
</g>
<defs>
<clipPath id="clip0_59_6185">
<rect width="50" height="50" fill="white"/>
</clipPath>
</defs>
</svg>
