<svg width="22" height="18" viewBox="0 0 22 18" fill="none" xmlns="http://www.w3.org/2000/svg">
<g clip-path="url(#clip0_59_8455)">
<path d="M6.9462 17.5273C15.1933 17.5273 19.7033 10.8122 19.7033 4.98913C19.7033 4.7984 19.6993 4.60853 19.6906 4.41952C20.5661 3.7975 21.327 3.02126 21.9271 2.13762C21.1238 2.48859 20.2592 2.72485 19.3523 2.83138C20.278 2.28582 20.9887 1.42282 21.324 0.39402C20.4577 0.898768 19.4983 1.26562 18.4769 1.46369C17.6587 0.607146 16.4939 0.0714111 15.2041 0.0714111C12.728 0.0714111 10.7202 2.0449 10.7202 4.4775C10.7202 4.8233 10.7595 5.15966 10.8364 5.4823C7.11 5.29801 3.80568 3.54449 1.59424 0.878146C1.20918 1.52937 0.98715 2.28585 0.98715 3.09301C0.98715 4.62187 1.77871 5.97155 2.9824 6.76113C2.2468 6.73879 1.55578 6.54032 0.951803 6.20998C0.951143 6.22847 0.951141 6.2465 0.951141 6.26626C0.951141 8.4004 2.49664 10.1822 4.54822 10.586C4.17146 10.687 3.77506 10.7411 3.36594 10.7411C3.07747 10.7411 2.79643 10.7132 2.52326 10.6616C3.09407 12.4125 4.74929 13.6867 6.71169 13.7223C5.17712 14.9045 3.24398 15.6085 1.14298 15.6085C0.781523 15.6085 0.424438 15.5883 0.0734863 15.5476C2.05781 16.7976 4.41402 17.527 6.94644 17.527" fill="#0A033C"/>
</g>
<defs>
<clipPath id="clip0_59_8455">
<rect width="22" height="17.6" fill="white"/>
</clipPath>
</defs>
</svg>
