<svg width="38" height="26" viewBox="0 0 38 26" fill="none" xmlns="http://www.w3.org/2000/svg">
<path d="M10.4437 14.4445V13.4559C10.5393 13.4125 10.6457 13.3655 10.747 13.3197L19 17.0154L38 8.50772L19 0L0 8.50772L8.63233 12.3725C8.58737 12.4945 8.55507 12.6226 8.55507 12.7619V13.5989L7.04773 12.9241V15.7841C7.04773 16.631 7.28017 17.3912 7.67917 18.0747V24.433C7.67917 26.5223 11.3208 26.5223 11.3208 24.433V20.9935C18.1938 23.978 30.9516 22.2465 30.9516 15.7835V12.9235L19 18.2752L10.4437 14.4445ZM10.6875 24.4336C10.6875 24.6546 10.5406 24.8534 10.3088 24.9933V17.1455L10.184 17.2284V25.0607L9.81033 25.1728V17.3714L9.68683 17.3931V25.1907H9.31317V17.3931L9.1884 17.3714V25.1734L8.816 25.0614V17.2284L8.69123 17.1455V24.9933C8.46007 24.8527 8.3125 24.6546 8.3125 24.4336V17.0154C8.3125 16.306 8.6849 15.7142 9.1884 15.5353C9.1884 14.6104 9.1884 13.6862 9.1884 12.7619C9.1884 12.5731 9.28467 12.4319 9.41703 12.3731C9.67923 12.2555 16.0126 9.4196 18.917 8.11834C18.9544 8.10224 18.9886 8.09419 19.0209 8.09419C19.3236 8.09419 19.4224 8.7442 19.083 8.89649C18.8208 9.01411 12.6394 11.7819 9.81033 13.0479V15.5353C10.3145 15.713 10.6875 16.3048 10.6875 17.0154V24.4336Z" fill="#9C4DF4"/>
</svg>
