<svg width="50" height="50" viewBox="0 0 50 50" fill="none" xmlns="http://www.w3.org/2000/svg">
<g clip-path="url(#clip0_59_7045)">
<path d="M25 50C38.8071 50 50 38.8071 50 25C50 11.1929 38.8071 0 25 0C11.1929 0 0 11.1929 0 25C0 38.8071 11.1929 50 25 50Z" fill="#FF6529"/>
<path d="M49.0906 31.7002L29.041 11.6506L12.5234 38.3499L24.1582 49.9846C24.4378 49.9939 24.7182 50.0002 25 50.0002C36.4861 50.0002 46.1618 42.2536 49.0906 31.7002Z" fill="#E53B07"/>
<path d="M29.041 11.6506H20.959L12.5234 38.3499H18.4639L20.4658 32.012H29.5342L31.5361 38.3499H37.4765L29.041 11.6506ZM22.2549 26.3479L25 17.6604L27.7451 26.3479H22.2549Z" fill="#F8FFFB"/>
<path d="M29.041 11.6506H25V17.6604L27.7451 26.3479H25V32.012H29.5342L31.5361 38.3499H37.4766L29.041 11.6506Z" fill="#D8D8D8"/>
</g>
<defs>
<clipPath id="clip0_59_7045">
<rect width="50" height="50" fill="white"/>
</clipPath>
</defs>
</svg>
