<svg width="50" height="50" viewBox="0 0 50 50" fill="none" xmlns="http://www.w3.org/2000/svg">
<g clip-path="url(#clip0_59_6985)">
<path d="M25 50C38.8071 50 50 38.8071 50 25C50 11.1929 38.8071 0 25 0C11.1929 0 0 11.1929 0 25C0 38.8071 11.1929 50 25 50Z" fill="#FFB54A"/>
<path d="M48.9232 32.2753L31.267 14.619C31.267 14.619 21.7557 14.0092 20.6558 19.7605C19.556 25.5119 18.9443 36.6061 18.9443 36.6061L31.4865 49.1483C39.8151 46.9167 46.4275 40.4923 48.9232 32.2753Z" fill="#F9880D"/>
<path d="M31.5404 24.5491C32.5263 23.2061 33.1103 21.5507 33.1103 19.7609C33.1103 15.2889 29.4721 11.6506 25.0001 11.6506C20.5281 11.6506 16.8899 15.2889 16.8899 19.7609C16.8899 21.5507 17.4739 23.2062 18.4598 24.5491C16.9421 26.036 15.998 28.1062 15.998 30.3937C15.998 34.8235 19.6019 38.4274 24.0317 38.4274H25.9687C30.3984 38.4274 34.0023 34.8236 34.0023 30.3937C34.0022 28.1062 33.0581 26.036 31.5404 24.5491ZM25.0001 17.3147C26.3488 17.3147 27.4462 18.4121 27.4462 19.7609C27.4462 21.1096 26.3489 22.207 25.0001 22.207C23.6513 22.207 22.554 21.1097 22.554 19.7609C22.554 18.4121 23.6514 17.3147 25.0001 17.3147ZM25.9686 32.7632H24.0316C22.725 32.7632 21.662 31.7002 21.662 30.3936C21.662 29.0026 22.7937 27.8709 24.1846 27.8709H25.8155C27.2064 27.8709 28.3381 29.0026 28.3381 30.3936C28.3382 31.7003 27.2752 32.7632 25.9686 32.7632Z" fill="#F8FFFB"/>
<path d="M31.54 24.5491C32.5264 23.2063 33.1104 21.551 33.1104 19.761C33.1104 15.2893 29.4717 11.6506 25 11.6506V17.3147C26.3486 17.3147 27.4463 18.4124 27.4463 19.761C27.4463 21.1096 26.3486 22.2073 25 22.2073V27.8713H25.8154C27.2061 27.8713 28.3379 29.0022 28.3379 30.3938C28.3379 31.7004 27.2754 32.7629 25.9688 32.7629H25V38.427H25.9688C30.3984 38.427 34.002 34.8235 34.002 30.3938C34.002 28.1057 33.0576 26.0364 31.54 24.5491Z" fill="#D8D8D8"/>
</g>
<defs>
<clipPath id="clip0_59_6985">
<rect width="50" height="50" fill="white"/>
</clipPath>
</defs>
</svg>
