<svg width="172" height="118" viewBox="0 0 172 118" fill="none" xmlns="http://www.w3.org/2000/svg">
<g clip-path="url(#clip0_59_11247)">
<path d="M5.77963 73.9082C9.92995 67.3096 15.6153 62.0524 21.5179 57.3206C26.4637 53.3521 31.9201 49.2661 33.9601 42.9346C35.0754 39.4827 35.0431 35.6668 36.2964 32.2735C37.9665 27.7502 43.1412 22.2699 47.5498 20.2945C54.2948 17.2711 62.4457 21.8561 69.449 19.499C72.3431 18.5245 73.1062 16.6664 75.0992 14.7144C77.233 12.6245 79.7984 10.8046 82.2639 9.1285C87.0981 5.84094 92.4518 3.19915 98.2164 2.05144C108.369 0.0290027 119.2 2.91736 127.58 9.22537C132.616 13.0178 136.781 17.9932 139.896 23.585C142.872 28.9331 144.187 34.8625 146.943 40.2635C152.109 50.3845 162.831 55.9939 167.903 66.1736C171.633 73.6675 171.786 82.8257 169.822 91.0886C167.859 99.3486 163.952 106.884 159.849 114.143C159.828 114.175 159.811 114.204 159.793 114.234H153.019C127.166 114.146 15.7797 113.799 13.1322 114.322H7.98395C4.22987 111.052 0.80455 102.02 0.120651 96.5659C-0.877304 88.6288 1.63226 80.5068 5.77963 73.9082Z" fill="#EDDCFF"/>
<path d="M59.8248 65.642C60.764 67.1155 63.2178 68.8327 64.9584 68.8092C70.8874 68.7006 72.8393 64.6616 73.4791 63.191C73.3588 63.1616 73.1563 63.1381 73.0124 63.1205C71.9206 62.962 70.8052 61.8818 70.4794 60.6637C70.0597 59.0786 69.5431 55.9789 69.6047 54.0093L62.1054 58.1598C62.1172 58.7293 62.1553 59.3516 62.2081 59.9797C62.2463 60.3613 62.2845 60.737 62.3285 61.101C62.3696 61.4503 62.4165 61.782 62.4606 62.0873C62.5985 63.1147 62.1406 64.1332 61.2748 64.6997L59.8248 65.642Z" fill="#FE8E68"/>
<path d="M59.1785 49.5007C59.5836 50.5633 59.4133 51.7697 59.0024 52.8294C58.7118 53.5779 58.0661 52.9174 57.2619 52.9321C56.0174 52.9527 55.0458 51.6582 54.2944 48.2268C53.816 45.7083 53.6956 44.4314 53.7925 44.1878C54.1359 43.316 55.2689 42.8493 56.2023 42.7671" fill="#3D302A"/>
<path d="M57.2856 41.9539C55.3249 44.3169 54.6117 50.9654 56.2671 55.5973C57.4441 58.8907 58.8119 61.0159 60.4086 60.9484C62.833 60.8457 67.5322 58.8526 69.0614 57.1883C71.8175 54.1913 71.0162 48.3148 70.4468 44.6163C69.9302 41.2553 68.357 36.8905 64.1333 37.7212C61.3567 38.2613 59.0438 39.8317 57.2856 41.9539Z" fill="#FE8E68"/>
<path d="M68.4218 44.0788C67.9874 44.5984 67.2214 44.7128 66.5903 44.8156C65.742 44.9535 65.3223 45.2412 64.882 46.0132C64.6032 46.5063 64.3244 47.0464 63.8254 47.3135C63.5906 47.4397 63.2325 47.4574 63.118 47.2167C63.3411 47.067 63.4174 46.7617 63.3616 46.4975C63.3059 46.2363 63.1444 46.0102 62.9742 45.8018C62.8304 45.9956 62.8157 46.2539 62.7364 46.4858C62.6308 46.791 62.4048 47.0493 62.1171 47.1932C62.0702 47.2167 62.0203 47.2372 61.9704 47.2284C61.9029 47.2196 61.85 47.1609 61.806 47.1081C61.4978 46.7382 61.1955 46.0337 60.767 45.8077C60.6818 46.2098 60.5263 46.5298 60.2797 46.8615C60.0625 47.1521 59.8042 47.4515 59.4491 47.519C59.3346 47.5425 59.1908 47.5249 59.138 47.4221C59.0704 47.2959 59.1761 47.1697 59.1585 47.0405C59.1438 46.9202 59.0881 46.8674 59.0264 46.7646C58.8679 46.5034 58.727 46.2509 58.5186 46.022C58.0989 46.5004 57.641 46.9407 57.1508 47.3458C57.0422 47.4339 56.8837 47.5219 56.7751 47.4339C56.7164 47.3869 56.7018 47.3077 56.69 47.2313C56.6284 46.8586 56.5697 46.4858 56.508 46.113C56.4728 45.9046 56.3525 45.6316 56.147 45.6844C56.0472 45.7108 55.9885 45.8077 55.9328 45.8958C55.8653 46.0073 54.6589 47.2783 54.6354 47.1814C54.4476 46.4593 54.0631 45.8018 53.8752 45.0797C52.6689 40.4302 58.0578 36.6935 62.1758 36.673C63.0916 36.6671 63.9487 36.8608 64.838 37.0575C65.7861 37.2689 66.7664 37.4244 67.6264 37.897C68.8328 38.5575 69.7456 39.758 69.5108 41.1904" fill="#3D302A"/>
<path d="M66.4375 42.8493C65.8388 43.5274 65.6803 44.4814 65.6245 45.3825C65.5423 46.7416 65.6539 48.1535 66.282 49.3599C66.461 49.7033 66.5931 51.4029 66.869 51.3089C66.9571 51.2796 66.9424 49.9616 67.1743 49.2513C67.5324 48.1505 69.1819 47.7308 69.9245 48.4264C71.1103 49.5331 70.4147 50.8774 70.0214 51.714C69.7866 52.2189 69.4138 52.7854 69.3492 53.3196C69.27 54.0036 69.2465 56.4957 69.6926 57.0769C70.0654 57.5641 70.4616 55.21 70.7992 54.7462C73.297 51.2913 75.6921 42.4942 71.4273 40.5862C70.7786 40.2956 68.7769 40.1459 68.1693 40.5157" fill="#3D302A"/>
<path d="M50.6462 112.78C50.3997 112.821 50.1502 112.856 49.8919 112.865C48.5182 112.909 47.1915 112.607 45.8502 112.378C44.6702 112.175 44.3503 112.064 44.3738 110.64C44.5792 99.3656 46.2376 88.1204 49.2197 77.245C49.6747 75.5836 50.1707 73.9105 51.0425 72.4252C52.5306 69.892 55.9471 67.7052 58.5682 66.4782C58.938 66.3051 60.4702 67.2796 60.8429 67.1123C61.1687 66.9655 61.4564 66.7366 61.7851 66.5927C62.7478 66.173 63.3936 67.0506 64.1978 67.4175C64.6146 67.6054 65.0784 67.7258 65.5362 67.7052C65.909 67.6905 66.2465 67.4645 66.587 67.6406C68.1192 68.4332 71.9231 62.5508 71.9231 62.5508L73.5698 64.2738L78.3922 69.3255L90.444 85.9306C90.444 85.9306 92.6306 99.5388 94.1334 108.459C94.3947 109.997 95.4278 113.323 95.6333 114.488C95.5893 114.236 85.3456 114.168 84.7938 114.168C77.6731 114.168 71.0397 114.168 63.916 114.168C62.7449 114.168 59.5955 114.665 58.7736 113.804C57.761 112.748 56.5899 107.899 56.5283 106.54C56.3257 101.969 56.6398 97.4342 56.7014 92.8375C56.675 94.7073 56.1379 96.398 55.9089 98.2296C55.6125 100.587 55.1898 102.941 54.8083 105.286C54.503 107.171 54.2095 109.061 53.9747 110.957C53.869 111.811 54.004 112.319 53.282 112.654C52.6803 112.924 51.3565 112.66 50.6462 112.78Z" fill="#BC744A"/>
<path d="M54.5154 108.876C55.0731 108.647 58.516 107.793 60.0687 107.47C60.8818 107.303 64.5683 106.346 65.4225 106.346C66.2766 106.346 67.4389 107.567 67.4389 107.567L67.1307 111.767C66.3089 111.685 65.2082 112.111 64.6182 112.193C64.0283 112.275 62.0235 112.287 60.7908 111.668C60.7203 111.632 60.6558 111.594 60.5912 111.556C60.0951 111.996 59.4729 112.425 58.7831 112.46C58.7831 112.46 58.2431 112.404 58.2959 112.187C58.3194 112.082 58.6775 111.536 59.0356 111.001C58.5072 111.539 57.6443 112.41 56.6493 112.46C56.6493 112.46 56.1092 112.404 56.162 112.187C56.1914 112.058 56.708 111.286 57.1248 110.673C57.1189 110.678 57.1101 110.681 57.1072 110.687C56.6698 111.072 55.6308 112.399 54.401 112.46C54.401 112.46 53.8609 112.404 53.9137 112.187C53.9313 112.108 54.1368 111.782 54.3863 111.403C54.0722 111.644 53.6877 111.9 53.221 112.131C51.8914 112.789 51.1341 112.29 51.1341 112.131C51.1312 111.97 53.9577 109.105 54.5154 108.876Z" fill="#FE8E68"/>
<path d="M66.4879 103.997C66.4879 103.997 64.3452 105.213 64.536 107.796C64.7268 110.379 65.5017 113.373 68.7362 113.059C71.9707 112.745 66.4879 103.997 66.4879 103.997Z" fill="#874C2E"/>
<path d="M69.4312 112.804C77.1858 115.495 87.5616 112.924 94.1393 108.454C98.2602 105.659 100.89 102.11 100.447 98.6438C99.2993 89.6382 92.2226 68.997 86.0999 65.9854C81.9379 63.9365 76.8894 63.0882 74.0746 62.7477C72.7538 62.5863 71.929 62.5481 71.929 62.5481L72.9504 65.4306L78.0634 79.8489C78.2542 88.4054 84.377 93.4864 83.1589 95.4795C81.9408 97.4667 72.3223 99.6124 67.2709 103.014C65.8738 103.96 64.1009 110.796 69.4312 112.804Z" fill="#BC744A"/>
<path d="M100.447 98.8662L100.465 99.4679C100.465 99.5677 100.479 99.6676 100.465 99.7674L100.43 100.064C100.4 100.26 100.4 100.463 100.35 100.654L100.209 101.232C99.9746 101.989 99.6488 102.72 99.2027 103.378C98.3515 104.716 97.2244 105.867 95.9799 106.853C93.488 108.832 90.6174 110.311 87.6235 111.385C84.6355 112.486 81.5037 113.211 78.325 113.475C76.737 113.61 75.1374 113.628 73.5495 113.493C71.9586 113.37 70.3795 113.079 68.8474 112.601C70.3472 113.173 71.9322 113.511 73.526 113.707C75.1256 113.889 76.74 113.91 78.3484 113.813C79.9569 113.722 81.5566 113.481 83.1298 113.135C84.703 112.791 86.2557 112.345 87.7732 111.799C89.2848 111.239 90.7641 110.584 92.1789 109.809C93.5907 109.031 94.9585 108.157 96.1912 107.112C97.4269 106.075 98.5511 104.878 99.3817 103.486C99.8073 102.797 100.11 102.036 100.318 101.258C100.526 100.478 100.541 99.6587 100.447 98.8662Z" fill="#874C2E"/>
<path d="M78.0643 79.8489C78.0585 81.4721 78.2845 83.0983 78.7071 84.6716C79.1327 86.2449 79.755 87.7625 80.477 89.2243C80.8381 89.9552 81.2226 90.6714 81.6188 91.3788C82.0092 92.0892 82.4113 92.7936 82.74 93.5157C82.9015 93.8768 83.0424 94.2496 83.0981 94.6165C83.1128 94.7955 83.1275 94.9805 83.0776 95.136C83.0658 95.2212 83.0159 95.2857 82.9866 95.3621C82.9308 95.4296 82.8927 95.5029 82.8222 95.5675C82.2968 96.0929 81.5454 96.4481 80.8322 96.7916C77.9029 98.1271 74.7917 99.1163 71.8272 100.449C70.3449 101.115 68.8773 101.834 67.5125 102.733L67.2601 102.903C67.1749 102.962 67.0957 103.038 67.0135 103.105C66.8609 103.255 66.7288 103.42 66.6231 103.599C66.4059 103.954 66.2592 104.341 66.1447 104.735C65.9275 105.524 65.8365 106.337 65.8306 107.15C65.8835 106.343 66.0185 105.536 66.2562 104.77C66.5087 104.01 66.899 103.27 67.6299 102.915C69.0006 102.063 70.4711 101.385 71.9622 100.76C73.4562 100.144 74.9678 99.5596 76.4852 98.9931C78.0027 98.4177 79.529 97.8688 81.02 97.1878C81.7538 96.8238 82.5082 96.4804 83.1334 95.8493C83.2126 95.773 83.2772 95.6673 83.3447 95.5763C83.3946 95.4648 83.4621 95.3591 83.4797 95.2417C83.5501 95.0069 83.5267 94.775 83.5061 94.5548C83.4357 94.1204 83.2772 93.7271 83.1069 93.3514C82.7577 92.5999 82.3497 91.8984 81.9534 91.191C81.5572 90.4836 81.158 89.782 80.7794 89.0687C79.2648 86.2244 78.217 83.0983 78.0643 79.8489Z" fill="#874C2E"/>
<path d="M57.9666 66.7569C58.7062 67.4907 61.9995 69.8361 65.1401 69.8361C65.6626 69.8361 66.2144 69.7891 66.7985 69.6805C69.4342 69.1991 71.6532 67.4408 72.9505 65.4272C73.1912 65.0485 73.4026 64.6581 73.5757 64.2677C73.8105 63.7629 73.9778 63.2463 74.0747 62.7472C72.7539 62.5858 71.4918 62.2541 71.2863 62.0193C71.0632 63.5574 69.1642 66.3342 66.2877 66.8567C65.9267 66.9242 65.5862 66.9536 65.2604 66.9594H65.2546C63.9044 66.9829 62.8683 66.5514 62.1609 66.117C62.155 66.117 60.7843 65.0368 60.7785 65.0309L57.9666 66.7569Z" fill="#BC744A"/>
<path d="M62.4221 52.5243C62.1287 52.5243 61.8908 52.0538 61.8908 51.4735C61.8908 50.8931 62.1287 50.4226 62.4221 50.4226C62.7155 50.4226 62.9533 50.8931 62.9533 51.4735C62.9533 52.0538 62.7155 52.5243 62.4221 52.5243Z" fill="#56211A"/>
<path d="M62.1959 52.207C62.0679 52.207 61.964 52.0638 61.964 51.8871C61.964 51.7104 62.0679 51.5671 62.1959 51.5671C62.324 51.5671 62.4278 51.7104 62.4278 51.8871C62.4278 52.0638 62.324 52.207 62.1959 52.207Z" fill="white"/>
<path d="M56.6963 53.0048C56.4029 53.0048 56.165 52.5343 56.165 51.9539C56.165 51.3736 56.4029 50.9031 56.6963 50.9031C56.9897 50.9031 57.2275 51.3736 57.2275 51.9539C57.2275 52.5343 56.9897 53.0048 56.6963 53.0048Z" fill="#56211A"/>
<path d="M58.5183 56.4692C58.5242 56.6922 59.4517 58.0396 60.3528 57.9339C61.1101 57.8429 61.7705 56.4251 61.3742 55.7794C61.1629 55.5533 58.5124 56.2461 58.5183 56.4692Z" fill="white"/>
<path d="M64.0076 48.8923C63.3472 48.3111 61.7622 48.5371 61.0871 48.9686C60.9551 49.0538 60.8112 48.863 60.9228 48.7544C61.3777 48.2994 62.1409 48.273 62.7484 48.2964C63.2093 48.3141 63.9636 48.2935 64.1221 48.8307C64.1397 48.8923 64.0546 48.9334 64.0076 48.8923Z" fill="#3D302A"/>
<path d="M57.5645 49.2865C57.1623 49.2571 56.7866 49.1808 56.3845 49.2806C55.9824 49.3804 55.6859 49.627 55.3279 49.8149C55.2515 49.8559 55.1811 49.7767 55.2134 49.7004C55.5656 48.9225 56.9305 48.6378 57.6114 49.1045C57.6848 49.1573 57.6672 49.2924 57.5645 49.2865Z" fill="#3D302A"/>
<path d="M59.1817 51.4991C59.2081 52.1038 59.1846 52.7232 59.0849 53.322C59.0496 53.5362 58.7737 54.1116 58.8178 54.2936C58.8677 54.4932 59.2169 54.7427 59.3373 54.9423C59.3989 55.0421 59.2786 55.1448 59.1847 55.0949C58.8266 54.91 58.4157 54.6341 58.492 54.2026C58.5595 53.8004 58.7444 53.4159 58.806 53.002C58.8823 52.503 58.8853 52.0011 58.9322 51.4962C58.944 51.3406 59.1758 51.3348 59.1817 51.4991Z" fill="#CC6144"/>
<path d="M56.5339 52.7086C56.4059 52.7086 56.3021 52.5561 56.3021 52.3681C56.3021 52.18 56.4059 52.0276 56.5339 52.0276C56.662 52.0276 56.7658 52.18 56.7658 52.3681C56.7658 52.5561 56.662 52.7086 56.5339 52.7086Z" fill="white"/>
<path d="M65.5066 58.9989C64.6788 59.9705 63.2641 60.6222 61.9932 60.6603C61.867 60.6633 61.8347 60.4578 61.9638 60.4343C63.3111 60.1848 64.3061 59.721 65.3833 58.8727C65.4684 58.8023 65.5829 58.9109 65.5066 58.9989Z" fill="#CC6144"/>
<path d="M71.9322 62.0664C73.84 61.1624 74.8614 64.0302 75.0552 65.4362C75.425 68.1396 74.2275 70.6552 73.1356 73.0475C71.9909 75.5601 70.6818 77.9876 69.5107 80.4856C68.906 81.7801 68.3689 83.1039 67.9668 84.4747C67.5441 85.9071 67.4971 87.504 66.9776 88.8865C66.9072 89.0744 66.6636 89.0333 66.6401 88.8395C66.3877 86.8376 67.2741 84.3749 67.9638 82.5022C68.6242 80.7087 69.4784 78.9944 70.3296 77.2861C71.442 75.0582 72.5691 72.8068 73.4819 70.4879C73.9398 69.3255 74.3184 68.1103 74.4006 66.854C74.4652 65.8501 74.0983 61.767 72.1464 62.5743C71.8588 62.6975 71.6475 62.2015 71.9322 62.0664Z" fill="#874C2E"/>
<path d="M60.7841 65.1548C58.3831 66.0676 59.2226 70.456 59.5513 72.358C59.9505 74.674 60.6989 76.9195 61.6382 79.0711C63.4668 83.2657 65.9323 87.1579 68.1396 91.1558C68.3215 91.4846 67.8226 91.7781 67.6347 91.4523C64.8903 86.6355 61.7644 81.9624 59.9534 76.6847C59.114 74.2366 58.5768 71.6594 58.5387 69.0646C58.5152 67.3386 58.7676 65.2399 60.6373 64.6088C60.9807 64.4914 61.1157 65.0256 60.7841 65.1548Z" fill="#874C2E"/>
<path d="M63.9865 89.1155C65.8415 89.0598 67.6965 89.0069 69.5516 88.9512C69.8509 88.9423 70.0271 89.1918 70.0593 89.459C70.4086 92.2446 70.529 95.083 70.9487 97.8569C70.9986 98.1827 70.8195 98.4939 70.4585 98.4998C68.6299 98.5379 66.7984 98.5937 64.9698 98.6113C64.8729 98.6113 64.7937 98.5907 64.7262 98.5526C64.7232 98.5526 64.7203 98.5497 64.7174 98.5467C64.6997 98.5379 64.6821 98.5262 64.6645 98.5144C64.5794 98.4557 64.5119 98.3647 64.4796 98.2356C63.7722 95.4969 63.7722 92.4295 63.4787 89.6204C63.4494 89.3445 63.7341 89.1214 63.9865 89.1155Z" fill="#874C2E"/>
<path d="M56.625 100.414C56.5458 98.9021 56.6955 97.3728 56.7043 95.8581C56.716 94.2907 56.6691 92.7232 56.5839 91.1558C56.5018 89.6382 56.3814 88.1206 56.2082 86.6119C56.0292 85.0562 55.7034 83.5151 55.539 81.9594C55.5155 81.751 55.8501 81.7128 55.9 81.9095C56.264 83.339 56.4049 84.8624 56.5781 86.3272C56.7659 87.9298 56.9068 89.5413 56.9831 91.1558C57.0594 92.7203 57.0682 94.2907 57.033 95.8581C56.9978 97.3728 56.9978 98.9373 56.6867 100.423C56.6837 100.461 56.628 100.449 56.625 100.414Z" fill="#874C2E"/>
<path d="M72.0529 64.8877C71.5569 66.9219 69.2792 68.6479 67.2774 68.9473C67.1072 68.9737 67.0338 68.7388 67.2041 68.686C68.2372 68.3573 69.2117 67.9316 70.0453 67.2242C70.8524 66.5403 71.3455 65.6978 71.912 64.829C71.9619 64.7585 72.0735 64.8026 72.0529 64.8877Z" fill="#874C2E"/>
<path d="M65.3837 68.9579C65.0344 68.8787 64.688 68.7965 64.3446 68.6996C64.0364 68.6116 63.7135 68.5529 63.4464 68.3738C63.3672 68.321 63.3965 68.1947 63.4963 68.1918C64.1274 68.1742 64.8612 68.5235 65.4482 68.7319C65.5891 68.7789 65.5334 68.9902 65.3837 68.9579Z" fill="#874C2E"/>
<path d="M68.7853 49.897C68.5916 49.6005 68.2922 50.5222 68.2805 50.5985C68.2247 50.9566 68.2981 51.2766 68.3891 51.62C68.4243 51.7492 68.0251 51.6464 67.9782 51.5554C67.7199 51.0564 67.6993 50.1876 68.1484 49.7766C68.4302 49.5213 68.9761 49.5917 69.1786 49.9117C69.2726 50.0555 68.8499 49.9968 68.7853 49.897Z" fill="#CC6144"/>
<path d="M68.1516 50.604C68.1545 50.5658 68.1516 50.5277 68.1399 50.4895C68.1369 50.4778 68.1369 50.469 68.1487 50.4602C68.3072 50.2664 68.5567 50.1754 68.7973 50.2664C68.812 50.2723 68.8619 50.2958 68.8414 50.3193C68.7827 50.3809 68.6711 50.378 68.5977 50.4132C68.5361 50.4426 68.4921 50.4836 68.4393 50.5277C68.3864 50.5746 68.3218 50.5952 68.269 50.6392C68.2426 50.6598 68.1516 50.6392 68.1516 50.604Z" fill="#CC6144"/>
<path d="M61.4389 58.1395C61.2158 58.4477 60.7374 58.6091 60.391 58.4007C60.3646 58.386 60.3675 58.3655 60.3998 58.3684C60.708 58.3831 60.9898 58.2951 61.1747 58.0367C61.2187 57.9751 61.4917 58.0661 61.4389 58.1395Z" fill="#CC6144"/>
<path d="M63.6168 51.9893C63.6521 52.2271 63.6433 52.4179 63.5082 52.6263C63.3938 52.8024 63.2441 52.9345 63.0327 52.9756C63.0093 52.9815 62.886 52.955 62.9153 52.9139C63.0298 52.7554 63.203 52.6644 63.3028 52.4883C63.3908 52.3298 63.473 52.1449 63.4848 51.9629C63.4848 51.9277 63.611 51.96 63.6168 51.9893Z" fill="#CC6144"/>
<path d="M56.5751 53.443C56.5544 53.443 56.4983 53.4104 56.5455 53.4104C56.5691 53.4104 56.6223 53.443 56.5751 53.443Z" fill="#CC6144"/>
<path d="M56.2492 53.3805C56.0555 53.2807 55.7825 52.9901 55.9645 52.7699C55.9792 52.7523 56.035 52.7728 56.0408 52.7905C56.1318 52.9989 56.1524 53.222 56.3755 53.3364C56.5075 53.4039 56.3109 53.4098 56.2492 53.3805Z" fill="#CC6144"/>
<path d="M56.5398 88.6746C56.4576 87.4271 55.8852 86.4526 55.1221 85.4869C54.5292 84.7384 53.7895 84.2541 53.1086 83.6083C53.0352 83.5378 53.1115 83.4057 53.2084 83.4351C54.2005 83.7462 55.0047 84.7531 55.5976 85.5573C56.2199 86.3998 57.0828 87.5886 56.7012 88.6923C56.6719 88.7862 56.5486 88.7686 56.5398 88.6746Z" fill="#874C2E"/>
<path d="M56.6901 89.4174C56.376 89.0329 56.1764 88.5662 55.9005 88.1523C55.5747 87.665 55.1931 87.21 54.7734 86.7991C54.6912 86.7198 53.9134 85.9244 53.8371 86.5613C53.7901 86.9635 54.5944 87.1161 54.8321 87.2599C55.0992 87.4214 55.2783 87.5476 55.2783 87.8763C55.2783 87.982 55.1198 88.0349 55.0699 87.9321C54.7529 87.2952 53.6111 87.3186 53.4907 86.4645C53.4438 86.121 53.7168 85.9038 54.0514 85.939C54.6531 86.0036 55.2783 86.8783 55.6158 87.2981C56.0854 87.8852 56.6402 88.616 56.7547 89.3763C56.7605 89.4115 56.7165 89.4497 56.6901 89.4174Z" fill="#874C2E"/>
<path d="M68.3424 104.896C68.3394 105.912 68.357 106.895 68.7151 107.861C69.0703 108.824 69.7131 109.557 70.306 110.37C70.35 110.432 70.2649 110.503 70.2062 110.47C68.4686 109.507 67.588 106.719 68.1839 104.876C68.2103 104.79 68.3424 104.802 68.3424 104.896Z" fill="#874C2E"/>
<path d="M60.6026 95.5523C60.8521 97.1168 61.1398 98.5434 61.9499 99.9347C62.7541 101.317 63.8988 102.518 65.2401 103.387C65.3487 103.457 65.2519 103.624 65.1404 103.56C62.4488 102.028 60.1829 98.7988 60.3707 95.5846C60.3766 95.4613 60.5791 95.4143 60.6026 95.5523Z" fill="#874C2E"/>
<path d="M51.7849 55.7292C51.4474 55.5913 51.013 55.4592 50.7987 55.1451C50.7664 55.0981 50.8105 55.0365 50.8633 55.0336C51.2331 55.0218 51.5912 55.2948 51.8906 55.4797C52.0139 55.559 51.9346 55.7879 51.7849 55.7292Z" fill="#874C2E"/>
<path d="M51.7383 56.607C51.5328 56.7479 51.2012 56.877 50.9664 56.7332C50.8988 56.6921 50.8959 56.5894 50.9664 56.5483C51.0632 56.4925 51.1777 56.4778 51.2834 56.4514C51.4008 56.422 51.5152 56.3868 51.6238 56.3399C51.7882 56.2753 51.8645 56.5189 51.7383 56.607Z" fill="#874C2E"/>
<path d="M52.0492 58.2742C51.8496 58.3916 51.5854 58.5824 51.3418 58.5677C51.2831 58.5648 51.239 58.5002 51.2713 58.4474C51.4005 58.239 51.6969 58.1362 51.9112 58.0423C52.0668 57.9689 52.2047 58.1802 52.0492 58.2742Z" fill="#874C2E"/>
<path d="M157.471 114.322H149.517H136.135H130.562H116.499H13.1319H7.98369H3.61912" stroke="black" stroke-width="2.1886" stroke-miterlimit="10" stroke-linecap="round"/>
<path d="M159.417 114.322H168.038" stroke="black" stroke-width="2.1886" stroke-miterlimit="10" stroke-linecap="round"/>
<path d="M0.930649 114.322H2.37476" stroke="black" stroke-width="2.1886" stroke-miterlimit="10" stroke-linecap="round"/>
<path d="M20.913 112.549H69.6366C70.1062 112.549 70.4907 112.93 70.4907 113.403V113.465C70.4907 113.934 70.1092 114.319 69.6366 114.319H20.913C20.4434 114.319 20.0589 113.937 20.0589 113.465V113.403C20.0589 112.93 20.4405 112.549 20.913 112.549Z" fill="#2D2442"/>
<path d="M11.4002 90.8423C21.5382 90.7395 31.6762 90.6368 41.8143 90.5341C43.2525 90.5194 44.6937 90.5047 46.1319 90.49C46.355 90.4871 46.6426 90.6192 46.7395 90.8364C49.5249 97.2677 52.3104 103.699 55.0958 110.13C55.4921 111.049 55.8913 111.965 56.2875 112.884C56.3022 112.913 56.3081 112.945 56.3169 112.975C56.3169 112.975 56.3169 112.975 56.3169 112.978C56.3257 113.007 56.3345 113.036 56.3403 113.066C56.4196 113.438 56.2317 113.876 55.7739 113.932C55.6682 113.964 55.5596 113.97 55.4539 113.943C45.0341 114.025 34.6143 114.105 24.1945 114.187C22.7064 114.199 21.2183 114.21 19.7331 114.222C19.4014 114.225 19.1666 113.999 19.0551 113.706C16.2784 106.379 13.4989 99.0524 10.7222 91.7258C10.5549 91.2943 10.9776 90.8452 11.4002 90.8423Z" fill="#2D2442"/>
<path d="M11.4004 90.3607C20.7577 90.2668 30.1179 90.1729 39.4752 90.076C40.614 90.0643 41.7558 90.0525 42.8946 90.0408C43.9249 90.0291 45.1166 89.85 46.1351 90.0085C47.6467 90.2433 48.0341 92.618 48.5507 93.8098C50.4086 98.0983 52.2637 102.387 54.1216 106.672C54.917 108.51 55.7154 110.344 56.5079 112.182C56.8073 112.875 57.0979 113.714 56.3112 114.24C55.9121 114.507 55.3103 114.422 54.8789 114.427C53.7224 114.442 52.563 114.445 51.4066 114.454C49.0908 114.472 46.7749 114.489 44.4591 114.507C39.8274 114.542 35.1957 114.58 30.567 114.615C28.257 114.633 25.95 114.651 23.64 114.668C22.7096 114.674 21.7821 114.683 20.8516 114.689C20.1355 114.695 19.4251 114.833 18.8704 114.304C18.2687 113.732 18.0662 112.431 17.7815 111.683C17.3764 110.612 16.9684 109.537 16.5634 108.466C15.6153 105.965 14.6673 103.461 13.7192 100.96C12.8387 98.6384 11.9581 96.3136 11.0776 93.9917C10.6373 92.8294 9.4104 90.848 11.2772 90.3666C11.8789 90.211 12.1342 91.1415 11.5325 91.2971C10.9161 91.4556 13.0148 96.4016 13.2232 96.9535C13.9012 98.7411 14.5792 100.529 15.2543 102.313C15.9323 104.101 16.6103 105.889 17.2854 107.673C17.5907 108.478 17.8959 109.282 18.2012 110.086C18.5329 110.964 18.7736 112.261 19.3195 113.033C20.021 114.031 21.4856 113.717 22.5247 113.708C23.4698 113.7 24.412 113.694 25.3571 113.685C27.2855 113.67 29.2168 113.655 31.1452 113.641C35.0049 113.611 38.8647 113.579 42.7244 113.55C46.5841 113.52 50.4439 113.488 54.3036 113.459C54.7028 113.456 55.3779 113.626 55.6596 113.271C56.0207 112.819 55.8152 113.471 55.6802 112.657C55.5657 111.979 55.0579 111.222 54.785 110.591C53.9778 108.727 53.1706 106.866 52.3635 105.002C50.8166 101.43 49.2698 97.8546 47.72 94.2823C47.3766 93.4898 47.1007 92.2482 46.5607 91.6024C45.8386 90.7394 44.6939 90.9713 43.7077 90.983C41.7118 91.0036 39.7188 91.0241 37.7229 91.0447C28.9497 91.1327 20.1765 91.2208 11.4034 91.3118C10.7782 91.3294 10.7782 90.3666 11.4004 90.3607Z" fill="#2D2442"/>
<path d="M34.7432 104.794C33.4448 104.794 32.3922 104.026 32.3922 103.08C32.3922 102.133 33.4448 101.365 34.7432 101.365C36.0417 101.365 37.0943 102.133 37.0943 103.08C37.0943 104.026 36.0417 104.794 34.7432 104.794Z" fill="#5A4F72"/>
<path d="M30.2235 104.148C29.546 104.148 28.9967 103.748 28.9967 103.256C28.9967 102.763 29.546 102.363 30.2235 102.363C30.9011 102.363 31.4504 102.763 31.4504 103.256C31.4504 103.748 30.9011 104.148 30.2235 104.148Z" fill="#5A4F72"/>
<path d="M87.6859 108.052C86.186 107.873 83.5297 107.468 83.4622 106.546C84.4337 105.918 85.5021 105.284 86.6586 105.228C87.5802 105.184 88.4725 105.522 89.3149 105.898C90.0311 106.218 90.7355 106.564 91.4223 106.94C91.7041 107.095 92.4438 107.647 92.4555 108.032C92.4702 108.51 91.5926 108.228 91.2433 108.252C90.0545 108.337 88.8629 108.196 87.6859 108.052Z" fill="#C1ADA4"/>
<path d="M91.2279 107.271C91.2279 107.271 89.232 113.803 88.1783 113.961C87.1216 114.117 76.7958 114.196 76.5228 114.078C76.2498 113.961 76.2087 113.764 76.2087 113.764C76.2087 113.764 69.6369 114.196 69.5195 114.037C69.4021 113.879 69.5195 113.098 69.8336 112.981C70.1476 112.863 80.0802 110.635 80.9402 110.321C81.8002 110.007 84.5005 110.086 84.5005 110.086L85.0494 106.291L91.2279 107.271Z" fill="#FE8E68"/>
<path d="M88.8186 25.3135C88.1728 26.0062 87.8206 26.9661 87.8676 27.9142C87.8969 28.4778 88.0584 29.0267 88.2286 29.5668C88.5544 30.6059 88.9418 31.6802 89.749 32.4111C89.8811 32.5285 90.0455 32.643 90.2186 32.6137C90.5415 31.6156 90.8673 30.6206 91.1902 29.6226C91.3457 29.1441 91.5013 28.6627 91.5894 28.1666C91.7361 27.3271 91.6833 26.4495 91.4015 25.6481C91.2724 25.2842 91.0874 24.9231 90.7793 24.6883C90.0308 24.113 89.3293 24.7675 88.8186 25.3135Z" fill="#433735"/>
<path d="M107.95 80.5679C108.056 81.5894 107.897 82.6667 107.841 83.6882C107.809 84.2694 107.777 84.8506 107.78 85.4318C107.78 85.7693 107.88 86.1803 107.765 86.4973C107.753 86.5296 107.703 86.5531 107.677 86.5208C107.225 85.9719 107.48 84.6598 107.504 83.9964C107.539 82.8545 107.595 81.7098 107.639 80.5679C107.642 80.3625 107.929 80.3683 107.95 80.5679Z" fill="#9B8580"/>
<path d="M105.041 78.5546C106.127 81.0203 106.729 83.53 108.217 85.8342C108.302 85.9634 108.091 86.0867 108.009 85.9546C106.694 83.8881 105.261 81.0496 104.915 78.6045C104.906 78.537 105.006 78.4754 105.041 78.5546Z" fill="#9B8580"/>
<path d="M128.91 114.321L128.241 91.7575L123.336 114.321H109.271C110.204 106.816 114.351 75.44 118.684 72.7806L135.708 62.1812C135.708 62.1812 145.558 64.7496 145.344 78.9888C144.557 92.7056 142.881 108.844 142.288 114.321H128.91Z" fill="#2D2442"/>
<path d="M83.5005 106.569C83.8645 107.124 85.7254 106.707 86.2742 106.76C86.7674 106.807 87.2311 106.995 87.7095 107.118C89.2299 107.515 90.9294 107.306 92.2972 108.081C92.3383 108.105 92.3882 108.131 92.4351 108.116C92.488 108.102 92.5114 108.043 92.5291 107.993C93.4037 105.574 94.0847 103.05 94.8508 100.584C96.0013 96.8799 97.149 93.1726 98.2996 89.4682C98.8925 87.5544 99.4883 85.6406 100.081 83.7267L104.258 64.3741L102.4 50.7337L101.96 47.5166L101.927 47.2729C101.927 47.2729 101.836 47.3052 101.669 47.3639C101.088 47.5694 99.594 48.1271 97.9415 48.9343C95.291 50.2288 92.2267 52.1691 91.8099 54.3647C91.8099 54.3735 91.807 54.3794 91.807 54.3882C91.5869 55.9292 91.3374 57.4644 91.0967 59.0025C90.6682 61.7294 90.2338 64.4534 89.7964 67.1774C89.2534 70.5677 88.7104 73.958 88.1645 77.3483C87.5951 80.8824 87.0256 84.4136 86.4562 87.9448C85.9484 91.0973 85.4377 94.2499 84.927 97.3995C84.5631 99.6479 84.1991 101.896 83.8351 104.145C83.7353 104.767 83.6326 105.389 83.5328 106.012C83.5152 106.12 83.4213 106.376 83.4565 106.481C83.4682 106.514 83.4829 106.543 83.5005 106.569Z" fill="#EED9CE"/>
<path d="M101.93 47.2701L101.963 47.5137L102.403 50.7309L104.261 64.3713L113.348 69.969C113.823 70.2625 114.231 72.2703 114.425 72.7751C115.053 74.4101 115.599 76.1097 116.318 77.7065C116.465 78.0352 116.597 78.9246 116.923 79.1242C117.578 79.5264 120.243 78.9745 121.065 78.9217C124.108 78.725 127.187 78.2789 129.973 76.9668C132.174 75.9277 134.126 74.46 136.198 73.2008C137.466 72.4317 138.878 71.9503 140.216 71.331C141.112 70.9171 143.046 70.1245 143.392 69.0708C143.492 68.7655 143.336 68.4426 143.19 68.1608C142.55 66.9221 142.124 65.428 141.37 64.2774C140.674 63.2177 139.814 62.2608 139.136 61.1718C137.768 58.985 136.562 56.6749 134.854 54.7229C131.948 51.4001 129.503 47.6047 126.509 44.2937C125.18 42.8231 121.035 41.4229 119.054 41.3408C117.252 41.2674 115.505 41.5638 113.976 41.9895C112.746 42.3358 111.654 42.7673 110.794 43.1548C109.532 43.7272 108.763 44.2115 108.763 44.2115L101.93 47.2701Z" fill="#EED9CE"/>
<path d="M98.5722 65.419C97.6153 64.829 93.1451 61.9759 92.743 60.9456C92.5581 60.4672 91.5425 58.9936 90.6678 57.6111C90.1483 56.7921 88.8363 55.1865 88.5046 54.8431C87.9352 54.2531 87.1163 52.7913 86.6203 53.2727C86.0039 53.8715 86.9666 55.3685 87.5096 56.2873C87.7092 56.6248 87.9235 56.9624 88.0086 57.344C88.0937 57.7256 88.0761 58.0103 87.8501 58.3332C87.7268 58.5093 86.8932 58.5915 86.6115 58.5797C84.5011 58.4858 83.5853 58.612 82.0091 58.025C80.433 57.4379 78.9625 56.6101 77.4773 55.8235C77.2219 55.6884 77.0693 55.4125 76.494 55.3597C76.2063 55.3333 75.6017 55.3714 75.634 55.6591C75.6604 55.8822 77.4332 57.2677 77.6152 57.3968C78.5985 58.0954 78.487 58.0162 79.4702 58.7148C79.6229 58.8234 79.7872 58.9496 79.8254 59.1316C79.8577 59.2842 79.7902 59.4427 79.7872 59.5983C79.7814 59.8801 79.9751 60.1208 80.1688 60.3263C80.5063 60.6873 80.8615 61.0249 81.2372 61.3448C81.7596 61.7939 81.3341 62.1755 81.9035 62.5688C82.5316 63.0033 84.1577 63.4436 84.8034 63.8486C85.3171 64.1745 85.8366 64.5032 86.4031 64.7292C87.0811 64.9993 87.8061 65.1196 88.5222 65.2664C90.48 65.6715 93.9082 69.2203 95.5637 70.3915" fill="#FE8E68"/>
<path d="M87.3278 65.014C87.3278 65.014 84.8652 64.7029 82.9075 63.7929C80.9497 62.883 76.1096 59.8948 76.1096 59.8948C76.1096 59.8948 76.0421 59.7246 76.095 59.6072C76.1449 59.4898 76.8816 59.3254 77.4745 59.5807C78.0674 59.8361 81.8596 61.4828 81.8596 61.4828" fill="#FE8E68"/>
<path d="M87.8151 64.1866C87.8151 64.1866 84.695 63.5349 82.7372 62.625C80.7795 61.715 75.9394 58.7269 75.9394 58.7269C75.9394 58.7269 75.8719 58.5566 75.9248 58.4392C75.9776 58.3218 76.7114 58.1574 77.3043 58.4128C77.8972 58.6711 81.6894 60.3149 81.6894 60.3149" fill="#FE8E68"/>
<path d="M86.829 62.3927C86.829 62.3927 83.709 61.741 81.7512 60.8311C79.7935 59.9211 76.7526 58.3654 75.0297 57.1883C74.9152 57.112 74.8859 56.7657 74.9387 56.6453C74.9916 56.5279 75.7253 56.3635 76.3182 56.6218C76.9111 56.8801 80.7034 58.5239 80.7034 58.5239" fill="#FE8E68"/>
<path d="M98.3988 43.7094C98.3988 43.7094 90.8496 48.312 89.0855 38.9982C88.657 35.1441 88.1228 28.8801 91.3339 26.4321C94.5449 23.984 101.933 23.7022 102.094 30.9701C101.812 33.0571 101.895 33.2185 101.895 33.2185C101.895 33.2185 104.665 32.4554 104.064 35.9073C103.744 37.4718 103.327 38.0354 103.327 38.0354C103.327 38.0354 108.995 42.4736 109.001 42.4795C109.523 42.8875 109.96 43.5685 110.682 43.2397C110.762 43.2045 110.838 43.1575 110.923 43.1429C111.008 43.1282 111.108 43.1546 111.152 43.2309C111.178 43.2779 111.176 43.3366 111.178 43.3924C111.187 43.6712 111.296 43.9325 111.369 44.1996C111.654 45.224 111.358 46.1839 110.817 47.0703C110.36 47.8218 109.708 48.4617 108.939 48.8902C108.202 49.3012 107.374 49.5243 106.544 49.674C105.499 49.8618 104.392 49.9352 103.359 49.6475C102.725 49.4714 102.294 49.2748 101.853 48.7611C101.771 48.6642 101.692 48.5644 101.636 48.4499C101.51 48.1916 101.504 47.8952 101.507 47.6075C101.507 47.5664 101.51 47.5253 101.536 47.493C101.563 47.4607 101.61 47.4549 101.651 47.449C102.112 47.3727 101.807 47.129 101.616 46.9294C101.425 46.7298 101.231 46.5332 101.037 46.3336C100.632 45.9197 100.222 45.5087 99.8106 45.0978C99.338 44.634 98.8684 44.1702 98.3988 43.7094Z" fill="#FE8E68"/>
<path d="M92.7775 36.0216C92.484 36.0216 92.2462 35.5511 92.2462 34.9708C92.2462 34.3904 92.484 33.9199 92.7775 33.9199C93.0709 33.9199 93.3087 34.3904 93.3087 34.9708C93.3087 35.5511 93.0709 36.0216 92.7775 36.0216Z" fill="#56211A"/>
<path d="M91.6243 31.3548C92.7749 30.9321 94.762 31.3871 95.4899 32.4115C95.5398 32.482 95.4547 32.5964 95.3725 32.5612C94.7943 32.3322 94.31 31.9624 93.6965 31.7892C93.0097 31.5955 92.3552 31.6483 91.6595 31.616C91.504 31.6131 91.4834 31.4076 91.6243 31.3548Z" fill="#433735"/>
<path d="M88.8007 34.0117C88.9739 34.5694 88.8007 35.2064 88.5747 35.7465C88.3487 36.2866 87.9994 36.7621 87.656 37.2347C87.5005 37.4461 87.3449 37.6603 87.1893 37.8717C87.6736 38.0331 88.1491 38.2327 88.6041 38.4675C88.877 38.6084 89.1706 38.7992 89.2263 39.1016" fill="#FE8E68"/>
<path d="M92.276 39.6648C91.9502 39.7764 91.601 39.8145 91.2605 39.7734C91.2253 39.7705 91.1871 39.7676 91.1636 39.791C91.1489 39.8087 91.146 39.8321 91.1431 39.8527C91.1196 40.1902 91.2663 40.5131 91.4072 40.8184C91.5012 41.0239 91.598 41.2323 91.7477 41.4025C92.0618 41.7606 92.7633 41.9867 93.2094 41.7695C93.409 41.6726 93.5587 41.4906 93.6732 41.2998C93.9872 40.7802 94.2074 39.8996 93.9403 39.3126C93.7612 38.9192 93.7172 39.066 93.3708 39.2245C93.0509 39.3713 92.7192 39.4887 92.3964 39.6208C92.3582 39.6355 92.3171 39.6531 92.276 39.6648Z" fill="#FFFBF9"/>
<path d="M98.1293 63.7872C103.636 66.3439 112.209 70.9612 112.209 70.9612L113.439 62.073L126.395 62.1787C126.395 62.1787 122.647 82.8434 119.756 84.7719C119.756 84.7719 116.33 87.3403 110.762 83.4862C107.087 80.9413 98.5402 74.2546 94.34 70.5972L98.1293 63.7872Z" fill="#EED9CE"/>
<path d="M122.467 78.7628C122.552 77.3421 123.224 75.8011 123.585 74.4273C124.099 72.4783 124.612 70.5292 125.094 68.5714C125.96 65.0314 126.699 61.4737 127.471 57.9161C127.495 57.8134 127.668 57.8339 127.659 57.9426C127.371 61.4914 126.435 65.0402 125.581 68.4833C125.111 70.3825 124.627 72.2816 124.096 74.1632C123.685 75.6161 123.394 77.5006 122.608 78.801C122.572 78.8626 122.464 78.8421 122.467 78.7628Z" fill="#DBC4BD"/>
<path d="M94.6566 70.1302C97.3452 71.9031 99.7432 74.2308 101.948 76.5644C102.141 76.7699 101.833 77.0781 101.639 76.8726C99.3969 74.5097 96.9196 72.5107 94.4306 70.4237C94.2633 70.2887 94.4776 70.0128 94.6566 70.1302Z" fill="#DBC4BD"/>
<path d="M103.644 66.6404C102.755 66.5054 101.863 66.0504 101.061 65.6571C100.363 65.3137 99.4412 64.9878 98.9804 64.3391C98.8982 64.2217 99.0332 64.1072 99.1448 64.1248C99.905 64.2393 100.642 64.8587 101.326 65.2021C102.121 65.6013 103.004 65.8948 103.756 66.3704C103.909 66.4643 103.806 66.6668 103.644 66.6404Z" fill="#DBC4BD"/>
<path d="M111.017 43.0165C112.012 41.995 112.987 43.8149 113.286 44.6456C114.084 46.8676 113.609 49.5182 112.96 51.7109C112.174 54.3821 110.856 56.8272 110.151 59.5306C109.35 62.6127 108.76 65.6977 108.88 68.8943C108.889 69.091 108.587 69.088 108.575 68.8943C108.302 64.7261 109.303 60.0678 110.859 56.2108C111.642 54.2646 112.526 52.3919 112.99 50.3313C113.251 49.1719 113.415 47.9625 113.362 46.7737C113.342 46.307 112.543 41.8688 111.226 43.219C111.093 43.3599 110.885 43.1515 111.017 43.0165Z" fill="#9B8580"/>
<path d="M101.102 46.8537C100.85 47.2734 100.6 47.6932 100.348 48.11C100.298 48.3889 100.248 48.6707 100.198 48.9495C100.172 49.2577 100.186 49.5718 100.207 49.8771C100.263 50.7136 100.468 51.5355 100.606 52.3633C100.867 53.9572 101.07 55.5599 101.343 57.1537C101.868 60.2241 102.57 63.2563 103.562 66.2121C103.617 66.3765 103.362 66.444 103.306 66.2826C101.921 62.3316 101.167 58.2281 100.547 54.0951C100.263 52.1813 98.6306 47.6169 101.208 46.6247C101.31 46.5836 101.41 46.704 101.384 46.8009C101.375 46.8302 101.366 46.8596 101.36 46.886C101.313 47.0298 101.108 46.9975 101.102 46.8537Z" fill="#9B8580"/>
<path d="M104.674 84.6512C104.671 84.39 104.909 84.1258 105.182 84.1434C107.034 84.2667 108.883 84.3929 110.735 84.5162C111.014 84.5338 111.234 84.7334 111.243 85.024C111.322 87.8742 111.173 90.7596 111.322 93.604C111.337 93.8652 111.079 94.1323 110.814 94.1118C108.989 93.9738 107.163 93.8505 105.34 93.695C105.326 93.695 105.314 93.6891 105.299 93.6862C105.091 93.6979 104.894 93.5922 104.85 93.3222C104.413 90.5219 104.695 87.4809 104.674 84.6512Z" fill="#D6CED7"/>
<path d="M104.322 34.7395C105.152 34.851 105.786 35.0506 106.391 34.2875C106.635 33.9822 106.828 33.6622 107.207 33.5184C107.257 33.5008 107.295 33.5712 107.257 33.6035C106.787 34.0321 106.45 34.7689 105.83 35.0066C105.34 35.1945 104.736 35.0595 104.281 34.8334C104.222 34.807 104.269 34.7307 104.322 34.7395Z" fill="#594C4A"/>
<path d="M92.9103 37.6334C91.4919 37.6334 90.3421 36.4835 90.3421 35.065C90.3421 33.6465 91.4919 32.4966 92.9103 32.4966C94.3287 32.4966 95.4786 33.6465 95.4786 35.065C95.4786 36.4835 94.3287 37.6334 92.9103 37.6334Z" stroke="#F9F9F9" stroke-width="1.0943" stroke-miterlimit="10"/>
<path d="M90.263 34.3897C90.169 34.3339 90.1279 34.2458 90.0428 34.1754C89.9195 34.0726 89.7581 34.0139 89.6026 33.9846C89.4587 33.9582 89.3032 33.9582 89.1652 34.011C89.0361 34.0609 89.0038 34.1842 88.8864 34.2341C88.8541 34.2488 88.8247 34.2429 88.8013 34.2106C88.7925 34.1989 88.7837 34.1842 88.7719 34.1724C88.7455 34.1372 88.7543 34.0932 88.7719 34.058C88.9216 33.7351 89.3531 33.7087 89.6583 33.7732C89.9196 33.829 90.3892 34.0286 90.3393 34.3574C90.3393 34.3926 90.2894 34.4043 90.263 34.3897Z" fill="#F9F9F9"/>
<path d="M104.357 30.4595C103.045 31.4046 94.8416 30.2452 92.1912 29.03C86.8081 26.5614 86.2798 22.2142 87.539 21.3981C87.6916 21.2983 87.8589 21.222 88.038 21.1985C88.4606 21.1486 88.8481 21.4099 89.1915 21.6594C89.0565 21.1662 88.5663 19.0264 89.8724 18.1751C91.6277 17.0333 93.8349 18.9647 94.1959 19.2054C96.6996 20.8815 98.0527 21.1662 98.0527 21.1662C98.0527 21.1662 97.6124 16.9423 101.07 20.1858C102.159 21.2073 104.181 22.1613 105.267 23.1887C106.406 24.2659 107.055 26.0242 106.397 27.5271" fill="#433735"/>
<path d="M100.512 27.9001C99.7605 28.5107 99.4259 29.4881 99.2087 30.4333C98.8829 31.854 98.7538 33.3628 99.2058 34.7482C99.3349 35.1416 99.1735 36.9615 99.4817 36.9086C99.5785 36.894 99.7958 35.4997 100.163 34.7893C100.735 33.6886 102.552 33.5389 103.212 34.4019C104.031 35.4703 103.506 36.2247 103.142 37.2902C102.872 38.0828 103.139 39.0778 104.107 39.3508C105.012 39.6062 104.75 38.9223 105.111 38.2824C105.886 36.9028 106.696 35.6964 107.216 34.1612C108.035 31.7395 108.71 28.0645 106.177 26.3884C105.543 25.9687 103.453 25.4579 102.749 25.7397" fill="#433735"/>
<path d="M92.5905 35.7399C92.4624 35.7399 92.3586 35.6046 92.3586 35.4376C92.3586 35.2706 92.4624 35.1353 92.5905 35.1353C92.7186 35.1353 92.8224 35.2706 92.8224 35.4376C92.8224 35.6046 92.7186 35.7399 92.5905 35.7399Z" fill="white"/>
<path d="M101.128 33.3038C100.75 34.0494 99.8722 34.1961 99.1267 34.384C98.0524 34.654 96.9018 34.8654 95.7894 34.8625C95.5957 34.8625 95.6074 34.5924 95.7894 34.5689C96.7433 34.4486 97.6914 34.3664 98.6306 34.1609C99.4055 33.9936 100.459 33.8439 100.985 33.1952C101.055 33.1101 101.172 33.2157 101.128 33.3038Z" fill="#F9F9F9"/>
<path d="M99.9396 41.8607C99.5404 42.6239 98.9123 43.3782 98.1315 43.7716C98.0963 43.7892 98.0581 43.7451 98.0875 43.7158C98.7039 43.0906 99.3173 42.5152 99.8398 41.8049C99.8838 41.7462 99.9719 41.7961 99.9396 41.8607Z" fill="#CC6144"/>
<path d="M84.548 32.8021C84.1811 32.5615 83.7878 32.3354 83.4943 32.0037C83.4737 31.9803 83.4943 31.9304 83.5295 31.945C83.9404 32.1035 84.2867 32.3912 84.636 32.6524C84.7241 32.717 84.6448 32.8638 84.548 32.8021Z" fill="#433735"/>
<path d="M84.0169 33.8232C83.741 33.7645 83.3947 33.7 83.1599 33.5385C83.0982 33.4945 83.1217 33.4035 83.198 33.3976C83.4827 33.38 83.8115 33.5092 84.0786 33.6031C84.2165 33.6501 84.1608 33.8526 84.0169 33.8232Z" fill="#433735"/>
<path d="M83.917 35.0824C83.7467 35.0354 83.5765 34.9972 83.3975 34.9767C83.2536 34.962 83.1069 34.962 82.966 34.9297C82.9249 34.9209 82.9131 34.8563 82.9542 34.8358C83.2595 34.689 83.6704 34.7595 83.9727 34.8828C84.0931 34.9297 84.0491 35.1176 83.917 35.0824Z" fill="#433735"/>
<path d="M138.215 72.6576C138.963 72.6341 138.931 73.8024 139.001 74.3014C139.095 74.9794 139.286 75.8542 138.702 76.3649C138.602 76.453 138.467 76.3884 138.452 76.2622C138.449 76.2299 138.446 76.1976 138.443 76.1682C138.435 76.0949 138.52 76.0714 138.573 76.0949C138.605 76.1095 138.64 76.1242 138.672 76.1389C138.605 76.1565 138.54 76.1741 138.473 76.1917C138.816 75.6692 138.778 75.1644 138.705 74.5744C138.631 73.9814 138.672 73.1918 138.165 72.7867C138.106 72.7427 138.156 72.6605 138.215 72.6576Z" fill="black"/>
<path d="M137.36 73.2305C137.827 73.9995 137.939 75.429 137.56 76.248C137.516 76.3448 137.375 76.2891 137.372 76.1981C137.351 75.7049 137.472 75.2206 137.442 74.7216C137.413 74.2285 137.269 73.7588 137.225 73.2686C137.216 73.1923 137.325 73.1717 137.36 73.2305Z" fill="black"/>
<path d="M122.905 79.4411C123.004 79.7464 123.098 80.0546 123.233 80.3481C123.357 80.6152 123.544 80.85 123.662 81.1171C123.718 81.2434 123.577 81.3666 123.465 81.2668C123.007 80.8559 122.755 80.0604 122.711 79.4646C122.705 79.353 122.872 79.3383 122.905 79.4411Z" fill="black"/>
<path d="M122.253 80.4865C122.347 80.824 122.499 81.1029 122.655 81.4111C122.72 81.5432 122.54 81.7105 122.438 81.5784C122.203 81.279 122.097 80.8857 122.068 80.51C122.062 80.4043 122.226 80.3867 122.253 80.4865Z" fill="black"/>
<path d="M144.483 72.6166C143.556 73.1743 142.587 73.644 141.666 74.2252C140.861 74.73 140.016 75.2056 139.059 75.3318C138.918 75.3494 138.889 75.1146 139.027 75.0852C140.136 74.8416 141.046 74.3074 141.991 73.7027C142.719 73.236 143.57 72.599 144.46 72.5344C144.507 72.5344 144.519 72.5961 144.483 72.6166Z" fill="black"/>
<path d="M137.472 75.5226C135.13 76.7379 132.92 78.2378 130.519 79.3356C129.421 79.8376 128.267 80.1869 127.082 80.4305C125.96 80.6595 124.634 80.9706 123.492 80.8473C123.374 80.8356 123.333 80.6624 123.462 80.6301C124.684 80.3219 126.01 80.3483 127.252 80.0783C128.499 79.8053 129.694 79.4032 130.841 78.8396C133.06 77.7535 135.077 76.2213 137.39 75.3318C137.501 75.2878 137.575 75.4669 137.472 75.5226Z" fill="black"/>
<path d="M126.85 92.2155C126.477 91.784 126.099 91.3584 125.667 90.9856C125.423 90.7743 124.176 89.6677 123.794 90.0375C123.759 90.0727 123.689 90.0375 123.706 89.9876C123.897 89.4005 124.731 90.0082 125.01 90.1902C125.784 90.7009 126.465 91.3496 126.941 92.148C126.976 92.2009 126.894 92.2654 126.85 92.2155Z" fill="black"/>
<path d="M129.641 91.8725C130.786 90.7395 132.309 89.9499 133.935 89.8853C133.982 89.8824 133.991 89.9558 133.947 89.9675C132.374 90.3256 130.982 90.9156 129.77 92.0017C129.682 92.078 129.559 91.9547 129.641 91.8725Z" fill="black"/>
<path d="M126.964 92.9639C125.564 93.457 124.466 94.3288 124.143 95.8464C124.073 95.7935 124.002 95.7378 123.932 95.6849C124.293 95.453 124.607 95.1654 124.871 94.8278C125.059 94.5871 125.194 94.2672 125.414 94.0529C125.655 93.821 126.034 93.7417 126.318 93.9267C126.336 93.9384 126.324 93.9678 126.304 93.9589C125.67 93.7241 125.309 94.7075 125.009 95.0744C124.739 95.409 124.419 95.6761 124.076 95.9315C123.967 96.0137 123.844 95.8787 123.864 95.77C124.155 94.3288 125.397 92.8934 126.941 92.8054C127.04 92.7995 127.046 92.9345 126.964 92.9639Z" fill="black"/>
<path d="M144.651 82.1535C143.219 81.267 141.91 80.181 141.126 78.6605C141.029 78.4726 141.314 78.3053 141.411 78.4932C142.171 79.9638 143.43 81.0087 144.818 81.8688C144.997 81.9803 144.833 82.2651 144.651 82.1535Z" fill="black"/>
<path d="M127.524 80.4887C127.425 81.9711 127.207 83.4182 127.237 84.9093C127.269 86.4739 127.469 88.0267 127.809 89.553C127.841 89.6969 127.618 89.7614 127.586 89.6147C127.249 88.1118 127.043 86.5883 127.005 85.0473C126.967 83.5473 126.996 81.927 127.401 80.4711C127.419 80.4036 127.527 80.4153 127.524 80.4887Z" fill="black"/>
<path d="M127.792 90.1994C127.933 90.4343 127.956 90.7425 128.006 91.0066C128.05 91.2415 128.144 91.5086 128.068 91.7434C128.053 91.7874 127.997 91.7933 127.971 91.7551C127.827 91.5467 127.833 91.2503 127.789 91.0066C127.742 90.7542 127.648 90.49 127.666 90.2317C127.672 90.1672 127.757 90.1378 127.792 90.1994Z" fill="black"/>
<path d="M125.438 80.6475C125.479 81.8187 125.432 82.9958 125.42 84.167C125.409 85.2619 125.309 86.3949 125.417 87.4839C125.599 89.2803 127.346 90.1932 128 91.7695C128.044 91.8751 127.862 91.9515 127.815 91.8487C127.129 90.3282 125.441 89.477 125.168 87.7422C125.001 86.6767 125.133 85.5319 125.15 84.4576C125.171 83.1895 125.156 81.9127 125.232 80.6446C125.238 80.5154 125.432 80.5154 125.438 80.6475Z" fill="black"/>
<path d="M112.15 46.8532C112.173 49.0429 109.869 50.4255 107.9 50.6192C107.744 50.6339 107.735 50.4079 107.865 50.3609C108.789 50.0204 109.725 49.8443 110.544 49.2513C111.325 48.6819 111.903 47.8277 112.012 46.8561C112.021 46.7651 112.15 46.7622 112.15 46.8532Z" fill="#C1ADA4"/>
<path d="M106.667 50.6042C106.359 50.6717 106.045 50.6688 105.73 50.6717C105.411 50.6776 105.105 50.6893 104.8 50.5807C104.73 50.5543 104.73 50.4604 104.8 50.434C105.105 50.3283 105.411 50.34 105.73 50.343C106.045 50.3488 106.359 50.343 106.667 50.4105C106.761 50.434 106.761 50.5836 106.667 50.6042Z" fill="#C1ADA4"/>
<path d="M127.659 58.5389C127.712 57.9929 127.879 57.5233 128.246 57.1064C128.528 56.7865 129.115 56.3139 129.567 56.4284C129.646 56.4489 129.685 56.5634 129.617 56.6192C129.462 56.7513 129.28 56.7748 129.098 56.8599C128.874 56.9656 128.675 57.1094 128.496 57.2767C128.138 57.6113 127.859 58.0663 127.777 58.5506C127.768 58.6211 127.653 58.6064 127.659 58.5389Z" fill="#C1ADA4"/>
<path d="M100.683 36.7788C100.442 35.9922 101.243 34.4042 102.206 34.7417C102.488 34.8415 102.309 34.9766 102.089 34.9178C101.854 34.8533 101.399 35.6341 101.328 35.7691C101.149 36.1096 101.12 36.5 100.947 36.8346C100.912 36.9051 100.703 36.8434 100.683 36.7788Z" fill="#CC6144"/>
<path d="M101.254 35.6432C101.263 35.382 101.498 35.247 101.742 35.2704C101.871 35.2851 102.012 35.3262 102.114 35.4084C102.176 35.4554 102.261 35.561 102.194 35.6315C102.156 35.6696 102.056 35.6286 102.023 35.6051C101.927 35.5376 101.877 35.426 101.765 35.4759C101.659 35.5199 101.586 35.6197 101.551 35.7254C101.524 35.8076 101.252 35.7313 101.254 35.6432Z" fill="#CC6144"/>
<path d="M93.5065 35.6494C93.4654 35.9459 93.2629 36.1367 92.9576 36.1279C92.9459 36.1279 92.8578 36.1044 92.8842 36.0809C92.9576 36.0163 93.0515 35.9752 93.1279 35.9077C93.2159 35.8285 93.3128 35.7199 93.3568 35.6083C93.3744 35.5702 93.5153 35.6054 93.5065 35.6494Z" fill="#CC6144"/>
<path d="M114.014 55.5976C113.906 58.6885 113.527 61.7677 113.134 64.8321C112.931 66.4055 112.843 68.2078 112.409 69.6872C112.362 69.8457 112.147 69.7752 112.171 69.6226C112.171 69.6197 112.171 69.6197 112.171 69.6167C112.191 69.4582 112.432 69.5257 112.409 69.6813C112.409 69.6842 112.409 69.6842 112.409 69.6872C112.329 69.6666 112.25 69.6431 112.171 69.6226C112.15 69.693 112.165 69.3613 112.171 69.285C112.197 68.9709 112.259 68.6539 112.303 68.3399C112.473 67.1393 112.638 65.9388 112.793 64.7382C113.186 61.6972 113.536 58.6503 113.82 55.5976C113.829 55.4743 114.02 55.4685 114.014 55.5976Z" fill="#C1ADA4"/>
<path d="M108.696 69.094C109.902 69.3582 111.02 69.9071 112.141 70.4355C113.298 70.9785 114.492 71.4951 115.546 72.2231C115.622 72.2759 115.578 72.408 115.482 72.3787C113.092 71.6595 110.914 70.2271 108.64 69.2349C108.555 69.1968 108.616 69.0764 108.696 69.094Z" fill="#C1ADA4"/>
<path d="M87.9146 82.0743C88.2345 83.219 88.305 84.3433 88.7834 85.4616C89.2883 86.6387 90.0338 87.5516 90.8233 88.5437C90.9202 88.6641 90.7734 88.8138 90.6531 88.714C89.6874 87.9214 88.9742 86.7209 88.487 85.5849C88.0437 84.5546 87.5888 83.2132 87.7708 82.0743C87.7854 81.9979 87.897 82.0067 87.9146 82.0743Z" fill="#C1ADA4"/>
<path d="M139.112 71.6361C139.385 70.7115 139.6 69.7487 139.617 68.78C139.638 67.785 139.379 66.875 139.227 65.9063C139.209 65.786 139.374 65.6891 139.441 65.8154C140.351 67.5266 140.107 70.0217 139.297 71.7124C139.247 71.8181 139.083 71.7447 139.112 71.6361Z" fill="#C1ADA4"/>
<path d="M136.479 72.9162C136.705 72.3291 136.961 71.748 137.128 71.1403C137.19 70.9114 137.457 70.1864 137.319 70.0161C136.779 69.7666 136.485 69.887 136.438 70.3772C136.403 70.5856 136.388 70.7969 136.394 71.0083C136.394 71.1051 136.242 71.1315 136.221 71.0317C136.101 70.5063 136.565 68.7393 137.395 69.3909C137.756 69.6756 137.568 70.3918 137.492 70.7558C137.325 71.5307 136.955 72.2558 136.644 72.9808C136.603 73.0777 136.444 73.0101 136.479 72.9162Z" fill="#C1ADA4"/>
<path d="M130.877 76.3915C131.502 75.3847 131.783 74.372 132.103 73.2477C132.124 73.1802 132.221 73.1949 132.224 73.2653C132.271 74.4219 131.707 75.6048 130.994 76.4825C130.938 76.5471 130.832 76.4649 130.877 76.3915Z" fill="#C1ADA4"/>
<path d="M125.857 78.3491C124.983 78.2699 123.823 77.6182 123.682 76.6584C123.671 76.5762 123.77 76.4882 123.841 76.5674C124.114 76.8844 124.305 77.2455 124.63 77.5214C124.988 77.8237 125.435 78.038 125.884 78.1642C125.984 78.1877 125.969 78.3609 125.857 78.3491Z" fill="#C1ADA4"/>
<path d="M125.834 77.3717C125.265 77.1751 124.56 76.6702 124.46 76.0274C124.449 75.951 124.545 75.8659 124.61 75.9422C124.801 76.1683 124.939 76.4295 125.153 76.6379C125.376 76.8581 125.643 77.0283 125.928 77.1545C126.048 77.2103 125.963 77.4158 125.834 77.3717Z" fill="#C1ADA4"/>
<path d="M93.703 43.0991C93.4388 42.9905 93.2568 43.1637 93.0132 43.2312C92.9868 43.237 92.9134 43.2312 92.9046 43.1959C92.8518 42.9993 93.1189 42.9318 93.2715 42.9171C93.4623 42.8995 93.6707 42.9347 93.8262 43.058C93.9114 43.1255 93.7352 43.1138 93.703 43.0991Z" fill="#CC6144"/>
<path d="M8.69659 29.9399H39.9559C42.6122 29.9399 44.8811 31.8567 45.3273 34.475L48.0276 50.3581C48.5941 53.6838 46.0288 56.7189 42.6563 56.7189H42.4978L43.7159 63.2294L37.7047 56.7189H11.3999C8.74356 56.7189 6.47467 54.8021 6.02853 52.1838L3.32821 36.3008C2.75879 32.9751 5.3241 29.9399 8.69659 29.9399Z" fill="#699DEE"/>
<path d="M26.6337 35.9279C23.3023 36.107 19.9621 36.151 16.6278 36.2244C14.9841 36.2596 13.3404 36.2978 11.6967 36.333C10.0266 36.3712 8.28609 36.5473 6.62186 36.3946C6.44869 36.38 6.3753 36.0923 6.57783 36.0659C8.15694 35.8487 9.81237 35.9367 11.4091 35.8986C13.0997 35.8604 14.7933 35.8223 16.484 35.7841C19.8652 35.7078 23.2524 35.5962 26.6337 35.6285C26.8304 35.6256 26.8304 35.9191 26.6337 35.9279Z" fill="white"/>
<path d="M27.5341 39.9793C24.279 40.1671 21.021 40.2581 17.763 40.2434C16.1574 40.2376 14.549 40.2053 12.9434 40.1466C11.379 40.0908 9.7676 40.1055 8.21784 39.8648C7.99771 39.8296 8.05934 39.492 8.26774 39.4891C9.86739 39.448 11.4876 39.6329 13.0873 39.6887C14.6928 39.7444 16.2983 39.7738 17.9068 39.7797C21.1178 39.7885 24.3259 39.6975 27.5311 39.5096C27.8393 39.492 27.8364 39.9646 27.5341 39.9793Z" fill="white"/>
<path d="M27.5106 43.2128C24.5696 43.4799 21.6139 43.7705 18.6612 43.8821C15.7143 43.9936 12.7439 43.8175 9.79992 43.7148C9.41248 43.7001 9.40955 43.0925 9.79992 43.1101C12.7468 43.2246 15.7084 43.4447 18.6612 43.3478C21.6139 43.251 24.5579 42.934 27.5106 42.8253C27.7631 42.8165 27.7572 43.1893 27.5106 43.2128Z" fill="white"/>
<path d="M42.4921 46.2138C34.1093 46.9095 25.6531 46.9535 17.2469 47.0269C15.2451 47.0445 13.2286 47.0856 11.2298 46.9975C10.9011 46.9828 10.8981 46.4926 11.2298 46.4868C15.113 46.3958 19.0021 46.478 22.8853 46.4398C27.4201 46.3958 31.9549 46.3165 36.4868 46.1668C38.4886 46.0993 40.4933 46.0494 42.495 45.932C42.6741 45.9203 42.6712 46.1991 42.4921 46.2138Z" fill="white"/>
<path d="M42.847 49.0661C34.5581 49.7559 26.2047 49.8792 17.8923 49.9848C15.914 50.0113 13.9211 50.0582 11.9428 49.9702C11.614 49.9555 11.6111 49.4653 11.9428 49.4594C15.823 49.3684 19.7121 49.4301 23.5953 49.3714C28.0333 49.3038 32.4741 49.2011 36.9092 49.0338C38.8904 48.9604 40.8716 48.9017 42.8499 48.7843C43.0289 48.7726 43.026 49.0514 42.847 49.0661Z" fill="white"/>
<path d="M41.2739 34.3162C41.6642 35.7428 41.6995 37.2163 41.7053 38.6869C41.7083 39.4325 41.7083 40.181 41.764 40.9266C41.8227 41.7074 42.1016 42.4588 42.1427 43.2308C42.1573 43.5038 41.7728 43.586 41.6407 43.3658C41.3296 42.8434 41.2885 42.1741 41.2181 41.5753C41.1242 40.7916 41.1124 40.0049 41.1124 39.2153C41.1095 37.6185 41.1476 36.0275 40.6927 34.4777C40.5812 34.102 41.1711 33.9405 41.2739 34.3162Z" fill="white"/>
<path d="M40.6866 34.5163C36.9149 34.5897 33.1638 34.713 29.4127 35.1327C29.5271 34.983 29.6416 34.8304 29.7561 34.6807C30.1582 37.5602 30.4165 40.431 30.4106 43.3399C30.4106 43.9093 29.5213 43.9123 29.5242 43.3399C29.5448 40.4809 29.4215 37.6101 29.0546 34.7746C29.0282 34.5691 29.2395 34.4341 29.4127 34.4165C33.1462 34.0378 36.9355 33.8382 40.6866 34.0643C40.9742 34.0819 40.9801 34.5104 40.6866 34.5163Z" fill="white"/>
<path d="M41.4883 43.7708C39.6303 43.5595 37.7635 43.4832 35.8968 43.5654C35.0104 43.6035 34.124 43.6769 33.2405 43.7797C32.7268 43.8413 32.2132 43.9176 31.7025 43.9939C31.2651 44.0585 30.9364 44.173 30.5196 44.0115C30.3053 43.9294 30.1674 43.6358 30.3728 43.4568C30.9745 42.9255 32.0517 42.9666 32.8237 42.8873C33.7981 42.7875 34.7785 42.7288 35.7559 42.7083C37.7078 42.6701 39.6509 42.8051 41.5822 43.0752C41.9755 43.1309 41.8875 43.8149 41.4883 43.7708Z" fill="white"/>
<path d="M39.7469 36.1013C39.8878 37.6159 39.9993 39.1364 40.0639 40.6569C40.0786 41.0297 39.4769 41.0327 39.4827 40.6569C39.5121 39.1335 39.4769 37.6218 39.3624 36.1013C39.3448 35.8547 39.7234 35.8577 39.7469 36.1013Z" fill="white"/>
<path d="M39.7093 40.9476C36.7419 41.1355 33.7363 41.2881 30.763 41.294C30.3814 41.294 30.3873 40.7275 30.763 40.7069C33.7304 40.5337 36.736 40.5073 39.7093 40.5132C39.9911 40.5132 39.9882 40.93 39.7093 40.9476Z" fill="white"/>
<path d="M38.3769 39.6824C38.2595 39.3272 38.1391 38.9691 38.0217 38.6139C37.9219 38.3145 37.8339 37.7187 37.6167 37.4897C37.012 36.8527 36.155 38.8047 35.97 39.0777C35.6178 39.6002 34.9897 39.9965 34.526 39.3419C34.2148 38.9045 34.2002 38.3116 33.9683 37.839C33.9536 37.5895 33.8186 37.4398 33.5632 37.3899C33.4546 37.5279 33.346 37.6629 33.2404 37.8009C33.0642 38.0239 32.894 38.2969 32.6621 38.473C32.4332 38.6462 32.169 38.7108 31.8961 38.5963C31.4382 38.4026 31.4294 37.7598 31.0038 37.566C30.0763 37.1463 31.7875 36.16 31.6847 37.1756C31.6495 37.5191 31.9871 38.1237 32.3716 37.9241C32.6093 37.8009 32.8294 37.4017 33.0114 37.205C33.2374 36.9584 33.528 36.5827 33.9184 36.7353C34.2001 36.8469 34.2589 37.1874 34.3528 37.4369C34.4878 37.8009 34.6375 38.1619 34.7813 38.52C34.8019 38.8429 34.9692 39.0043 35.2862 39.0073C35.4036 38.8634 35.5122 38.7137 35.609 38.5552C35.9994 37.9858 36.5189 36.7119 37.42 36.8616C37.7898 36.9232 37.9601 37.1932 38.1068 37.5103C38.4062 38.156 38.5765 38.8957 38.7995 39.5709C38.8846 39.8321 38.4649 39.9466 38.3769 39.6824Z" fill="white"/>
<path d="M54.4242 3.88013H75.0143C76.7636 3.88013 78.2576 5.14232 78.5511 6.86829L80.3298 17.3298C80.7026 19.5195 79.0149 21.5214 76.793 21.5214H76.6873L78.7478 24.5213L73.5291 21.5214H56.2029C54.4535 21.5214 52.9566 20.2592 52.666 18.5333L50.8873 8.07177C50.5145 5.87908 52.2023 3.88013 54.4242 3.88013Z" fill="#8434DC"/>
<path d="M75.5425 7.53713C71.8002 7.73086 68.049 7.80424 64.3009 7.90404C62.4517 7.95395 60.6026 8.00385 58.7534 8.05375C56.872 8.10365 54.9377 8.28564 53.0592 8.16235C52.8714 8.15061 52.8772 7.89524 53.0592 7.87469C54.8819 7.65454 56.7722 7.72793 58.6067 7.67803C60.5057 7.62519 62.4018 7.57235 64.3009 7.51952C68.0461 7.41678 71.7943 7.28469 75.5425 7.27295C75.7127 7.27295 75.7098 7.52832 75.5425 7.53713Z" fill="white"/>
<path d="M76.4905 10.2083C72.8861 10.3815 69.2817 10.493 65.6744 10.5371C63.9192 10.5576 62.164 10.5635 60.4088 10.5547C58.5655 10.5429 56.6899 10.5987 54.8525 10.4373C54.6441 10.4196 54.6383 10.1144 54.8525 10.1056C56.6488 10.0322 58.4628 10.1408 60.262 10.1525C62.0642 10.1643 63.8693 10.1584 65.6715 10.1349C69.2788 10.0909 72.8832 9.97935 76.4875 9.80323C76.7517 9.79149 76.7517 10.1966 76.4905 10.2083Z" fill="white"/>
<path d="M77.0636 12.6212C70.0661 13.1642 63.013 13.22 56.0009 12.9734C55.7455 12.9646 55.7426 12.5654 56.0009 12.5742C63.0306 12.8325 70.0397 12.7005 77.0636 12.3658C77.2279 12.36 77.225 12.6095 77.0636 12.6212Z" fill="white"/>
<path d="M77.6232 15.2251C72.8125 15.6478 67.9137 15.9178 63.0854 15.7447C62.8682 15.7359 62.8682 15.41 63.0854 15.4071C67.9372 15.3278 72.7743 15.2985 77.6232 15.0372C77.7435 15.0314 77.7406 15.2134 77.6232 15.2251Z" fill="white"/>
<path d="M127.694 9.73633H155.877C158.272 9.73633 160.318 11.4652 160.72 13.8252L163.154 28.1467C163.664 31.1466 161.351 33.8823 158.311 33.8823H134.489L130.333 39.1189L130.165 33.8823H130.127C127.732 33.8823 125.686 32.1534 125.284 29.7934L122.851 15.4719C122.34 12.472 124.653 9.73633 127.694 9.73633Z" fill="#FF6652"/>
<path d="M145.877 15.0263C142.537 15.1701 139.194 15.2288 135.851 15.308C134.204 15.3462 132.557 15.3844 130.911 15.4225C129.223 15.4607 127.509 15.5928 125.824 15.5076C125.686 15.5018 125.689 15.308 125.824 15.2934C127.456 15.1349 129.126 15.1818 130.764 15.1437C132.461 15.1026 134.154 15.0615 135.851 15.0233C139.191 14.9441 142.534 14.8443 145.877 14.8325C146 14.8325 146 15.0204 145.877 15.0263Z" fill="white"/>
<path d="M146.767 18.653C143.556 18.8321 140.339 18.926 137.122 18.926C133.928 18.926 130.644 18.9906 127.465 18.6354C127.313 18.6178 127.304 18.3918 127.465 18.3918C130.682 18.383 133.902 18.6325 137.122 18.6295C140.339 18.6266 143.556 18.5327 146.767 18.3536C146.958 18.3419 146.958 18.6413 146.767 18.653Z" fill="white"/>
<path d="M158.68 21.6447C149.097 22.3404 139.449 22.4402 129.851 22.0938C129.616 22.085 129.616 21.7211 129.851 21.7299C139.47 22.0762 149.071 21.9207 158.68 21.4128C158.833 21.404 158.83 21.633 158.68 21.6447Z" fill="white"/>
<path d="M159.45 25.2229C152.857 25.7659 146.165 26.1152 139.549 25.901C139.353 25.8951 139.35 25.5957 139.549 25.5927C146.194 25.5076 152.813 25.4489 159.45 25.0526C159.558 25.0468 159.558 25.2141 159.45 25.2229Z" fill="white"/>
<path d="M157.685 13.564C157.885 14.9436 158.178 16.3673 158.272 17.7586C158.328 18.5922 157.932 18.9944 157.122 19.1294C155.725 19.3672 154.272 19.4141 152.86 19.5403C152.015 19.6167 150.474 19.963 149.775 19.2644C149.435 18.9239 149.52 18.4044 149.543 17.9699C149.576 17.3506 149.646 16.7342 149.646 16.1148C149.646 15.337 149.42 14.7 149.247 13.9603C149.168 13.6227 149.15 13.2852 149.379 12.9946C149.931 12.296 151.313 12.5513 152.073 12.5543C153.62 12.5601 155.167 12.6012 156.711 12.6306C157.192 12.6394 157.172 13.4202 156.711 13.3644C154.706 13.1296 152.643 12.9828 150.623 13.0797C150.18 13.1002 149.725 13.0738 149.734 13.8253C149.737 13.9984 149.866 14.2098 149.913 14.3742C150.031 14.7704 150.086 15.1785 150.104 15.5923C150.124 16.0326 150.092 16.4729 150.054 16.9103C150.016 17.3653 149.866 17.9171 149.928 18.3691C150.036 19.1734 150.682 19.2615 151.366 19.2409C151.865 19.2263 152.361 19.1646 152.86 19.1235C153.876 19.0384 154.891 18.9621 155.907 18.8799C156.321 18.8476 157.11 18.9357 157.477 18.7243C157.747 18.5688 157.973 18.0521 157.991 17.7586C158.008 17.4709 157.891 17.0365 157.85 16.74C157.709 15.7068 157.533 14.6794 157.383 13.6491C157.354 13.4495 157.656 13.3644 157.685 13.564Z" fill="white"/>
<path d="M154.756 16.8362C154.63 16.1611 154.571 15.4743 154.492 14.7933C154.527 14.8549 154.562 14.9165 154.597 14.9811C154.474 14.8989 153.28 16.3372 153.145 16.4899C153.109 16.3549 153.074 16.2198 153.039 16.0848C153.558 16.2961 154.081 16.4987 154.597 16.7159C154.885 16.8362 154.765 17.3147 154.465 17.1944C153.943 16.9859 153.429 16.7658 152.91 16.5515C152.74 16.4811 152.672 16.2932 152.804 16.1464C153.136 15.7737 153.47 15.4097 153.826 15.0604C154.025 14.8637 154.327 14.4557 154.662 14.5261C154.988 14.5966 154.941 14.9518 154.967 15.2101C155.02 15.7355 155.082 16.2639 155.099 16.7922C155.099 16.9801 154.791 17.03 154.756 16.8362Z" fill="white"/>
<path d="M33.5838 72.4016C33.2061 72.4016 32.8999 72.0954 32.8999 71.7176C32.8999 71.3399 33.2061 71.0337 33.5838 71.0337C33.9615 71.0337 34.2676 71.3399 34.2676 71.7176C34.2676 72.0954 33.9615 72.4016 33.5838 72.4016Z" fill="#2D2442"/>
<path d="M31.4177 72.4016C31.04 72.4016 30.7338 72.0954 30.7338 71.7176C30.7338 71.3399 31.04 71.0337 31.4177 71.0337C31.7954 71.0337 32.1016 71.3399 32.1016 71.7176C32.1016 72.0954 31.7954 72.4016 31.4177 72.4016Z" fill="#2D2442"/>
<path d="M29.2543 72.4016C28.8766 72.4016 28.5705 72.0954 28.5705 71.7176C28.5705 71.3399 28.8766 71.0337 29.2543 71.0337C29.632 71.0337 29.9382 71.3399 29.9382 71.7176C29.9382 72.0954 29.632 72.4016 29.2543 72.4016Z" fill="#2D2442"/>
<path d="M30.9424 20.937C30.5647 20.937 30.2585 20.6307 30.2585 20.253C30.2585 19.8753 30.5647 19.5691 30.9424 19.5691C31.3201 19.5691 31.6263 19.8753 31.6263 20.253C31.6263 20.6307 31.3201 20.937 30.9424 20.937Z" fill="#2D2442"/>
<path d="M28.7763 20.937C28.3986 20.937 28.0924 20.6307 28.0924 20.253C28.0924 19.8753 28.3986 19.5691 28.7763 19.5691C29.154 19.5691 29.4602 19.8753 29.4602 20.253C29.4602 20.6307 29.154 20.937 28.7763 20.937Z" fill="#2D2442"/>
<path d="M26.613 20.937C26.2353 20.937 25.9291 20.6307 25.9291 20.253C25.9291 19.8753 26.2353 19.5691 26.613 19.5691C26.9907 19.5691 27.2969 19.8753 27.2969 20.253C27.2969 20.6307 26.9907 20.937 26.613 20.937Z" fill="#2D2442"/>
<path d="M153.814 47.1577C153.436 47.1577 153.13 46.8515 153.13 46.4737C153.13 46.096 153.436 45.7898 153.814 45.7898C154.192 45.7898 154.498 46.096 154.498 46.4737C154.498 46.8515 154.192 47.1577 153.814 47.1577Z" fill="#2D2442"/>
<path d="M151.651 47.1577C151.273 47.1577 150.967 46.8515 150.967 46.4737C150.967 46.096 151.273 45.7898 151.651 45.7898C152.028 45.7898 152.334 46.096 152.334 46.4737C152.334 46.8515 152.028 47.1577 151.651 47.1577Z" fill="#2D2442"/>
<path d="M149.485 47.1577C149.107 47.1577 148.801 46.8515 148.801 46.4737C148.801 46.096 149.107 45.7898 149.485 45.7898C149.862 45.7898 150.168 46.096 150.168 46.4737C150.168 46.8515 149.862 47.1577 149.485 47.1577Z" fill="#2D2442"/>
</g>
<defs>
<clipPath id="clip0_59_11247">
<rect width="172" height="118" fill="white" transform="matrix(-1 0 0 1 172 0)"/>
</clipPath>
</defs>
</svg>
