<svg width="386" height="137" viewBox="0 0 386 137" fill="none" xmlns="http://www.w3.org/2000/svg">
<path d="M273.644 7.66653L272.339 8.66787C261.34 17.1094 255.671 30.7904 258.064 44.2794C258.374 46.0142 258.807 47.7258 259.368 49.4025C263.417 61.4593 274.012 71.1583 286.539 74.2787C293.904 76.1126 302.13 75.9379 308.297 80.2809C316.33 85.9396 317.793 96.8961 318.582 106.589C319.366 116.282 320.864 127.245 328.92 132.869C333.97 136.391 340.639 136.944 346.753 135.931C362.942 133.253 376.229 120.34 381.851 105.175C387.473 90.009 386.216 73.0329 381.266 57.6693C374.327 36.1522 359.724 16.5796 339.393 6.10631C319.062 -4.36698 292.933 -4.67553 273.644 7.66653Z" fill="#F5F5F5"/>
<path d="M90.1558 69.6599C93.8525 46.7755 78.2058 25.2421 55.2078 21.5636C32.2099 17.8851 10.5696 33.4546 6.87283 56.339C3.17611 79.2233 18.8228 100.757 41.8208 104.435C64.8188 108.114 86.4591 92.5442 90.1558 69.6599Z" fill="#F5F5F5"/>
</svg>
