<svg width="125" height="87" viewBox="0 0 125 87" fill="none" xmlns="http://www.w3.org/2000/svg">
<path d="M118.049 1.69128H97.7123V25.7467H118.049V1.69128Z" fill="#F5F5F5"/>
<path d="M98.4201 0.119019H6.52435V27.2541H98.4201V0.119019Z" fill="#E0E0E0"/>
<path d="M118.663 2.40112H95.9513V0.119019H118.663C119.295 0.119019 119.81 0.631339 119.81 1.26008C119.81 1.89464 119.295 2.40112 118.663 2.40112Z" fill="#E0E0E0"/>
<path d="M118.663 27.2543H95.9513V24.9722H118.663C119.295 24.9722 119.81 25.4845 119.81 26.1132C119.81 26.7478 119.295 27.2543 118.663 27.2543Z" fill="#E0E0E0"/>
<path d="M91.1945 0.119019H80.3358V27.2541H91.1945V0.119019Z" fill="#EBEBEB"/>
<path d="M26.1181 0.421997H15.2593V27.5571H26.1181V0.421997Z" fill="#EBEBEB"/>
<path d="M118.049 5.66693C118.049 5.73097 113.649 5.7892 108.22 5.7892C102.791 5.7892 98.3911 5.73679 98.3911 5.66693C98.3911 5.60289 102.791 5.54468 108.22 5.54468C113.649 5.54468 118.049 5.60289 118.049 5.66693Z" fill="#E0E0E0"/>
<path d="M118.049 9.27679C118.049 9.34083 113.649 9.39904 108.22 9.39904C102.791 9.39904 98.3911 9.34665 98.3911 9.27679C98.3911 9.21275 102.791 9.15454 108.22 9.15454C113.649 9.15454 118.049 9.20693 118.049 9.27679Z" fill="#E0E0E0"/>
<path d="M118.049 13.7184C118.049 13.7825 113.649 13.8407 108.22 13.8407C102.791 13.8407 98.3911 13.7883 98.3911 13.7184C98.3911 13.6544 102.791 13.5962 108.22 13.5962C113.649 13.5962 118.049 13.6486 118.049 13.7184Z" fill="#E0E0E0"/>
<path d="M118.049 18.155C118.049 18.219 113.649 18.2772 108.22 18.2772C102.791 18.2772 98.3911 18.2248 98.3911 18.155C98.3911 18.0909 102.791 18.0327 108.22 18.0327C113.649 18.0385 118.049 18.0909 118.049 18.155Z" fill="#E0E0E0"/>
<path d="M118.049 22.5966C118.049 22.6607 113.649 22.7189 108.22 22.7189C102.791 22.7189 98.3911 22.6665 98.3911 22.5966C98.3911 22.5326 102.791 22.4744 108.22 22.4744C113.649 22.4802 118.049 22.5326 118.049 22.5966Z" fill="#E0E0E0"/>
<path d="M74.497 11.2733H33.1565V16.1578H74.497V11.2733Z" fill="#EBEBEB"/>
<path d="M117.845 27.7899H97.1977V42.4491H117.845V27.7899Z" fill="#FAFAFA"/>
<path d="M97.4315 27.2544H9.56683V42.9731H97.4315V27.2544Z" fill="#F5F5F5"/>
<path d="M96.7878 28.32H118.979C119.272 28.32 119.512 28.0813 119.512 27.7902C119.512 27.4991 119.272 27.2604 118.979 27.2604H96.7878V28.32Z" fill="#F5F5F5"/>
<path d="M96.7878 42.9789H119.266C119.4 42.9789 119.512 42.8683 119.512 42.7344V42.1581C119.512 42.0242 119.4 41.9136 119.266 41.9136H96.7878V42.9789Z" fill="#F5F5F5"/>
<path d="M117.844 30.5728C117.844 30.6369 113.275 30.6951 107.635 30.6951C101.995 30.6951 97.4257 30.6427 97.4257 30.5728C97.4257 30.5088 101.995 30.4506 107.635 30.4506C113.269 30.4506 117.844 30.5088 117.844 30.5728Z" fill="#E0E0E0"/>
<path d="M117.844 33.3439C117.844 33.4079 113.275 33.4662 107.635 33.4662C101.995 33.4662 97.4257 33.4138 97.4257 33.3439C97.4257 33.2799 101.995 33.2217 107.635 33.2217C113.269 33.2275 117.844 33.2799 117.844 33.3439Z" fill="#E0E0E0"/>
<path d="M117.844 36.121C117.844 36.1851 113.275 36.2433 107.635 36.2433C101.995 36.2433 97.4257 36.1909 97.4257 36.121C97.4257 36.057 101.995 35.9988 107.635 35.9988C113.269 35.9988 117.844 36.0512 117.844 36.121Z" fill="#E0E0E0"/>
<path d="M117.844 38.8923C117.844 38.9563 113.275 39.0145 107.635 39.0145C101.995 39.0145 97.4257 38.9621 97.4257 38.8923C97.4257 38.8282 101.995 38.77 107.635 38.77C113.269 38.77 117.844 38.8224 117.844 38.8923Z" fill="#E0E0E0"/>
<path d="M120.974 44.376H99.9004V84.1093H120.974V44.376Z" fill="#EBEBEB"/>
<path d="M99.9005 42.9802H0.984009V86.061H99.9005V42.9802Z" fill="#E0E0E0"/>
<path d="M122.624 86.0538H97.1977V83.2594H122.624C123.403 83.2594 124.029 83.8823 124.029 84.6566C124.029 85.4309 123.397 86.0538 122.624 86.0538Z" fill="#E0E0E0"/>
<path d="M123.385 45.7673H97.1977V42.9729H123.385C123.742 42.9729 124.029 43.2582 124.029 43.6133V45.1269C124.029 45.4821 123.736 45.7673 123.385 45.7673Z" fill="#E0E0E0"/>
<path d="M120.974 49.6971C120.974 49.7611 116.259 49.8194 110.437 49.8194C104.616 49.8194 99.9004 49.767 99.9004 49.6971C99.9004 49.633 104.616 49.5748 110.437 49.5748C116.259 49.5807 120.974 49.633 120.974 49.6971Z" fill="#E0E0E0"/>
<path d="M120.974 54.7971C120.974 54.8611 116.259 54.9193 110.437 54.9193C104.616 54.9193 99.9004 54.8669 99.9004 54.7971C99.9004 54.733 104.616 54.6748 110.437 54.6748C116.259 54.6748 120.974 54.7272 120.974 54.7971Z" fill="#E0E0E0"/>
<path d="M120.974 59.8909C120.974 59.955 116.259 60.0132 110.437 60.0132C104.616 60.0132 99.9004 59.9608 99.9004 59.8909C99.9004 59.8269 104.616 59.7687 110.437 59.7687C116.259 59.7687 120.974 59.8269 120.974 59.8909Z" fill="#E0E0E0"/>
<path d="M120.974 64.985C120.974 65.0491 116.259 65.1073 110.437 65.1073C104.616 65.1073 99.9004 65.0549 99.9004 64.985C99.9004 64.921 104.616 64.8628 110.437 64.8628C116.259 64.8686 120.974 64.921 120.974 64.985Z" fill="#E0E0E0"/>
<path d="M120.974 70.0849C120.974 70.149 116.259 70.2072 110.437 70.2072C104.616 70.2072 99.9004 70.1548 99.9004 70.0849C99.9004 70.0209 104.616 69.9626 110.437 69.9626C116.259 69.9626 120.974 70.0151 120.974 70.0849Z" fill="#E0E0E0"/>
<path d="M120.974 75.1788C120.974 75.2428 116.259 75.301 110.437 75.301C104.616 75.301 99.9004 75.2486 99.9004 75.1788C99.9004 75.1147 104.616 75.0565 110.437 75.0565C116.259 75.0565 120.974 75.1147 120.974 75.1788Z" fill="#E0E0E0"/>
<path d="M120.974 80.2729C120.974 80.3369 116.259 80.3951 110.437 80.3951C104.616 80.3951 99.9004 80.3428 99.9004 80.2729C99.9004 80.2089 104.616 80.1506 110.437 80.1506C116.259 80.1565 120.974 80.2089 120.974 80.2729Z" fill="#E0E0E0"/>
<path d="M34.8298 66.8713V69.2698C34.8298 72.1574 33.3788 73.805 30.5822 73.805C27.7856 73.805 26.3347 72.1574 26.3347 69.2698V59.8852C26.3347 56.9977 27.7856 55.3501 30.5822 55.3501C33.3788 55.3501 34.8298 56.9977 34.8298 59.8852V61.6376H32.1385V59.7048C32.1385 58.4182 31.571 57.9291 30.6641 57.9291C29.7573 57.9291 29.1898 58.4182 29.1898 59.7048V69.4503C29.1898 70.7369 29.7573 71.2027 30.6641 71.2027C31.571 71.2027 32.1385 70.7369 32.1385 69.4503V66.8713H34.8298Z" fill="#EBEBEB"/>
<path d="M36.3333 59.8912C36.3333 57.0036 37.8603 55.3561 40.6569 55.3561C43.4535 55.3561 44.9805 57.0036 44.9805 59.8912V69.2758C44.9805 72.1634 43.4535 73.8109 40.6569 73.8109C37.8603 73.8109 36.3333 72.1634 36.3333 69.2758V59.8912ZM39.1826 69.4505C39.1826 70.7371 39.7501 71.2261 40.6569 71.2261C41.5638 71.2261 42.1313 70.7371 42.1313 69.4505V59.7107C42.1313 58.4241 41.5638 57.9351 40.6569 57.9351C39.7501 57.9351 39.1826 58.4241 39.1826 59.7107V69.4505Z" fill="#EBEBEB"/>
<path d="M46.8177 55.5598H49.667V71.0223H54.3533V73.6013H46.8177V55.5598Z" fill="#EBEBEB"/>
<path d="M55.3657 59.8912C55.3657 57.0036 56.8927 55.3561 59.6893 55.3561C62.4859 55.3561 64.0129 57.0036 64.0129 59.8912V69.2758C64.0129 72.1634 62.4859 73.8109 59.6893 73.8109C56.8927 73.8109 55.3657 72.1634 55.3657 69.2758V59.8912ZM58.215 69.4505C58.215 70.7371 58.7825 71.2261 59.6893 71.2261C60.5962 71.2261 61.1637 70.7371 61.1637 69.4505V59.7107C61.1637 58.4241 60.5962 57.9351 59.6893 57.9351C58.7825 57.9351 58.215 58.4241 58.215 59.7107V69.4505Z" fill="#EBEBEB"/>
<path d="M68.5761 55.5598V69.4796C68.5761 70.7662 69.1436 71.2319 70.0505 71.2319C70.9573 71.2319 71.5248 70.7662 71.5248 69.4796V55.5598H74.2161V69.2991C74.2161 72.1867 72.7652 73.8342 69.9686 73.8342C67.172 73.8342 65.721 72.1867 65.721 69.2991V55.5598H68.5761Z" fill="#EBEBEB"/>
<path d="M82.1203 73.6013C81.9623 73.1356 81.8629 72.8561 81.8629 71.3832V68.5481C81.8629 66.8714 81.2954 66.2543 79.9965 66.2543H79.0136V73.6013H76.1644V55.5598H80.4646C83.4191 55.5598 84.6887 56.9279 84.6887 59.7107V61.1254C84.6887 62.9825 84.092 64.1934 82.8224 64.7872C84.2499 65.3811 84.7121 66.7433 84.7121 68.6296V71.4124C84.7121 72.2914 84.7355 72.9318 85.0222 73.6013H82.1203ZM79.0136 58.1388V63.6811H80.1252C81.1901 63.6811 81.8336 63.2154 81.8336 61.7716V59.996C81.8336 58.7094 81.3948 58.1388 80.3827 58.1388H79.0136Z" fill="#EBEBEB"/>
<path d="M34.2155 33.4486H32.1385L32.2497 32.913H37.0179L36.9009 33.4486H34.8298L33.7591 38.7696H33.1448L34.2155 33.4486Z" fill="#E0E0E0"/>
<path d="M41.0194 34.3682L37.7899 39.3399C37.2458 40.1782 36.8304 40.4344 36.1926 40.4344C35.7831 40.4344 35.3619 40.2947 35.1395 40.0385L35.4613 39.6019C35.6544 39.7998 35.906 39.9221 36.2453 39.9221C36.6256 39.9221 36.9181 39.7475 37.2633 39.2119L37.5734 38.7461L36.4735 34.3682H37.0761L37.9946 38.1174L40.4109 34.3682H41.0194Z" fill="#E0E0E0"/>
<path d="M45.9346 36.1902C45.9346 37.7039 44.8757 38.81 43.4306 38.81C42.5881 38.81 42.003 38.4665 41.7456 37.8494L41.2425 40.3935H40.6457L41.8509 34.368H42.4243L42.2839 35.0724C42.7051 34.6067 43.296 34.3389 44.0098 34.3389C45.139 34.3331 45.9346 35.0375 45.9346 36.1902ZM45.332 36.2252C45.332 35.3635 44.7996 34.8512 43.8752 34.8512C42.7753 34.8512 41.9679 35.7128 41.9679 36.9179C41.9679 37.7796 42.5003 38.2802 43.4247 38.2802C44.5246 38.286 45.332 37.4244 45.332 36.2252Z" fill="#E0E0E0"/>
<path d="M46.6307 36.947C46.6307 35.4508 47.7014 34.3389 49.1875 34.3389C50.4161 34.3389 51.2001 35.0608 51.2001 36.196C51.2001 37.7038 50.1294 38.8158 48.6433 38.8158C47.4147 38.8099 46.6307 38.0764 46.6307 36.947ZM50.6033 36.2251C50.6033 35.3635 50.0709 34.8512 49.1465 34.8512C48.0466 34.8512 47.2275 35.7186 47.2275 36.9179C47.2275 37.7795 47.7599 38.2802 48.6843 38.2802C49.7842 38.286 50.6033 37.4244 50.6033 36.2251Z" fill="#E0E0E0"/>
<path d="M56.922 34.3678L56.1497 38.2334C55.8396 39.7878 55.0147 40.434 53.5754 40.434C52.7446 40.434 52.0601 40.2012 51.6096 39.7704L51.9607 39.3163C52.3117 39.6772 52.9085 39.9043 53.6164 39.9043C54.7338 39.9043 55.3248 39.392 55.5354 38.3324L55.6348 37.8434C55.2136 38.3149 54.6168 38.6002 53.868 38.6002C52.6978 38.6002 51.9139 37.9249 51.9139 36.8246C51.9139 35.4099 52.967 34.3329 54.4355 34.3329C55.2487 34.3329 55.9098 34.6647 56.1614 35.3342L56.3486 34.362H56.922V34.3678ZM55.9157 36.1318C55.9157 35.3284 55.3716 34.851 54.453 34.851C53.3356 34.851 52.5282 35.6719 52.5282 36.7897C52.5282 37.593 53.0664 38.0704 53.9908 38.0704C55.1024 38.0762 55.9157 37.2554 55.9157 36.1318Z" fill="#E0E0E0"/>
<path d="M60.824 34.3329L60.7128 34.9092C60.6543 34.9092 60.6133 34.8976 60.5431 34.8976C59.6012 34.8976 58.9693 35.4332 58.7528 36.5277L58.3082 38.7632H57.7114L58.589 34.362H59.1624L59.0103 35.1654C59.4023 34.5949 59.9815 34.3329 60.824 34.3329Z" fill="#E0E0E0"/>
<path d="M65.8963 34.368L65.0128 38.7692H64.4395L64.5799 38.0764C64.1586 38.5363 63.5736 38.81 62.8539 38.81C61.7189 38.81 60.9291 38.1055 60.9291 36.947C60.9291 35.4392 61.988 34.3389 63.4273 34.3389C64.2698 34.3389 64.8548 34.6824 65.1064 35.2936L65.2936 34.3738H65.8963V34.368ZM64.9017 36.2251C64.9017 35.3635 64.3692 34.8512 63.4448 34.8512C62.3449 34.8512 61.5258 35.7186 61.5258 36.9179C61.5258 37.7795 62.0582 38.2802 62.9826 38.2802C64.0884 38.286 64.9017 37.4244 64.9017 36.2251Z" fill="#E0E0E0"/>
<path d="M71.6358 36.1902C71.6358 37.7039 70.5769 38.81 69.1318 38.81C68.2893 38.81 67.7042 38.4665 67.4468 37.8494L66.9436 40.3935H66.3469L67.5521 34.368H68.1254L67.985 35.0724C68.4063 34.6067 68.9972 34.3389 69.711 34.3389C70.8343 34.3331 71.6358 35.0375 71.6358 36.1902ZM71.0332 36.2252C71.0332 35.3635 70.5008 34.8512 69.5764 34.8512C68.4765 34.8512 67.6691 35.7128 67.6691 36.9179C67.6691 37.7796 68.2015 38.2802 69.1259 38.2802C70.2258 38.286 71.0332 37.4244 71.0332 36.2252Z" fill="#E0E0E0"/>
<path d="M76.9896 35.7652C76.9896 35.9224 76.972 36.0912 76.9369 36.2659L76.4338 38.7692H75.837L76.3401 36.2601C76.3635 36.1203 76.3811 35.9864 76.3811 35.8584C76.3811 35.2296 76.0008 34.8687 75.2402 34.8687C74.2983 34.8687 73.6488 35.381 73.4382 36.4056L72.9702 38.7634H72.3734L73.6196 32.5516H74.2164L73.7191 35.02C74.1403 34.5427 74.7312 34.3273 75.4099 34.3273C76.4104 34.3331 76.9896 34.8687 76.9896 35.7652Z" fill="#E0E0E0"/>
<path d="M82.5826 34.3682L79.3531 39.3399C78.809 40.1782 78.3936 40.4344 77.7559 40.4344C77.3463 40.4344 76.9251 40.2947 76.7028 40.0385L77.0245 39.6019C77.2176 39.7998 77.4692 39.9221 77.8085 39.9221C78.1888 39.9221 78.4814 39.7475 78.8265 39.2119L79.1366 38.7461L78.0367 34.3682H78.6393L79.5579 38.1174L81.9742 34.3682H82.5826Z" fill="#E0E0E0"/>
</svg>
