<svg width="144" height="157" viewBox="0 0 144 157" fill="none" xmlns="http://www.w3.org/2000/svg">
<path d="M115.719 74.8853C115.719 74.8853 123.752 78.78 126.578 88.8399C129.404 98.8999 138.039 125.098 138.039 125.098C138.039 125.098 142.977 130.879 143.509 135.158C144.036 139.437 142.983 149.793 141.392 151.726C139.806 153.659 137.542 153.339 137.542 153.339L116.755 151.377L108.57 96.839L115.719 74.8853Z" fill="#FF6652"/>
<path d="M46.9859 73.9362C46.9859 73.9362 32.1253 78.5761 28.4219 82.6106L40.5912 138.947L40.3981 156.721H110.863C110.863 155.842 111.495 97.7063 111.495 97.7063L115.731 74.891L90.6842 70.5014L85.7463 66.6416L57.8798 68.0446L53.6439 72.2596L46.9859 73.9362Z" fill="#FF6652"/>
<g opacity="0.3">
<path opacity="0.3" d="M52.6323 122.809C52.4158 122.332 52.1057 121.814 51.5909 121.709C50.7425 121.534 50.175 122.536 49.8883 123.345C47.6007 129.795 44.5701 135.728 40.6327 141.328L40.4513 149.979C44.5584 146.539 48.6071 142.854 51.2281 138.19C53.8375 133.527 54.8438 127.676 52.6323 122.809Z" fill="black"/>
</g>
<path d="M28.4163 82.6107C28.4163 82.6107 23.5193 89.2533 21.4833 93.5905C19.4473 97.9277 2.59749 134.348 1.58533 138.109C0.567324 141.87 -2.04791 153.717 5.65151 156.465H21.4833L37.3736 124.486L38.1868 87.3729L28.4163 82.6107Z" fill="#FF6652"/>
<path d="M22.5011 133.365C22.4777 133.388 22.15 133.056 21.4187 132.643C20.6932 132.235 19.5582 131.764 18.0955 131.443C17.3642 131.286 16.551 131.158 15.6734 131.106C14.7958 131.053 13.8539 131.065 12.8943 131.286C10.9753 131.711 9.06803 132.922 7.56442 134.616C6.0374 136.31 5.10131 138.313 4.5455 140.199C3.98384 142.091 3.74396 143.867 3.59185 145.351C3.44558 146.842 3.38707 148.053 3.33442 148.891C3.31102 149.281 3.28762 149.601 3.27592 149.857C3.25837 150.079 3.24666 150.195 3.23496 150.195C3.22326 150.195 3.21741 150.079 3.21741 149.857C3.21741 149.601 3.2174 149.281 3.22325 148.891C3.24081 148.053 3.26421 146.836 3.38122 145.334C3.50409 143.838 3.72641 142.045 4.27637 140.118C4.82048 138.202 5.77413 136.147 7.33624 134.412C8.87496 132.678 10.8408 131.438 12.8358 131.013C13.8304 130.791 14.8017 130.785 15.6909 130.855C16.5802 130.919 17.4052 131.059 18.1424 131.234C19.6226 131.583 20.7576 132.09 21.4772 132.538C21.8341 132.765 22.0974 132.969 22.2612 133.12C22.425 133.271 22.5069 133.359 22.5011 133.365Z" fill="#263238"/>
<path d="M14.9951 126.995C14.9951 126.972 15.1823 126.943 15.5275 126.908C15.8727 126.867 16.3759 126.856 16.996 126.891C17.6162 126.92 18.3534 127.024 19.1549 127.211C19.9506 127.409 20.8165 127.7 21.6765 128.101C22.5307 128.515 23.303 128.998 23.9583 129.493C24.6077 129.999 25.1518 130.5 25.5672 130.966C25.9826 131.426 26.2927 131.822 26.4741 132.113C26.6613 132.404 26.7607 132.567 26.7432 132.578C26.6964 132.613 26.2693 131.979 25.4092 131.111C24.9821 130.675 24.4322 130.197 23.7886 129.72C23.1333 129.248 22.3786 128.783 21.542 128.381C20.6995 127.985 19.8628 127.7 19.0847 127.49C18.3007 127.292 17.5869 127.17 16.9785 127.118C15.7615 126.99 14.9951 127.054 14.9951 126.995Z" fill="#263238"/>
<path d="M29.3058 125.243C29.3 125.266 29.0425 125.243 28.5745 125.185C28.1064 125.127 27.4278 125.057 26.5911 124.993C24.9179 124.865 22.5893 124.835 20.0384 125.138C17.4934 125.447 15.2351 126.023 13.6379 126.535C12.8363 126.792 12.1927 127.019 11.754 127.187C11.3152 127.35 11.0636 127.432 11.0577 127.414C11.0519 127.397 11.28 127.275 11.713 127.077C12.1401 126.873 12.772 126.617 13.5735 126.332C15.1649 125.761 17.4349 125.144 20.0092 124.835C22.5776 124.533 24.9354 124.597 26.6145 124.777C27.457 124.865 28.1357 124.969 28.5979 125.062C29.0601 125.167 29.3117 125.225 29.3058 125.243Z" fill="#263238"/>
<path d="M74.4078 94.1258C74.4019 94.1316 74.3493 94.0675 74.2439 93.9336C74.1328 93.7823 73.9865 93.5902 73.811 93.3573C73.4249 92.8217 72.8866 92.0823 72.2196 91.1625C70.8506 89.2413 68.9491 86.5691 66.7025 83.4196L66.9482 83.3847C66.094 85.8764 65.1521 88.63 64.1633 91.5234L64.099 91.7039L63.941 91.5991C63.8357 91.5351 63.7245 91.4594 63.6134 91.3895C62.3028 90.5629 61.1444 89.5673 60.1674 88.4903C59.1903 87.4075 58.3771 86.2548 57.7042 85.1021C56.3586 82.7909 55.5454 80.5146 54.9954 78.5876C54.4454 76.6547 54.1588 75.0479 53.9715 73.9476C53.8779 73.4179 53.8077 72.9987 53.7492 72.6785C53.72 72.533 53.6907 72.4282 53.6732 72.3525C53.6439 72.2885 53.6322 72.2477 53.6381 72.2477C53.7024 72.2186 53.8721 72.8299 54.0886 73.9302C54.3167 75.0247 54.6327 76.6198 55.206 78.5352C55.7794 80.4447 56.6043 82.6977 57.95 84.9682C58.6228 86.1034 59.4243 87.2328 60.3897 88.2982C61.3609 89.3519 62.4959 90.33 63.7772 91.1392C63.8884 91.2091 63.9995 91.2789 64.099 91.343L63.8766 91.4245C64.8771 88.5311 65.8249 85.7832 66.685 83.2973L66.7727 83.0354L66.9307 83.2624C69.1364 86.4353 71.0086 89.1307 72.3542 91.0694C72.9978 92.0067 73.5068 92.7635 73.8812 93.3107C74.045 93.5552 74.1737 93.7532 74.279 93.9103C74.3668 94.0501 74.4136 94.1199 74.4078 94.1258Z" fill="#263238"/>
<g opacity="0.3">
<path opacity="0.3" d="M92.7498 121.016C92.0945 127.531 93.5396 134.238 96.8218 139.908C100.098 145.584 104.907 150.637 110.893 153.356C111.086 147.575 110.805 140.764 110.998 134.983L92.7498 121.016Z" fill="black"/>
</g>
<path d="M92.0884 113.407C92.0884 113.407 89.5317 114.112 91.4507 119.334C93.3697 124.55 94.0074 124.236 95.2887 129.12C96.57 133.999 98.0619 138.458 100.303 141.218C102.543 143.977 110.863 149.601 110.863 149.601L118.328 142.597C118.328 142.597 117.1 137.375 117.392 133.83C117.685 130.284 118.434 121.581 118.328 120.096C118.223 118.612 116.62 115.002 116.62 115.002V112.534L112.782 100.78C112.782 100.78 110.647 99.8252 109.904 103.219L108.622 99.6156C108.622 99.6156 106.598 99.2954 106.066 103.435C105.533 107.574 106.493 113.302 106.493 113.302L105.428 120.521L103.831 125.4L102.444 125.61C102.444 125.61 100.355 125.045 99.2145 121.133C98.0619 117.226 94.9669 112.557 92.0884 113.407Z" fill="#FFBE9D"/>
<path d="M115.824 131.862C115.819 131.862 115.807 131.769 115.789 131.594C115.778 131.39 115.76 131.134 115.737 130.814C115.696 130.104 115.643 129.12 115.579 127.892C115.462 125.359 115.304 121.831 115.116 117.715L115.152 117.803C114.806 117.395 114.198 117.273 113.642 117.412C113.075 117.546 112.571 117.896 112.255 118.42C111.606 119.462 111.565 120.824 111.366 122.14C110.962 125.115 110.576 127.944 110.225 130.529C110.05 131.815 109.863 133.044 109.605 134.179C109.359 135.314 109.014 136.351 108.681 137.276C108.353 138.202 108.061 139.04 107.879 139.797C107.698 140.554 107.622 141.217 107.639 141.765C107.663 142.859 107.985 143.418 107.932 143.43C107.92 143.436 107.862 143.296 107.751 143.022C107.663 142.743 107.54 142.324 107.516 141.771C107.481 141.217 107.54 140.53 107.71 139.762C107.879 138.994 108.16 138.144 108.476 137.212C108.798 136.281 109.125 135.262 109.359 134.132C109.599 133.009 109.775 131.786 109.944 130.5C110.29 127.915 110.664 125.085 111.062 122.111C111.156 121.447 111.226 120.795 111.343 120.137C111.46 119.485 111.641 118.833 112.004 118.274C112.343 117.704 112.94 117.284 113.572 117.139C114.198 116.982 114.941 117.121 115.368 117.634L115.397 117.674V117.721C115.538 121.837 115.661 125.365 115.748 127.903C115.778 129.132 115.807 130.115 115.824 130.832C115.83 131.152 115.83 131.408 115.83 131.612C115.836 131.775 115.83 131.862 115.824 131.862Z" fill="#EB996E"/>
<path d="M111.741 118.49C111.723 118.495 111.606 118.263 111.425 117.826C111.249 117.389 111.015 116.743 110.799 115.922C110.582 115.107 110.377 114.112 110.26 113C110.202 112.441 110.161 111.847 110.231 111.23C110.295 110.613 110.477 109.961 110.875 109.408C111.214 108.93 111.694 108.546 112.238 108.389L112.355 108.354L112.413 108.459C113.496 110.357 114.432 112.033 115.093 113.238C115.397 113.803 115.649 114.275 115.859 114.665C116.035 115.002 116.123 115.189 116.105 115.2C116.088 115.212 115.971 115.037 115.766 114.717C115.538 114.345 115.257 113.885 114.923 113.337C114.215 112.156 113.244 110.502 112.15 108.61L112.326 108.68C111.858 108.82 111.43 109.152 111.126 109.588C110.769 110.089 110.594 110.683 110.53 111.265C110.465 111.853 110.494 112.429 110.541 112.976C110.641 114.077 110.816 115.061 111.009 115.876C111.196 116.691 111.395 117.343 111.536 117.791C111.682 118.234 111.764 118.484 111.741 118.49Z" fill="#EB996E"/>
<path d="M109.956 119.45C109.933 119.45 109.909 119.211 109.886 118.775C109.868 118.274 109.839 117.657 109.81 116.929C109.757 115.369 109.71 113.215 109.675 110.834C109.658 108.453 109.564 106.293 109.769 104.727C109.868 103.947 110.026 103.324 110.167 102.911C110.307 102.491 110.424 102.282 110.442 102.288C110.494 102.305 110.114 103.208 109.979 104.756C109.833 106.299 109.956 108.453 109.974 110.834C110.009 113.215 110.02 115.369 110.02 116.929C110.014 117.657 110.003 118.274 109.997 118.781C109.991 119.206 109.979 119.444 109.956 119.45Z" fill="#EB996E"/>
<path d="M103.643 139.017C103.602 138.982 104.065 138.435 104.644 137.44C104.936 136.945 105.235 136.328 105.51 135.629C105.773 134.919 106.013 134.121 106.177 133.266C106.329 132.404 106.381 131.577 106.381 130.82C106.37 130.064 106.305 129.382 106.206 128.824C106.013 127.694 105.767 127.019 105.82 127.001C105.837 126.996 105.913 127.159 106.03 127.461C106.153 127.764 106.288 128.218 106.416 128.783C106.545 129.353 106.633 130.046 106.662 130.815C106.68 131.589 106.627 132.439 106.475 133.318C106.311 134.197 106.06 135.012 105.773 135.728C105.475 136.438 105.147 137.061 104.825 137.55C104.509 138.039 104.222 138.418 104 138.656C103.79 138.901 103.661 139.029 103.643 139.017Z" fill="#EB996E"/>
<path d="M116.749 135.367L123.225 137.602C123.225 137.602 129.41 134.418 133.675 137.602C137.94 140.787 141.643 149.176 140.473 152.57C140.473 152.57 137.53 156.185 135.289 156.715C133.049 157.245 124.343 155.149 120.721 154.387C117.088 153.624 110.851 149.589 110.851 149.589L116.749 135.367Z" fill="#FFBE9D"/>
<path d="M117.545 144.862C117.521 144.862 117.498 144.658 117.475 144.291C117.451 143.855 117.416 143.337 117.381 142.737C117.311 141.421 117.223 139.605 117.194 137.591C117.164 135.576 117.223 133.754 117.346 132.438C117.404 131.781 117.475 131.251 117.539 130.884C117.603 130.517 117.65 130.319 117.673 130.325C117.72 130.331 117.621 131.14 117.556 132.45C117.492 133.76 117.469 135.576 117.498 137.585C117.533 139.553 117.568 141.334 117.592 142.731C117.597 143.389 117.597 143.925 117.586 144.291C117.586 144.658 117.568 144.862 117.545 144.862Z" fill="#EB996E"/>
<path d="M138.905 137.347C138.858 137.393 138.191 136.473 136.752 135.414C135.33 134.354 133.025 133.225 130.299 133.073C127.567 132.928 125.15 133.795 123.623 134.692C122.073 135.588 121.312 136.427 121.271 136.38C121.26 136.368 121.441 136.153 121.804 135.804C122.172 135.454 122.74 134.989 123.512 134.511C125.039 133.551 127.508 132.619 130.316 132.776C133.125 132.934 135.477 134.127 136.887 135.245C137.6 135.804 138.121 136.334 138.443 136.718C138.765 137.108 138.923 137.341 138.905 137.347Z" fill="#263238"/>
<path d="M138.075 131.973C138.034 132.037 137.168 131.164 135.378 130.494C133.617 129.807 130.884 129.493 128.082 130.279C126.684 130.669 125.402 131.222 124.308 131.839C123.214 132.462 122.301 133.143 121.576 133.76C120.851 134.377 120.295 134.919 119.914 135.291C119.534 135.67 119.324 135.873 119.306 135.862C119.294 135.85 119.476 135.617 119.833 135.21C120.189 134.808 120.722 134.243 121.441 133.597C122.155 132.951 123.068 132.241 124.174 131.594C125.279 130.954 126.578 130.378 128.006 129.982C130.879 129.178 133.681 129.539 135.46 130.29C136.361 130.657 137.028 131.082 137.455 131.408C137.677 131.565 137.823 131.717 137.929 131.81C138.028 131.915 138.081 131.967 138.075 131.973Z" fill="#263238"/>
<path d="M138.127 127.316C138.109 127.374 136.98 127.03 135.096 126.78C134.154 126.646 133.025 126.57 131.773 126.57C130.521 126.588 129.146 126.693 127.719 126.931C126.297 127.188 124.969 127.56 123.781 127.968C122.605 128.393 121.57 128.847 120.733 129.295C119.054 130.174 118.106 130.879 118.071 130.832C118.059 130.815 118.288 130.634 118.721 130.314C118.931 130.151 119.2 129.965 119.522 129.767C119.844 129.569 120.207 129.324 120.628 129.109C121.459 128.637 122.5 128.16 123.682 127.712C124.875 127.287 126.221 126.902 127.66 126.64C129.105 126.396 130.498 126.297 131.767 126.297C133.037 126.314 134.178 126.413 135.12 126.576C135.594 126.635 136.015 126.745 136.389 126.821C136.764 126.897 137.08 126.984 137.331 127.06C137.852 127.205 138.133 127.298 138.127 127.316Z" fill="#263238"/>
<path d="M88.4963 70.3092C88.4963 70.3092 88.7946 70.8681 88.9468 72.0208C89.1047 73.1677 89.0813 74.8909 88.701 77.0217C88.508 78.087 88.2505 79.2572 87.8644 80.5089C87.4607 81.7605 86.8522 83.0413 86.1619 84.3803C84.7694 87.0583 83.0084 89.975 80.9782 93.0896L80.7383 93.4564V93.0198C80.7325 90.9647 80.7325 88.8048 80.7267 86.5577L80.9548 86.6683C79.2113 88.0655 77.3801 89.5384 75.4903 91.0578L75.5371 90.988C74.2734 94.9817 73.4368 99.4295 73.1091 104.058C72.5767 111.143 73.0038 117.919 73.3432 124.067C73.6298 130.221 73.8171 135.769 74.0101 140.42C74.1974 145.078 74.367 148.838 74.5074 151.441C74.5835 152.727 74.642 153.735 74.6829 154.433C74.7064 154.765 74.7239 155.021 74.7356 155.213C74.7473 155.388 74.7415 155.481 74.7415 155.481C74.7415 155.481 74.7239 155.394 74.7005 155.219C74.6829 155.033 74.6537 154.771 74.6186 154.445C74.5542 153.764 74.4723 152.751 74.3846 151.452C74.2091 148.85 74.0043 145.089 73.7937 140.432C73.583 135.775 73.3373 130.232 73.0565 124.085C72.7054 117.943 72.2666 111.149 72.799 104.04C73.1325 99.3946 73.9692 94.9235 75.2505 90.9065L75.2622 90.8657L75.2973 90.8366C77.187 89.323 79.0241 87.8559 80.7676 86.4587L80.9958 86.2782V86.5693C80.9899 88.8107 80.9899 90.9705 80.9841 93.0314L80.7442 92.9616C84.7636 86.7614 88.0341 81.3705 88.5372 77.01C88.9409 74.8967 88.9877 73.191 88.8532 72.0441C88.7946 71.4677 88.6835 71.0427 88.6133 70.7517C88.5314 70.4548 88.4963 70.3092 88.4963 70.3092Z" fill="#263238"/>
<path d="M78.0005 145.404L77.7898 145.398C76.9415 145.422 76.1868 146.19 76.1868 147.034C76.1868 147.878 76.9357 148.653 77.7782 148.682C78.6265 148.711 79.428 147.989 79.4807 147.151C79.5451 146.307 78.843 145.486 78.0005 145.404Z" fill="white"/>
<path d="M78.0005 122.967L77.7898 122.961C76.9415 122.984 76.1868 123.753 76.1868 124.597C76.1868 125.441 76.9357 126.215 77.7782 126.244C78.6265 126.274 79.428 125.552 79.4807 124.713C79.5451 123.869 78.843 123.048 78.0005 122.967Z" fill="white"/>
<path d="M77.784 102.893C78.6324 102.922 79.4339 102.201 79.4865 101.362C79.545 100.524 78.843 99.703 78.0005 99.6215L77.7898 99.6157C76.9415 99.639 76.1868 100.407 76.1868 101.252C76.1868 102.09 76.9357 102.864 77.784 102.893Z" fill="white"/>
<path d="M52.5207 44.0184C50.4671 41.7596 48.4019 39.4716 46.9041 36.8169C45.4064 34.1622 44.5171 31.0592 45.0144 28.0552C45.301 26.2971 46.0558 24.6262 46.1728 22.8506C46.3366 20.4055 45.3069 17.8497 46.1728 15.5618C47.536 11.9814 52.3803 11.4284 55.3173 8.95414C57.6049 7.02715 58.7165 3.90088 61.2381 2.27662C63.438 0.861941 66.2638 0.89105 68.8556 1.25782C71.4475 1.62459 74.0568 2.27662 76.6545 1.92731C78.5033 1.67698 80.2468 0.937624 82.0605 0.489351C83.8742 0.0410777 85.8927 -0.0753585 87.5074 0.856118C89.1222 1.78759 90.029 4.06971 88.9701 5.60083C91.9773 4.22108 95.7977 6.55559 96.6227 9.74589C97.4476 12.9362 95.7978 16.3885 93.2469 18.4901C90.696 20.5976 87.4021 21.5756 84.1492 22.1869C74.9344 23.916 64.9416 22.9379 57.0023 17.9778" fill="#263238"/>
<path d="M84.9154 74.8392C84.4649 71.3695 84.0963 68.4761 84.0729 68.1152C84.0729 68.1152 95.7273 65.507 95.0838 53.7821C94.7737 48.1175 93.1765 36.4915 91.6143 25.995C89.9352 14.7241 79.8195 6.6319 68.3932 7.38872L67.2582 7.46441C55.0538 8.9897 49.5425 20.1558 51.4147 32.2533L57.9967 72.8133C57.9967 72.8133 60.805 81.7846 66.8194 83.339L74.4018 94.1208L75.6538 89.4809L81.3055 84.5848C81.3055 84.5848 82.6044 83.1876 84.0905 80.4572C85.3191 78.2275 85.0617 75.9279 84.9154 74.8392Z" fill="#FFBE9D"/>
<path d="M84.0787 67.9463C84.0787 67.9463 76.6776 69.0466 68.4341 64.6279C68.4341 64.6279 72.629 72.8191 84.3068 70.9794L84.0787 67.9463Z" fill="#EB996E"/>
<path d="M89.4731 31.9158C89.28 32.1486 87.9402 31.2928 86.1324 31.4209C84.3245 31.5199 83.0549 32.5329 82.8443 32.3291C82.739 32.236 82.9262 31.8285 83.4762 31.3744C84.0203 30.9203 84.9622 30.4487 86.0914 30.3788C87.2206 30.309 88.1977 30.6583 88.771 31.0483C89.3561 31.4267 89.5667 31.811 89.4731 31.9158Z" fill="#263238"/>
<path d="M71.7105 33.4354C71.5175 33.6683 70.1776 32.8125 68.3698 32.9406C66.562 33.0395 65.2924 34.0525 65.0817 33.8488C64.9764 33.7556 65.1637 33.3481 65.7136 32.894C66.2519 32.4399 67.1997 31.9684 68.323 31.8985C69.4522 31.8286 70.4292 32.1779 71.0026 32.568C71.5876 32.9464 71.8041 33.3306 71.7105 33.4354Z" fill="#263238"/>
<path d="M79.1699 46.3535C79.1523 46.2545 80.264 45.9809 82.0718 45.6316C82.5282 45.5559 82.9611 45.4337 83.0196 45.1135C83.1074 44.7758 82.8792 44.2926 82.6218 43.7687C82.1128 42.6858 81.5804 41.5506 81.0187 40.3571C78.7838 35.496 77.1339 31.4906 77.3328 31.4033C77.5317 31.316 79.4975 35.1816 81.7325 40.0428C82.2707 41.242 82.7856 42.3831 83.277 43.4776C83.4877 43.9899 83.827 44.5604 83.6398 45.2649C83.5403 45.6142 83.2185 45.8878 82.926 45.9867C82.6335 46.0974 82.376 46.1206 82.1479 46.1497C80.3225 46.371 79.1874 46.4525 79.1699 46.3535Z" fill="#263238"/>
<path d="M71.6988 26.3447C71.5525 26.8454 69.733 26.7348 67.6268 27.1306C65.5147 27.4858 63.8414 28.2193 63.5313 27.7943C63.3909 27.5906 63.66 27.1132 64.3212 26.5892C64.9764 26.0711 66.0412 25.5471 67.305 25.3201C68.5687 25.0989 69.7505 25.2211 70.5462 25.4831C71.3419 25.7509 71.7631 26.1118 71.6988 26.3447Z" fill="#263238"/>
<path d="M88.4547 26.7462C88.1621 27.177 86.8867 26.8335 85.3889 26.915C83.8853 26.9442 82.6391 27.375 82.3174 26.9674C82.1769 26.7695 82.3466 26.3445 82.879 25.9195C83.3997 25.5004 84.2949 25.1219 85.3246 25.0812C86.3543 25.0463 87.2728 25.3548 87.8228 25.7391C88.3844 26.1291 88.5834 26.5366 88.4547 26.7462Z" fill="#263238"/>
<path d="M52.9594 40.8694C52.7547 40.7937 44.7101 39.0239 45.5058 47.023C46.3015 55.0162 55.0072 52.4139 55.0013 52.181C54.9896 51.9481 52.9594 40.8694 52.9594 40.8694Z" fill="#FFBE9D"/>
<path d="M51.4385 49.5554C51.4034 49.5321 51.3098 49.666 51.0816 49.7999C50.8593 49.9279 50.4731 50.0386 50.0402 49.9221C49.1626 49.6951 48.3143 48.4259 48.1329 46.988C48.0393 46.2603 48.1271 45.5558 48.326 44.9562C48.5132 44.3449 48.8525 43.9025 49.2738 43.786C49.6892 43.6463 50.0168 43.8734 50.1397 44.0888C50.2684 44.3042 50.2333 44.4672 50.2801 44.473C50.3035 44.4905 50.438 44.3216 50.3444 43.9956C50.2976 43.8384 50.1806 43.6638 49.9758 43.5241C49.7652 43.3843 49.4785 43.3378 49.1802 43.396C48.5658 43.5008 48.0627 44.1237 47.8404 44.7815C47.5829 45.4452 47.4718 46.2428 47.5771 47.0578C47.7877 48.6646 48.7648 50.091 49.9641 50.3064C50.5433 50.3995 50.9997 50.1841 51.222 49.9687C51.4443 49.7475 51.4678 49.567 51.4385 49.5554Z" fill="#EB996E"/>
<path d="M91.0239 15.0731C90.474 18.2575 83.9856 21.1684 78.6089 21.017C73.6534 20.8715 71.202 18.4264 67.598 16.6857C65.3163 15.5854 65.3163 15.5854 62.2271 16.086C59.7231 16.4936 58.4301 19.4277 57.026 21.5294C59.6997 27.3336 58.6173 34.081 57.4882 40.3685C57.3653 41.0612 57.2073 41.8122 56.6749 42.278C55.7739 43.0697 54.3054 42.5982 53.422 41.789C52.0003 40.4965 51.3509 38.5695 50.8887 36.7124C49.8297 32.4742 49.4201 28.0322 50.093 23.7125C50.7658 19.3928 52.5619 15.2011 55.5282 11.9759C59.2316 7.94726 64.6493 5.62439 70.1313 5.34495C75.6134 5.0655 81.1188 6.7538 85.7057 9.74617C87.8295 11.1259 89.8187 12.8433 91.0239 15.0731Z" fill="#263238"/>
<path d="M80.3581 50.3987C78.9949 49.7642 77.6259 49.1296 76.2627 48.5008C76.0287 48.3902 75.7771 48.2796 75.5197 48.3145C75.2271 48.3553 74.999 48.5707 74.8117 48.7919C73.8639 49.9388 73.6241 51.662 74.3554 52.9545C75.0926 54.2469 76.8185 54.928 78.1993 54.3575C79.6502 53.7579 80.3581 52.0812 80.4693 50.521L80.3581 50.3987Z" fill="#EB996E"/>
<path d="M78.3279 54.6488C78.3396 54.6838 78.1407 54.8002 77.7312 54.8875C77.3275 54.9632 76.6956 54.9981 75.9701 54.7594C75.2505 54.5324 74.4373 53.9735 73.9341 53.077C73.4251 52.2037 73.2379 50.9753 73.6826 49.8634C73.8932 49.3103 74.2267 48.8213 74.6304 48.437C74.8351 48.2449 75.0516 48.0819 75.2973 47.9364C75.426 47.8665 75.584 47.7966 75.7712 47.785C75.9526 47.7734 76.1164 47.8199 76.2451 47.8781C76.5143 47.9946 76.6839 48.1227 76.8828 48.2391C77.0759 48.3555 77.2573 48.472 77.4386 48.5826C77.7897 48.8038 78.1232 49.0076 78.4332 49.2055C79.6502 49.974 80.3756 50.4805 80.3347 50.5561C80.2937 50.626 79.4864 50.2476 78.2168 49.5781C77.895 49.4034 77.5498 49.2172 77.1812 49.0192C76.994 48.9144 76.8009 48.8096 76.6079 48.7048C76.4148 48.6 76.1983 48.4661 76.0287 48.4021C75.8414 48.3381 75.7595 48.3439 75.5782 48.4429C75.3968 48.5535 75.2037 48.7048 75.0399 48.8678C74.7006 49.1997 74.4256 49.613 74.2442 50.0846C73.8698 51.0219 74.0044 52.0407 74.4197 52.815C74.8293 53.5951 75.4904 54.1074 76.1106 54.3636C76.7366 54.6255 77.3099 54.6605 77.6961 54.6605C78.0939 54.643 78.3104 54.6081 78.3279 54.6488Z" fill="#263238"/>
<path d="M77.0346 36.2756C76.9878 36.2815 77.0404 35.5304 76.7128 34.2497C76.391 32.998 75.5485 31.1525 73.6529 29.7204C72.711 29.0218 71.5292 28.4338 70.166 28.1951C68.8145 27.968 67.2816 28.0088 65.8306 28.5618C65.0993 28.818 64.3914 29.1964 63.7478 29.6796C63.0926 30.1512 62.4958 30.7392 62.0044 31.4203C60.9922 32.7651 60.4188 34.4884 60.4013 36.264C60.4188 38.0396 60.9863 39.7687 62.0044 41.1135C62.4958 41.7946 63.0926 42.3826 63.7478 42.86C64.3972 43.3432 65.0993 43.7274 65.8306 43.9778C67.2816 44.5308 68.8145 44.5716 70.166 44.3445C71.5292 44.1059 72.711 43.5179 73.6529 42.8192C75.5485 41.3929 76.391 39.5474 76.7128 38.2899C77.0404 37.015 76.9878 36.2698 77.0346 36.2756C77.0404 36.2756 77.0404 36.3222 77.0404 36.4095C77.0404 36.5201 77.0346 36.6482 77.0346 36.8054C77.0346 36.9801 77.0287 37.1955 76.9819 37.4516C76.9468 37.7078 76.9176 37.9989 76.824 38.3249C76.6894 38.9769 76.391 39.7512 75.9171 40.5779C75.4374 41.3987 74.7411 42.2604 73.7816 42.9939C72.828 43.7216 71.6169 44.3387 70.2128 44.5949C68.8203 44.8394 67.2406 44.8045 65.737 44.2456C64.9765 43.9894 64.2451 43.5935 63.5723 43.0987C62.8936 42.6097 62.2735 42.0042 61.7645 41.2998C60.7114 39.9084 60.1146 38.1211 60.097 36.2756C60.1146 34.4301 60.7114 32.6429 61.7645 31.2515C62.2735 30.547 62.8936 29.9416 63.5723 29.4526C64.2451 28.9577 64.9765 28.5618 65.737 28.3057C67.2465 27.741 68.8203 27.706 70.2128 27.9564C71.6169 28.2125 72.828 28.8355 73.7816 29.5574C74.7411 30.2909 75.4374 31.1525 75.9171 31.9734C76.391 32.8001 76.6894 33.5743 76.824 34.2264C76.9176 34.5466 76.9468 34.8435 76.9819 35.0996C77.0229 35.3558 77.0346 35.5712 77.0346 35.7459C77.0346 35.903 77.0404 36.0369 77.0404 36.1417C77.0404 36.229 77.0404 36.2756 77.0346 36.2756Z" fill="#263238"/>
<path d="M97.0672 35.4896C97.0204 35.4955 97.0731 34.7619 96.7513 33.5161C96.4353 32.2935 95.6163 30.4946 93.7675 29.109C92.8548 28.4279 91.7022 27.8515 90.3741 27.6245C89.0577 27.4033 87.5658 27.444 86.15 27.9854C85.4362 28.2299 84.7517 28.6025 84.1198 29.0741C83.4821 29.534 82.9029 30.1104 82.4231 30.774C81.4344 32.0839 80.8786 33.7606 80.861 35.4955C80.8786 37.2303 81.4344 38.907 82.4173 40.2169C82.897 40.8806 83.4762 41.4511 84.114 41.9168C84.7458 42.3884 85.4303 42.761 86.1441 43.0055C87.56 43.5411 89.046 43.5877 90.3683 43.3664C91.6963 43.1336 92.8489 42.5572 93.7616 41.8819C95.6104 40.4905 96.4295 38.6974 96.7396 37.4748C97.0731 36.2174 97.0204 35.4838 97.0672 35.4896C97.0789 35.4896 97.0789 35.6701 97.0731 36.0078C97.0731 36.1766 97.0672 36.392 97.0263 36.6365C96.9912 36.8869 96.9619 37.1721 96.8741 37.4865C96.5875 38.7323 95.7859 40.5895 93.9079 42.0391C92.9776 42.7493 91.7958 43.3548 90.4268 43.5993C89.0694 43.838 87.5307 43.8031 86.0622 43.2558C85.325 43.0055 84.6113 42.6213 83.956 42.1322C83.2949 41.6549 82.6923 41.0669 82.195 40.3799C81.1652 39.0234 80.586 37.2827 80.5743 35.4838C80.5919 33.6849 81.1711 31.9442 82.2008 30.5877C82.6981 29.9008 83.3007 29.307 83.9618 28.8354C84.6171 28.3522 85.3309 27.968 86.0681 27.7176C87.5366 27.1704 89.0753 27.1355 90.4326 27.3741C91.8017 27.6245 92.9835 28.2299 93.9137 28.9344C95.7918 30.384 96.5933 32.2353 96.88 33.487C96.9677 33.8013 97.0029 34.0866 97.0321 34.3369C97.0731 34.5815 97.0848 34.7969 97.0789 34.9657C97.0789 35.3092 97.0789 35.4896 97.0672 35.4896Z" fill="#263238"/>
<path d="M80.7204 33.6499C80.6853 33.6848 80.4923 33.5218 80.1412 33.353C79.7902 33.1842 79.2636 33.0212 78.6669 33.0328C78.0759 33.0386 77.5494 33.2249 77.2042 33.4054C76.8532 33.5859 76.6718 33.7547 76.6367 33.7256C76.6074 33.7023 76.742 33.4694 77.093 33.2249C77.4382 32.9804 77.9999 32.7417 78.661 32.7301C79.3163 32.7184 79.8896 32.9338 80.2465 33.1667C80.5976 33.3996 80.7438 33.6266 80.7204 33.6499Z" fill="#263238"/>
<path d="M60.7584 35.0879C60.8111 35.1577 59.167 36.4618 57.0901 37.9987C55.0131 39.5415 53.293 40.7349 53.2404 40.6709C53.1877 40.601 54.8317 39.297 56.9087 37.76C58.9857 36.2173 60.7116 35.018 60.7584 35.0879Z" fill="#263238"/>
<g opacity="0.3">
<path opacity="0.3" d="M53.8373 72.9756C53.0241 80.8757 56.043 89.2182 62.4085 94.0037C62.9058 94.3821 63.5376 94.7488 64.1227 94.5393C64.5322 94.3937 64.7955 94.0037 65.012 93.6252C66.8257 90.499 67.4341 87.0467 66.9134 83.4722C65.9071 86.1152 65.0412 88.7059 64.0232 91.4712C58.471 88.1237 55.0133 80.9979 53.8373 72.9756Z" fill="black"/>
</g>
<path opacity="0.3" d="M75.397 90.9414L80.0716 89.2414L80.8439 97.1066C80.8439 97.1066 85.8871 87.9606 87.9758 83.7865C90.0645 79.6123 88.988 72.2478 88.988 72.2478C88.988 72.2478 89.7369 78.6634 84.6819 86.8429L80.8673 93.0139V86.5518L75.397 90.9414Z" fill="black"/>
<g opacity="0.3">
<path opacity="0.3" d="M21.0326 130.913C18.9498 129.935 16.551 129.802 14.2634 130.069C11.8471 130.349 9.4191 131.088 7.5235 132.608C5.6279 134.127 4.34661 136.526 4.58064 138.936L4.81466 138.971C6.44698 134.581 9.68822 131.385 13.8714 130.995C18.0546 130.611 22.1325 132.462 25.0051 135.513C24.7243 133.231 23.1212 131.892 21.0326 130.913Z" fill="black"/>
</g>
<g opacity="0.3">
<path opacity="0.3" d="M139.209 135.402C137.642 133.719 135.442 132.701 133.172 132.305C129.187 131.612 124.911 132.846 121.909 135.548L122.798 134.826C125.063 133.504 127.672 132.724 130.299 132.8C132.92 132.875 135.547 133.842 137.448 135.641C139.198 137.294 140.245 139.535 141.245 141.719C141.643 139.466 140.777 137.084 139.209 135.402Z" fill="black"/>
</g>
<path d="M109.085 98.8766C109.067 98.8708 109.143 98.6437 109.295 98.242C109.476 97.7821 109.699 97.2174 109.962 96.5479C110.53 95.1216 111.302 93.148 112.127 90.9591C112.946 88.7643 113.654 86.7674 114.163 85.3178C114.403 84.6425 114.608 84.072 114.771 83.6062C114.918 83.2045 115.011 82.9833 115.029 82.9891C115.046 82.9949 114.994 83.2278 114.882 83.6412C114.771 84.0545 114.596 84.6541 114.368 85.3877C113.911 86.8547 113.233 88.8691 112.414 91.0639C111.594 93.2586 110.781 95.2206 110.167 96.6294C109.857 97.3338 109.599 97.8986 109.412 98.2886C109.219 98.6728 109.102 98.8882 109.085 98.8766Z" fill="#263238"/>
<path d="M35.3261 99.4471C35.2442 99.4646 34.6065 96.6934 33.9044 93.2586C33.2023 89.8238 32.6992 87.0294 32.7811 87.0119C32.863 86.9945 33.5007 89.7656 34.2028 93.2004C34.9048 96.6352 35.408 99.4297 35.3261 99.4471Z" fill="#263238"/>
<path d="M34.2204 134.081C34.4077 134.174 32.0791 115.94 32.0791 115.94C32.0791 115.94 33.5476 102.102 34.3726 101.462L34.396 96.5772C34.396 96.5772 36.6718 95.2032 37.2803 97.4213C37.2803 97.4213 39.2988 95.6806 39.6498 99.8257C40.0008 103.977 40.0769 108.215 40.0769 108.215L44.5643 119.381L45.3015 119.753C45.3015 119.753 46.2669 111.003 46.8285 109.717C47.3902 108.43 47.7763 105.298 49.9001 105.77C52.0297 106.241 52.2052 107.994 51.825 110.846C51.4447 113.699 50.9649 116.645 51.1463 118.49C51.3218 120.336 52.1643 124.393 51.9069 127.613C51.6494 130.838 49.8767 134.238 48.0104 136.625C46.1499 139.012 42.5927 143.949 40.6561 145.439C39.9774 145.963 34.2204 134.081 34.2204 134.081Z" fill="#FFBE9D"/>
<path d="M36.4904 119.241C36.467 119.241 36.4728 118.962 36.5021 118.461C36.543 117.902 36.5898 117.192 36.6483 116.342C36.7829 114.555 36.9935 112.086 37.2451 109.362C37.3738 108.005 37.4967 106.707 37.6078 105.525C37.6663 104.937 37.7014 104.384 37.6254 103.878C37.5552 103.371 37.3563 102.935 37.0637 102.62C36.4728 101.98 35.7064 101.817 35.2325 101.823C34.7352 101.817 34.4778 101.951 34.4661 101.922C34.4602 101.91 34.5246 101.881 34.6474 101.829C34.7761 101.782 34.9692 101.724 35.2266 101.706C35.7298 101.671 36.5489 101.799 37.2217 102.481C37.5552 102.818 37.7892 103.307 37.8711 103.843C37.9647 104.384 37.9296 104.961 37.8828 105.554C37.7775 106.742 37.6605 108.034 37.5435 109.397C37.2919 112.121 37.0462 114.584 36.859 116.365C36.7595 117.21 36.6776 117.92 36.6132 118.473C36.5547 118.968 36.5079 119.241 36.4904 119.241Z" fill="#EB996E"/>
<path d="M38.901 111.783C38.9478 111.818 38.4446 112.255 38.1053 113.221C37.7426 114.17 37.6138 115.602 37.3564 117.157C37.1165 118.717 36.8767 120.126 36.6953 121.139C36.5081 122.158 36.3735 122.781 36.3326 122.775C36.2916 122.769 36.3501 122.128 36.4847 121.104C36.6134 120.079 36.8182 118.665 37.058 117.104C37.3096 115.556 37.4734 114.118 37.9064 113.134C38.1112 112.645 38.3569 112.29 38.5558 112.069C38.7489 111.859 38.8893 111.772 38.901 111.783Z" fill="#EB996E"/>
<path d="M37.2511 97.1829C37.2745 97.177 37.3271 97.3808 37.409 97.7592C37.4909 98.1318 37.5904 98.6732 37.7016 99.3485C37.9239 100.693 38.1696 102.562 38.3276 104.64C38.4797 106.719 38.5148 108.605 38.4914 109.967C38.4797 110.649 38.4621 111.202 38.4329 111.58C38.4095 111.958 38.3861 112.168 38.3627 112.168C38.3159 112.168 38.31 111.324 38.2749 109.967C38.2398 108.605 38.1754 106.73 38.0233 104.664C37.8712 102.597 37.6606 100.728 37.4909 99.3776C37.3213 98.0212 37.2101 97.1887 37.2511 97.1829Z" fill="#EB996E"/>
<path d="M50.1983 114.275C50.2451 114.345 49.543 114.665 48.6888 114.403C47.8287 114.147 47.4309 113.489 47.507 113.46C47.5772 113.402 48.0218 113.897 48.7765 114.118C49.5254 114.351 50.1749 114.188 50.1983 114.275Z" fill="#EB996E"/>
<path d="M34.472 131.81L22.6128 136.771H15.5452C15.5452 136.771 8.55959 138.942 7.48308 145.457C6.40656 151.977 6.25445 155.33 9.32603 156.134C12.3976 156.937 21.0741 157.03 25.3743 155.61C29.6745 154.189 40.9428 145.142 40.9428 145.142L42.031 138.599L34.472 131.81Z" fill="#FFBE9D"/>
<path d="M37.2513 139.018C37.2338 139.029 37.1167 138.924 36.912 138.709C36.7013 138.505 36.4439 138.168 36.1397 137.737C35.5546 136.864 34.9111 135.542 34.484 134.005C34.0393 132.468 33.8521 131.03 33.7526 129.994C33.6649 128.958 33.6649 128.311 33.7058 128.306C33.7526 128.3 33.8228 128.94 33.9632 129.965C34.1154 130.989 34.3377 132.404 34.7706 133.918C35.1919 135.437 35.7887 136.735 36.3152 137.62C36.8593 138.499 37.2923 138.977 37.2513 139.018Z" fill="#EB996E"/>
<path d="M42.4168 141.084C42.3525 141.061 42.8849 140.164 43.0896 138.552C43.1891 137.754 43.1774 136.782 42.9492 135.74C42.721 134.698 42.2237 133.627 41.4983 132.625C40.7786 131.618 39.9654 130.745 39.2867 129.901C38.5964 129.057 38.0464 128.236 37.6837 127.491C37.3209 126.745 37.1513 126.087 37.0869 125.628C37.0284 125.168 37.0518 124.911 37.0693 124.911C37.1278 124.9 37.1103 125.954 37.8767 127.392C38.2512 128.108 38.8128 128.899 39.5032 129.72C40.1936 130.547 41.0127 131.42 41.7498 132.445C42.4929 133.464 43.0136 134.593 43.2301 135.67C43.4524 136.747 43.4348 137.754 43.3061 138.569C43.1774 139.39 42.9492 140.025 42.762 140.444C42.6742 140.653 42.5865 140.811 42.5221 140.915C42.4578 141.038 42.4227 141.09 42.4168 141.084Z" fill="#EB996E"/>
<path d="M24.1335 112.674C24.0575 112.715 22.7645 110.368 21.2433 107.44C19.7222 104.512 18.5521 102.107 18.6223 102.067C18.6983 102.026 19.9913 104.372 21.5125 107.3C23.0336 110.229 24.2096 112.633 24.1335 112.674Z" fill="white"/>
<path d="M43.3118 91.4307C43.2357 91.3958 44.0372 89.4455 45.0962 87.0702C46.161 84.695 47.0854 82.7971 47.1614 82.832C47.2375 82.8669 46.436 84.8172 45.377 87.1925C44.3122 89.5678 43.3878 91.4657 43.3118 91.4307Z" fill="white"/>
<path d="M62.0927 105.216C62.0283 105.268 60.8231 103.929 59.4072 102.224C57.9855 100.518 56.8915 99.0915 56.9558 99.0391C57.0202 98.9867 58.2254 100.326 59.6413 102.031C61.0571 103.737 62.1571 105.164 62.0927 105.216Z" fill="white"/>
<path d="M57.7688 124.178C57.6986 124.131 58.6055 122.769 59.7932 121.139C60.9808 119.509 61.9988 118.228 62.0632 118.28C62.1334 118.327 61.2266 119.689 60.0389 121.319C58.857 122.95 57.839 124.23 57.7688 124.178Z" fill="white"/>
<path d="M51.9532 150.964C51.9181 150.981 51.649 150.539 51.2687 149.793C50.8826 149.048 50.3853 148.006 49.888 146.836C49.3848 145.66 48.9811 144.583 48.7062 143.791C48.437 142.999 48.2966 142.499 48.3376 142.487C48.3785 142.476 48.5892 142.947 48.9109 143.716C49.2795 144.589 49.7008 145.602 50.1688 146.72C50.6486 147.832 51.0874 148.833 51.4677 149.706C51.7953 150.463 51.9942 150.94 51.9532 150.964Z" fill="white"/>
<path d="M68.4758 139.576C68.4583 139.658 66.8669 139.419 64.9245 139.047C62.9762 138.674 61.4141 138.301 61.4317 138.22C61.4492 138.138 63.0406 138.377 64.983 138.75C66.9313 139.122 68.4934 139.495 68.4758 139.576Z" fill="white"/>
<path d="M81.2944 114.549C81.2301 114.491 82.7512 112.767 84.6819 110.689C86.6127 108.617 88.2333 106.981 88.2918 107.039C88.3562 107.097 86.835 108.82 84.9043 110.899C82.9677 112.971 81.353 114.607 81.2944 114.549Z" fill="white"/>
<path d="M94.1833 147.925C94.1189 147.977 92.2292 145.8 89.9591 143.058C87.6891 140.316 85.9046 138.051 85.969 137.999C86.0333 137.946 87.9231 140.124 90.1931 142.866C92.4632 145.608 94.2476 147.872 94.1833 147.925Z" fill="white"/>
<path d="M14.1583 133.702C14.1993 133.784 12.4733 134.657 10.5894 136.095C8.69969 137.521 7.395 138.953 7.32479 138.889C7.29554 138.866 7.58222 138.476 8.12048 137.9C8.65288 137.329 9.44857 136.584 10.4022 135.856C11.3559 135.134 12.292 134.57 12.9882 134.203C13.6844 133.842 14.1408 133.667 14.1583 133.702Z" fill="white"/>
<path d="M18.9795 120.836C19.0497 120.883 18.4354 121.925 17.6046 123.165C16.7738 124.405 16.0483 125.371 15.9781 125.325C15.9079 125.278 16.5222 124.236 17.353 122.996C18.178 121.756 18.9093 120.789 18.9795 120.836Z" fill="white"/>
<path d="M29.838 133.469C29.7736 133.51 29.1593 132.491 28.8434 131.076C28.5157 129.667 28.6269 128.486 28.703 128.491C28.7966 128.491 28.8258 129.638 29.1418 131.006C29.446 132.38 29.9199 133.428 29.838 133.469Z" fill="white"/>
<path d="M31.447 93.3457C31.4587 93.4272 30.4524 93.6426 29.1945 93.8172C27.9367 93.9977 26.9069 94.0734 26.8952 93.9919C26.8835 93.9104 27.8899 93.695 29.1477 93.5203C30.4056 93.3398 31.4353 93.2642 31.447 93.3457Z" fill="white"/>
<path d="M39.6026 78.949C39.6435 79.0247 38.7601 79.5894 37.6309 80.2123C36.5017 80.8353 35.5481 81.2835 35.5071 81.2079C35.4662 81.1322 36.3496 80.5675 37.4788 79.9445C38.6138 79.3216 39.5616 78.8792 39.6026 78.949Z" fill="white"/>
<path d="M62.5432 85.0322C62.4789 85.0846 61.4667 83.8737 60.2849 82.3309C59.1031 80.7882 58.2021 79.5015 58.2723 79.4491C58.3366 79.3968 59.3488 80.6077 60.5306 82.1504C61.7066 83.6874 62.6134 84.9798 62.5432 85.0322Z" fill="white"/>
<path d="M91.6619 99.5053C91.6034 99.5577 90.5385 98.4691 89.5556 96.8856C88.561 95.302 88.052 93.8757 88.1222 93.8466C88.2042 93.8117 88.836 95.1681 89.8131 96.7284C90.7901 98.2886 91.7321 99.4471 91.6619 99.5053Z" fill="white"/>
<path d="M102.778 103.15C102.854 103.185 102.315 104.535 101.572 106.159C100.829 107.79 100.168 109.082 100.086 109.047C100.01 109.012 100.549 107.661 101.292 106.037C102.035 104.407 102.702 103.115 102.778 103.15Z" fill="white"/>
<path d="M104.334 88.054C104.27 88.1064 102.947 86.6335 101.379 84.7589C99.8114 82.8843 98.5945 81.3183 98.6588 81.2659C98.7232 81.2135 100.045 82.6864 101.613 84.561C103.175 86.4414 104.398 88.0016 104.334 88.054Z" fill="white"/>
<path d="M87.3557 75.7934C87.2738 75.7992 87.1509 74.5359 87.0924 72.9699C87.0281 71.4096 87.0515 70.1405 87.1334 70.1347C87.2153 70.1288 87.3381 71.3922 87.3966 72.9582C87.461 74.5243 87.4434 75.7934 87.3557 75.7934Z" fill="white"/>
<path d="M101.198 75.0309C101.21 75.1124 99.5893 75.3977 97.5884 75.6655C95.5816 75.9333 93.9493 76.0788 93.9376 75.9973C93.9259 75.9158 95.5406 75.6305 97.5474 75.3627C99.5483 75.0949 101.187 74.9494 101.198 75.0309Z" fill="white"/>
<path d="M122.997 90.9649C122.921 90.9998 121.95 89.1543 120.821 86.8431C119.698 84.5319 118.843 82.6223 118.919 82.5874C118.995 82.5525 119.967 84.398 121.096 86.7092C122.219 89.0204 123.073 90.9299 122.997 90.9649Z" fill="white"/>
<path d="M119.323 104.733C119.242 104.716 119.47 103.231 119.832 101.421C120.195 99.6041 120.558 98.1487 120.64 98.1662C120.722 98.1836 120.493 99.6682 120.131 101.479C119.768 103.289 119.411 104.751 119.323 104.733Z" fill="white"/>
<path d="M129.439 115.585C129.357 115.614 128.585 113.611 127.701 111.114C126.824 108.616 126.174 106.567 126.256 106.538C126.338 106.509 127.111 108.511 127.994 111.009C128.872 113.512 129.515 115.556 129.439 115.585Z" fill="white"/>
<path d="M128.029 121.936C128.011 122.012 126.613 121.721 125.074 120.882C123.53 120.056 122.518 119.049 122.576 118.996C122.635 118.926 123.711 119.811 125.221 120.62C126.718 121.43 128.058 121.849 128.029 121.936Z" fill="white"/>
<path d="M140.982 136.409C140.906 136.444 140.438 135.56 139.935 134.436C139.431 133.312 139.086 132.375 139.162 132.34C139.238 132.305 139.706 133.19 140.21 134.314C140.713 135.437 141.058 136.375 140.982 136.409Z" fill="white"/>
<path d="M64.4793 156.599C64.3974 156.611 64.1926 155.452 64.0229 154.02C63.8532 152.588 63.7889 151.418 63.8708 151.406C63.9527 151.394 64.1575 152.553 64.3272 153.985C64.4968 155.417 64.5612 156.587 64.4793 156.599Z" fill="white"/>
<path d="M104.223 155.598C104.141 155.58 104.311 154.451 104.603 153.077C104.896 151.703 105.2 150.603 105.282 150.62C105.364 150.638 105.194 151.767 104.902 153.141C104.609 154.515 104.305 155.615 104.223 155.598Z" fill="white"/>
</svg>
