<svg width="12" height="3" viewBox="0 0 12 3" fill="none" xmlns="http://www.w3.org/2000/svg">
<path d="M10.2069 2.68063C9.5086 2.68063 8.94254 2.11493 8.94254 1.4171C8.94254 0.719268 9.5086 0.153564 10.2069 0.153564C10.9052 0.153564 11.4713 0.719268 11.4713 1.4171C11.4713 2.11493 10.9052 2.68063 10.2069 2.68063Z" fill="#2D2442"/>
<path d="M6.20254 2.68063C5.50424 2.68063 4.93817 2.11493 4.93817 1.4171C4.93817 0.719268 5.50424 0.153564 6.20254 0.153564C6.90085 0.153564 7.46695 0.719268 7.46695 1.4171C7.46695 2.11493 6.90085 2.68063 6.20254 2.68063Z" fill="#2D2442"/>
<path d="M2.20273 2.68063C1.50442 2.68063 0.938354 2.11493 0.938354 1.4171C0.938354 0.719268 1.50442 0.153564 2.20273 0.153564C2.90103 0.153564 3.46713 0.719268 3.46713 1.4171C3.46713 2.11493 2.90103 2.68063 2.20273 2.68063Z" fill="#2D2442"/>
</svg>
