<svg width="71" height="70" viewBox="0 0 71 70" fill="none" xmlns="http://www.w3.org/2000/svg">
<rect x="0.333984" width="70" height="70" rx="10" fill="#F8F2FF"/>
<path d="M36.6725 28.236C35.9284 28.9785 34.7224 28.9785 33.9783 28.236C33.2344 27.4935 33.2344 26.2896 33.9783 25.5471C34.7224 24.8046 35.9284 24.8046 36.6725 25.5471C37.4163 26.2896 37.4163 27.4935 36.6725 28.236Z" fill="#9C4DF4"/>
<path d="M39.2747 31.1168C39.0426 31.1168 38.8105 31.0283 38.6338 30.8509C38.2804 30.497 38.2811 29.9237 38.6349 29.5705C39.352 28.8548 39.7468 27.9033 39.7468 26.8915C39.7468 25.8796 39.352 24.9281 38.6349 24.2124C38.2811 23.859 38.2804 23.2859 38.6338 22.9318C38.987 22.578 39.5603 22.5773 39.9142 22.9307C40.9741 23.9886 41.5578 25.395 41.5578 26.8915C41.5578 28.3877 40.9741 29.7944 39.9142 30.8523C39.7375 31.0287 39.5061 31.1168 39.2747 31.1168Z" fill="#9C4DF4"/>
<path d="M41.323 33.7827C41.0909 33.7827 40.8588 33.6941 40.6821 33.5169C40.3287 33.1628 40.3294 32.5897 40.6833 32.2363C42.1138 30.8086 42.9018 28.9104 42.9018 26.8915C42.9018 24.8725 42.1138 22.9744 40.6833 21.5466C40.3294 21.1932 40.3287 20.6201 40.6821 20.266C41.0355 19.9122 41.6086 19.9115 41.9625 20.2649C43.7359 22.0348 44.7127 24.3882 44.7125 26.8915C44.7125 29.3948 43.7359 31.7483 41.9625 33.5183C41.7858 33.6945 41.5544 33.7827 41.323 33.7827Z" fill="#9C4DF4"/>
<path d="M31.3712 31.1164C31.1398 31.1164 30.9084 31.0283 30.7315 30.8519C29.6715 29.794 29.0879 28.3873 29.0879 26.8911C29.0879 25.3946 29.6715 23.9882 30.7315 22.9303C31.0853 22.5769 31.6587 22.5773 32.0119 22.9314C32.3653 23.2853 32.3646 23.8586 32.0107 24.212C31.2936 24.9277 30.8988 25.8792 30.8988 26.8911C30.8988 27.9029 31.2936 28.8544 32.0107 29.5701C32.3646 29.9233 32.3653 30.4966 32.0119 30.8505C31.8352 31.0276 31.6031 31.1164 31.3712 31.1164Z" fill="#9C4DF4"/>
<path d="M29.3233 33.7835C29.0917 33.7835 28.8603 33.6954 28.6836 33.5189C26.9102 31.749 25.9336 29.3956 25.9336 26.8923C25.9336 24.3888 26.9102 22.0355 28.6836 20.2655C29.0375 19.9123 29.6108 19.9128 29.964 20.2669C30.3174 20.6207 30.3167 21.1939 29.9628 21.5472C28.5323 22.975 27.7443 24.8731 27.7443 26.8921C27.7443 28.9111 28.5323 30.8094 29.9628 32.2372C30.3167 32.5906 30.3174 33.1637 29.964 33.5178C29.7873 33.6949 29.5552 33.7835 29.3233 33.7835Z" fill="#9C4DF4"/>
<path d="M47.2566 35.3479H23.3896C22.2197 35.3479 21.2715 36.2962 21.2715 37.4657V47.8819C21.2715 49.0517 22.2197 50 23.3896 50H47.2564C48.4262 50 49.3744 49.0517 49.3744 47.8819V37.4657C49.3744 36.2962 48.4262 35.3479 47.2566 35.3479ZM28.2366 47.2825H24.9006C24.4007 47.2825 23.9954 46.8771 23.9954 46.377V38.9709C23.9954 38.471 24.4007 38.0654 24.9006 38.0654C25.4007 38.0654 25.8061 38.4708 25.8061 38.9709V45.4715H28.2366C28.7367 45.4715 29.142 45.8769 29.142 46.377C29.142 46.8771 28.7367 47.2825 28.2366 47.2825ZM31.9472 46.377C31.9472 46.8771 31.5418 47.2825 31.0417 47.2825C30.5416 47.2825 30.1363 46.8771 30.1363 46.377V38.9709C30.1363 38.471 30.5416 38.0654 31.0417 38.0654C31.5418 38.0654 31.9472 38.4708 31.9472 38.9709V46.377ZM39.5653 39.2327L37.3293 46.6386C37.3291 46.6393 37.3289 46.64 37.3287 46.6407C37.0858 47.4695 35.8478 47.4491 35.5965 46.6407C35.5963 46.64 35.596 46.6393 35.5958 46.6386L33.3599 39.2327C33.2154 38.7539 33.4862 38.2487 33.965 38.1041C34.4434 37.9597 34.949 38.2304 35.0934 38.7093L36.4626 43.2441L37.8317 38.7093C37.9764 38.2304 38.4815 37.9594 38.9603 38.1041C39.4389 38.2487 39.7099 38.7539 39.5653 39.2327ZM45.1356 41.3022C45.6357 41.3022 46.041 41.7076 46.041 42.2077C46.041 42.7076 45.6357 43.1132 45.1356 43.1132H42.5661V45.4715H45.6233C46.1234 45.4715 46.5288 45.8769 46.5288 46.377C46.5288 46.8771 46.1234 47.2825 45.6233 47.2825H41.6607C41.1606 47.2825 40.7552 46.8771 40.7552 46.377V38.9709C40.7552 38.471 41.1606 38.0654 41.6607 38.0654H45.7453C46.2452 38.0654 46.6508 38.4708 46.6508 38.9709C46.6508 39.471 46.2452 39.8763 45.7453 39.8763H42.5659V41.3022H45.1356Z" fill="#9C4DF4"/>
</svg>
