<svg width="22" height="19" viewBox="0 0 22 19" fill="none" xmlns="http://www.w3.org/2000/svg">
<g clip-path="url(#clip0_59_8451)">
<path d="M20.9205 17.3729C20.9677 17.3734 21.0145 17.3642 21.058 17.346C21.1015 17.3279 21.1408 17.301 21.1733 17.2672C21.2059 17.2334 21.2311 17.1933 21.2474 17.1494C21.2637 17.1055 21.2706 17.0588 21.2679 17.0121C21.2679 16.7563 21.112 16.634 20.7922 16.634H20.2754V17.9736H20.4698V17.3897H20.7086L20.7141 17.3968L21.0848 17.9736H21.2926L20.8938 17.3766L20.9205 17.3729ZM20.6957 17.2387H20.4703V16.7859H20.756C20.9036 16.7859 21.0718 16.8097 21.0718 17.0011C21.0718 17.2211 20.9016 17.2387 20.6946 17.2387" fill="#0A033C"/>
<path d="M15.8502 15.694H13.0939V11.42C13.0939 10.4008 13.0756 9.08882 11.6604 9.08882C10.2248 9.08882 10.0051 10.1993 10.0051 11.3458V15.6937H7.24881V6.90463H9.89488V8.10575H9.93192C10.1967 7.65744 10.5794 7.28864 11.0391 7.03863C11.4989 6.78861 12.0185 6.66675 12.5427 6.68602C15.3363 6.68602 15.8514 8.50546 15.8514 10.8724L15.8502 15.694ZM4.13878 5.70323C3.82242 5.70329 3.51314 5.61046 3.25007 5.43647C2.987 5.26249 2.78195 5.01518 2.66084 4.7258C2.53972 4.43643 2.50798 4.11799 2.56964 3.81076C2.6313 3.50353 2.7836 3.2213 3.00726 2.99976C3.23091 2.77823 3.5159 2.62734 3.82616 2.56617C4.13643 2.50501 4.45804 2.53632 4.75033 2.65614C5.04263 2.77596 5.29248 2.97891 5.46828 3.23932C5.64409 3.49974 5.73796 3.80593 5.73802 4.11917C5.73805 4.32716 5.69671 4.53311 5.61636 4.72528C5.53601 4.91744 5.41824 5.09206 5.26973 5.23915C5.12123 5.38625 4.94491 5.50294 4.75086 5.58256C4.55681 5.66219 4.34883 5.70319 4.13878 5.70323V5.70323ZM5.51693 15.694H2.75775V6.90463H5.51693V15.694ZM17.2244 0.0012549H1.3727C1.01292 -0.00276533 0.666217 0.134812 0.408822 0.383756C0.151426 0.632699 0.00439102 0.972641 0 1.32888V17.0896C0.00424074 17.446 0.15119 17.7861 0.408576 18.0353C0.665963 18.2845 1.01274 18.4224 1.3727 18.4186H17.2244C17.5851 18.4231 17.9328 18.2856 18.1912 18.0364C18.4496 17.7872 18.5975 17.4467 18.6025 17.0896V1.32775C18.5974 0.970797 18.4494 0.630469 18.1909 0.381531C17.9325 0.132594 17.5849 -0.00459043 17.2244 0.000117282" fill="#0A033C"/>
<path d="M20.7194 16.0372C20.3841 16.0404 20.0636 16.175 19.8282 16.4115C19.5928 16.648 19.4615 16.9671 19.4631 17.2992C19.4648 17.6313 19.5991 17.9492 19.8368 18.1834C20.0745 18.4176 20.3963 18.5491 20.7316 18.5491C21.067 18.5491 21.3887 18.4176 21.6264 18.1834C21.8641 17.9492 21.9985 17.6313 22.0001 17.2992C22.0017 16.9671 21.8704 16.648 21.635 16.4115C21.3996 16.175 21.0792 16.0404 20.7438 16.0372H20.7194ZM20.7194 18.4053C20.4995 18.409 20.2834 18.3479 20.0984 18.2299C19.9135 18.112 19.7681 17.9423 19.6805 17.7425C19.593 17.5427 19.5672 17.3216 19.6065 17.1073C19.6459 16.893 19.7485 16.695 19.9014 16.5385C20.0544 16.3819 20.2508 16.2738 20.4658 16.2277C20.6808 16.1817 20.9048 16.1998 21.1094 16.2798C21.314 16.3598 21.4901 16.4981 21.6153 16.6771C21.7406 16.8562 21.8094 17.068 21.813 17.2858C21.813 17.2921 21.813 17.298 21.813 17.3043C21.8192 17.59 21.7105 17.8664 21.5109 18.0728C21.3112 18.2792 21.037 18.3986 20.7484 18.4048H20.7197" fill="#0A033C"/>
</g>
<defs>
<clipPath id="clip0_59_8451">
<rect width="22" height="18.5714" fill="white"/>
</clipPath>
</defs>
</svg>
