<svg width="318" height="210" viewBox="0 0 318 210" fill="none" xmlns="http://www.w3.org/2000/svg">
<path d="M11.6851 134.542C19.3584 122.352 29.8698 112.639 40.7827 103.898C49.9265 96.5659 60.0146 89.0173 63.7861 77.3201C65.8483 70.9428 65.7886 63.8931 68.1057 57.6242C71.1935 49.2675 80.7606 39.143 88.9114 35.4934C101.382 29.9078 116.451 38.3784 129.399 34.0238C134.75 32.2234 136.161 28.7907 139.846 25.1845C143.791 21.3234 148.534 17.9612 153.092 14.8647C162.03 8.79112 171.928 3.91052 182.586 1.79017C201.356 -1.9462 221.381 3.38992 236.874 15.0437C246.186 22.0501 253.886 31.2419 259.644 41.5725C265.146 51.453 267.577 62.4072 272.673 72.3853C282.224 91.0834 302.047 101.447 311.425 120.253C318.322 134.098 318.604 151.017 314.974 166.283C311.343 181.543 304.12 195.463 296.534 208.874C296.496 208.934 296.463 208.988 296.431 209.042H283.906C236.109 208.879 30.1736 208.239 25.2788 209.205H15.7605C8.81985 203.164 2.48697 186.477 1.22256 176.402C-0.622467 161.738 4.0173 146.733 11.6851 134.542Z" fill="#EDDCFF"/>
</svg>
